<?xml version="1.0" encoding="UTF-8" standalone="no"?>
<!DOCTYPE svg PUBLIC "-//W3C//DTD SVG 1.1//EN"
 "http://www.w3.org/Graphics/SVG/1.1/DTD/svg11.dtd">
<!-- Generated by graphviz version 2.42.3 ()
 -->
<!-- Title: g Pages: 1 -->
<svg width="520pt" height="188pt"
 viewBox="0.00 0.00 520.00 188.00" xmlns="http://www.w3.org/2000/svg" xmlns:xlink="http://www.w3.org/1999/xlink">
<g id="graph0" class="graph" transform="scale(1 1) rotate(0) translate(4 184)">
<title>g</title>
<polygon fill="white" stroke="transparent" points="-4,4 -4,-184 516,-184 516,4 -4,4"/>
<!-- encryption -->
<g id="node1" class="node">
<title>encryption</title>
<polygon fill="none" stroke="red" points="169,-108 77,-108 77,-72 169,-72 169,-108"/>
<text text-anchor="middle" x="123" y="-86.9" font-family="Monospace" font-size="12.00">encryption</text>
</g>
<!-- edata1 -->
<g id="node4" class="node">
<title>edata1</title>
<polygon fill="none" stroke="black" points="184,-36 62,-36 62,0 184,0 184,-36"/>
<text text-anchor="middle" x="123" y="-14.9" font-family="Monospace" font-size="12.00">encrypted data</text>
</g>
<!-- encryption&#45;&gt;edata1 -->
<g id="edge3" class="edge">
<title>encryption&#45;&gt;edata1</title>
<path fill="none" stroke="black" d="M123,-71.7C123,-63.98 123,-54.71 123,-46.11"/>
<polygon fill="black" stroke="black" points="126.5,-46.1 123,-36.1 119.5,-46.1 126.5,-46.1"/>
</g>
<!-- key1 -->
<g id="node2" class="node">
<title>key1</title>
<polygon fill="none" stroke="black" points="122,-180 0,-180 0,-144 122,-144 122,-180"/>
<text text-anchor="middle" x="61" y="-158.9" font-family="Monospace" font-size="12.00">encryption key</text>
</g>
<!-- key1&#45;&gt;encryption -->
<g id="edge1" class="edge">
<title>key1&#45;&gt;encryption</title>
<path fill="none" stroke="black" d="M76.33,-143.7C83.76,-135.3 92.82,-125.07 100.98,-115.86"/>
<polygon fill="black" stroke="black" points="103.84,-117.91 107.85,-108.1 98.6,-113.27 103.84,-117.91"/>
</g>
<!-- data1 -->
<g id="node3" class="node">
<title>data1</title>
<polygon fill="none" stroke="black" points="232,-180 140,-180 140,-144 232,-144 232,-180"/>
<text text-anchor="middle" x="186" y="-158.9" font-family="Monospace" font-size="12.00">plain data</text>
</g>
<!-- data1&#45;&gt;encryption -->
<g id="edge2" class="edge">
<title>data1&#45;&gt;encryption</title>
<path fill="none" stroke="black" d="M170.43,-143.7C162.8,-135.22 153.48,-124.86 145.12,-115.58"/>
<polygon fill="black" stroke="black" points="147.69,-113.2 138.39,-108.1 142.48,-117.88 147.69,-113.2"/>
</g>
<!-- decryption -->
<g id="node5" class="node">
<title>decryption</title>
<polygon fill="none" stroke="red" points="427,-108 335,-108 335,-72 427,-72 427,-108"/>
<text text-anchor="middle" x="381" y="-86.9" font-family="Monospace" font-size="12.00">decryption</text>
</g>
<!-- data2 -->
<g id="node7" class="node">
<title>data2</title>
<polygon fill="none" stroke="black" points="427,-36 335,-36 335,0 427,0 427,-36"/>
<text text-anchor="middle" x="381" y="-14.9" font-family="Monospace" font-size="12.00">plain data</text>
</g>
<!-- decryption&#45;&gt;data2 -->
<g id="edge6" class="edge">
<title>decryption&#45;&gt;data2</title>
<path fill="none" stroke="black" d="M381,-71.7C381,-63.98 381,-54.71 381,-46.11"/>
<polygon fill="black" stroke="black" points="384.5,-46.1 381,-36.1 377.5,-46.1 384.5,-46.1"/>
</g>
<!-- key2 -->
<g id="node6" class="node">
<title>key2</title>
<polygon fill="none" stroke="black" points="372,-180 250,-180 250,-144 372,-144 372,-180"/>
<text text-anchor="middle" x="311" y="-158.9" font-family="Monospace" font-size="12.00">decryption key</text>
</g>
<!-- key2&#45;&gt;decryption -->
<g id="edge4" class="edge">
<title>key2&#45;&gt;decryption</title>
<path fill="none" stroke="black" d="M328.3,-143.7C336.86,-135.14 347.34,-124.66 356.7,-115.3"/>
<polygon fill="black" stroke="black" points="359.3,-117.65 363.9,-108.1 354.35,-112.7 359.3,-117.65"/>
</g>
<!-- edata2 -->
<g id="node8" class="node">
<title>edata2</title>
<polygon fill="none" stroke="black" points="512,-180 390,-180 390,-144 512,-144 512,-180"/>
<text text-anchor="middle" x="451" y="-158.9" font-family="Monospace" font-size="12.00">encrypted data</text>
</g>
<!-- edata2&#45;&gt;decryption -->
<g id="edge5" class="edge">
<title>edata2&#45;&gt;decryption</title>
<path fill="none" stroke="black" d="M433.7,-143.7C425.14,-135.14 414.66,-124.66 405.3,-115.3"/>
<polygon fill="black" stroke="black" points="407.65,-112.7 398.1,-108.1 402.7,-117.65 407.65,-112.7"/>
</g>
</g>
</svg>
