<?xml version="1.0" encoding="UTF-8" standalone="no"?>
<!DOCTYPE svg PUBLIC "-//W3C//DTD SVG 1.1//EN"
 "http://www.w3.org/Graphics/SVG/1.1/DTD/svg11.dtd">
<!-- Generated by graphviz version 2.42.3 ()
 -->
<!-- Title: g Pages: 1 -->
<svg width="345pt" height="99pt"
 viewBox="0.00 0.00 345.00 99.00" xmlns="http://www.w3.org/2000/svg" xmlns:xlink="http://www.w3.org/1999/xlink">
<g id="graph0" class="graph" transform="scale(1 1) rotate(0) translate(4 95)">
<title>g</title>
<polygon fill="white" stroke="transparent" points="-4,4 -4,-95 341,-95 341,4 -4,4"/>
<g id="clust1" class="cluster">
<title>cluster1</title>
<polygon fill="none" stroke="gray" stroke-dasharray="5,2" points="8,-8 8,-83 329,-83 329,-8 8,-8"/>
<text text-anchor="middle" x="168.5" y="-67.8" font-family="Times,serif" font-size="14.00">plaint text</text>
</g>
<!-- node1 -->
<g id="node1" class="node">
<title>node1</title>
<polygon fill="none" stroke="black" points="24.5,-23 24.5,-44 38.5,-44 38.5,-23 24.5,-23"/>
<text text-anchor="start" x="27.5" y="-29.8" font-family="Times,serif" font-size="14.00">0</text>
<polygon fill="none" stroke="black" points="38.5,-23 38.5,-44 52.5,-44 52.5,-23 38.5,-23"/>
<text text-anchor="start" x="41.5" y="-29.8" font-family="Times,serif" font-size="14.00">1</text>
<polygon fill="none" stroke="black" points="52.5,-23 52.5,-44 81.5,-44 81.5,-23 52.5,-23"/>
<text text-anchor="start" x="55.5" y="-29.8" font-family="Times,serif" font-size="14.00">...</text>
<polygon fill="none" stroke="black" points="81.5,-23 81.5,-44 110.5,-44 110.5,-23 81.5,-23"/>
<text text-anchor="start" x="84.5" y="-29.8" font-family="Times,serif" font-size="14.00">N&#45;1</text>
<polygon fill="none" stroke="black" points="114.5,-23 114.5,-44 128.5,-44 128.5,-23 114.5,-23"/>
<text text-anchor="start" x="117.5" y="-29.8" font-family="Times,serif" font-size="14.00">0</text>
<polygon fill="none" stroke="black" points="128.5,-23 128.5,-44 142.5,-44 142.5,-23 128.5,-23"/>
<text text-anchor="start" x="131.5" y="-29.8" font-family="Times,serif" font-size="14.00">1</text>
<polygon fill="none" stroke="black" points="142.5,-23 142.5,-44 171.5,-44 171.5,-23 142.5,-23"/>
<text text-anchor="start" x="145.5" y="-29.8" font-family="Times,serif" font-size="14.00">...</text>
<polygon fill="none" stroke="black" points="171.5,-23 171.5,-44 200.5,-44 200.5,-23 171.5,-23"/>
<text text-anchor="start" x="174.5" y="-29.8" font-family="Times,serif" font-size="14.00">N&#45;1</text>
<text text-anchor="start" x="202.5" y="-29.8" font-family="Times,serif" font-size="14.00">...</text>
<polygon fill="none" stroke="black" points="227.5,-23 227.5,-44 241.5,-44 241.5,-23 227.5,-23"/>
<text text-anchor="start" x="230.5" y="-29.8" font-family="Times,serif" font-size="14.00">0</text>
<polygon fill="none" stroke="black" points="241.5,-23 241.5,-44 255.5,-44 255.5,-23 241.5,-23"/>
<text text-anchor="start" x="244.5" y="-29.8" font-family="Times,serif" font-size="14.00">1</text>
<polygon fill="none" stroke="black" points="255.5,-23 255.5,-44 284.5,-44 284.5,-23 255.5,-23"/>
<text text-anchor="start" x="258.5" y="-29.8" font-family="Times,serif" font-size="14.00">...</text>
<polygon fill="none" stroke="black" points="284.5,-23 284.5,-44 313.5,-44 313.5,-23 284.5,-23"/>
<text text-anchor="start" x="287.5" y="-29.8" font-family="Times,serif" font-size="14.00">N&#45;1</text>
</g>
</g>
</svg>
