<?xml version="1.0" encoding="UTF-8" standalone="no"?>
<!DOCTYPE svg PUBLIC "-//W3C//DTD SVG 1.1//EN"
 "http://www.w3.org/Graphics/SVG/1.1/DTD/svg11.dtd">
<!-- Generated by graphviz version 2.42.3 ()
 -->
<!-- Title: tx Pages: 1 -->
<svg width="211pt" height="163pt"
 viewBox="0.00 0.00 211.00 163.00" xmlns="http://www.w3.org/2000/svg" xmlns:xlink="http://www.w3.org/1999/xlink">
<g id="graph0" class="graph" transform="scale(1 1) rotate(0) translate(4 159)">
<title>tx</title>
<polygon fill="white" stroke="transparent" points="-4,4 -4,-159 207,-159 207,4 -4,4"/>
<!-- node1 -->
<g id="node1" class="node">
<title>node1</title>
<polygon fill="none" stroke="white" points="8.5,-129.5 8.5,-150.5 195.5,-150.5 195.5,-129.5 8.5,-129.5"/>
<text text-anchor="start" x="83" y="-137.3" font-family="Times,serif" font-style="italic" font-size="14.00">block</text>
<polygon fill="none" stroke="black" points="8.5,-108.5 8.5,-129.5 195.5,-129.5 195.5,-108.5 8.5,-108.5"/>
<text text-anchor="start" x="11.5" y="-115.3" font-family="Times,serif" font-size="14.00">no: 123</text>
<polygon fill="none" stroke="black" points="8.5,-87.5 8.5,-108.5 195.5,-108.5 195.5,-87.5 8.5,-87.5"/>
<text text-anchor="start" x="11.5" y="-94.3" font-family="Times,serif" font-size="14.00">tx hashes: [0x63ab..,..]</text>
<polygon fill="none" stroke="black" points="8.5,-66.5 8.5,-87.5 195.5,-87.5 195.5,-66.5 8.5,-66.5"/>
<text text-anchor="start" x="11.5" y="-73.3" font-family="Times,serif" font-size="14.00">tx merkle: 0x73cf..</text>
<polygon fill="none" stroke="black" points="8.5,-45.5 8.5,-66.5 195.5,-66.5 195.5,-45.5 8.5,-45.5"/>
<text text-anchor="start" x="11.5" y="-52.3" font-family="Times,serif" font-size="14.00">nonce: 34400232231</text>
<polygon fill="none" stroke="black" points="8.5,-24.5 8.5,-45.5 195.5,-45.5 195.5,-24.5 8.5,-24.5"/>
<text text-anchor="start" x="11.5" y="-31.3" font-family="Times,serif" font-size="14.00">timestemp: &#160;1590049607</text>
<polygon fill="gray" stroke="transparent" points="8.5,-3.5 8.5,-24.5 195.5,-24.5 195.5,-3.5 8.5,-3.5"/>
<polygon fill="none" stroke="black" points="8.5,-3.5 8.5,-24.5 195.5,-24.5 195.5,-3.5 8.5,-3.5"/>
<text text-anchor="start" x="11.5" y="-10.3" font-family="Times,serif" font-size="14.00">signature: 0x320ab..</text>
</g>
</g>
</svg>
