<?xml version="1.0" encoding="UTF-8" standalone="no"?>
<!DOCTYPE svg PUBLIC "-//W3C//DTD SVG 1.1//EN"
 "http://www.w3.org/Graphics/SVG/1.1/DTD/svg11.dtd">
<!-- Generated by graphviz version 2.42.3 ()
 -->
<!-- Title: blockchain Pages: 1 -->
<svg width="602pt" height="179pt"
 viewBox="0.00 0.00 602.00 179.00" xmlns="http://www.w3.org/2000/svg" xmlns:xlink="http://www.w3.org/1999/xlink">
<g id="graph0" class="graph" transform="scale(1 1) rotate(0) translate(4 175)">
<title>blockchain</title>
<!--
<polygon fill="transparent" stroke="transparent" points="-4,4 -4,-175 598,-175 598,4 -4,4"/>
-->
<!-- b0 -->
<g id="node1" class="node">
<title>b0</title>
<polygon fill="none" stroke="red" stroke-dasharray="5,2" points="54,-117 0,-117 0,-81 54,-81 54,-117"/>
<text text-anchor="middle" x="27" y="-95.9" font-family="Monospace" font-size="12.00">b0</text>
</g>
<!-- b1a -->
<g id="node2" class="node">
<title>b1a</title>
<polygon fill="none" stroke="red" stroke-dasharray="5,2" points="144,-117 90,-117 90,-81 144,-81 144,-117"/>
<text text-anchor="middle" x="117" y="-95.9" font-family="Monospace" font-size="12.00">b1a</text>
</g>
<!-- b0&#45;&gt;b1a -->
<g id="edge1" class="edge">
<title>b0&#45;&gt;b1a</title>
<path fill="none" stroke="black" d="M54.4,-99C62.39,-99 71.31,-99 79.82,-99"/>
<polygon fill="black" stroke="black" points="79.92,-102.5 89.92,-99 79.92,-95.5 79.92,-102.5"/>
</g>
<!-- b2a -->
<g id="node3" class="node">
<title>b2a</title>
<polygon fill="gray" stroke="gray" points="234,-144 180,-144 180,-108 234,-108 234,-144"/>
<text text-anchor="middle" x="207" y="-122.9" font-family="Monospace" font-size="12.00">b2a</text>
</g>
<!-- b1a&#45;&gt;b2a -->
<g id="edge2" class="edge">
<title>b1a&#45;&gt;b2a</title>
<path fill="none" stroke="black" d="M144.4,-107.1C152.48,-109.58 161.51,-112.35 170.1,-114.99"/>
<polygon fill="black" stroke="black" points="169.33,-118.41 179.92,-118 171.39,-111.72 169.33,-118.41"/>
</g>
<!-- b2b -->
<g id="node4" class="node">
<title>b2b</title>
<polygon fill="none" stroke="red" stroke-dasharray="5,2" points="234,-90 180,-90 180,-54 234,-54 234,-90"/>
<text text-anchor="middle" x="207" y="-68.9" font-family="Monospace" font-size="12.00">b2b</text>
</g>
<!-- b1a&#45;&gt;b2b -->
<g id="edge3" class="edge">
<title>b1a&#45;&gt;b2b</title>
<path fill="none" stroke="black" d="M144.4,-90.9C152.48,-88.42 161.51,-85.65 170.1,-83.01"/>
<polygon fill="black" stroke="black" points="171.39,-86.28 179.92,-80 169.33,-79.59 171.39,-86.28"/>
</g>
<!-- b3a -->
<g id="node5" class="node">
<title>b3a</title>
<polygon fill="gray" stroke="gray" points="324,-144 270,-144 270,-108 324,-108 324,-144"/>
<text text-anchor="middle" x="297" y="-122.9" font-family="Monospace" font-size="12.00">b3a</text>
</g>
<!-- b2b&#45;&gt;b3a -->
<g id="edge4" class="edge">
<title>b2b&#45;&gt;b3a</title>
<path fill="none" stroke="black" d="M234.4,-88.2C242.83,-93.37 252.29,-99.18 261.22,-104.66"/>
<polygon fill="black" stroke="black" points="259.57,-107.75 269.92,-110 263.23,-101.78 259.57,-107.75"/>
</g>
<!-- b3b -->
<g id="node6" class="node">
<title>b3b</title>
<polygon fill="none" stroke="red" stroke-dasharray="5,2" points="324,-90 270,-90 270,-54 324,-54 324,-90"/>
<text text-anchor="middle" x="297" y="-68.9" font-family="Monospace" font-size="12.00">b3b</text>
</g>
<!-- b2b&#45;&gt;b3b -->
<g id="edge5" class="edge">
<title>b2b&#45;&gt;b3b</title>
<path fill="none" stroke="black" d="M234.4,-72C242.39,-72 251.31,-72 259.82,-72"/>
<polygon fill="black" stroke="black" points="259.92,-75.5 269.92,-72 259.92,-68.5 259.92,-75.5"/>
</g>
<!-- b3c -->
<g id="node7" class="node">
<title>b3c</title>
<polygon fill="gray" stroke="gray" points="324,-36 270,-36 270,0 324,0 324,-36"/>
<text text-anchor="middle" x="297" y="-14.9" font-family="Monospace" font-size="12.00">b3c</text>
</g>
<!-- b2b&#45;&gt;b3c -->
<g id="edge6" class="edge">
<title>b2b&#45;&gt;b3c</title>
<path fill="none" stroke="black" d="M234.4,-55.8C242.83,-50.63 252.29,-44.82 261.22,-39.34"/>
<polygon fill="black" stroke="black" points="263.23,-42.22 269.92,-34 259.57,-36.25 263.23,-42.22"/>
</g>
<!-- b4a -->
<g id="node8" class="node">
<title>b4a</title>
<polygon fill="none" stroke="red" stroke-dasharray="5,2" points="414,-117 360,-117 360,-81 414,-81 414,-117"/>
<text text-anchor="middle" x="387" y="-95.9" font-family="Monospace" font-size="12.00">b4a</text>
</g>
<!-- b3b&#45;&gt;b4a -->
<g id="edge7" class="edge">
<title>b3b&#45;&gt;b4a</title>
<path fill="none" stroke="black" d="M324.4,-80.1C332.48,-82.58 341.51,-85.35 350.1,-87.99"/>
<polygon fill="black" stroke="black" points="349.33,-91.41 359.92,-91 351.39,-84.72 349.33,-91.41"/>
</g>
<!-- b4b -->
<g id="node9" class="node">
<title>b4b</title>
<polygon fill="gray" stroke="gray" points="414,-63 360,-63 360,-27 414,-27 414,-63"/>
<text text-anchor="middle" x="387" y="-41.9" font-family="Monospace" font-size="12.00">b4b</text>
</g>
<!-- b3b&#45;&gt;b4b -->
<g id="edge8" class="edge">
<title>b3b&#45;&gt;b4b</title>
<path fill="none" stroke="black" d="M324.4,-63.9C332.48,-61.42 341.51,-58.65 350.1,-56.01"/>
<polygon fill="black" stroke="black" points="351.39,-59.28 359.92,-53 349.33,-52.59 351.39,-59.28"/>
</g>
<!-- b5b -->
<g id="node11" class="node">
<title>b5b</title>
<polygon fill="none" stroke="red" stroke-dasharray="5,2" points="504,-171 450,-171 450,-135 504,-135 504,-171"/>
<text text-anchor="middle" x="477" y="-149.9" font-family="Monospace" font-size="12.00">b5b</text>
</g>
<!-- b4a&#45;&gt;b5b -->
<g id="edge10" class="edge">
<title>b4a&#45;&gt;b5b</title>
<path fill="none" stroke="black" d="M414.4,-115.2C422.83,-120.37 432.29,-126.18 441.22,-131.66"/>
<polygon fill="black" stroke="black" points="439.57,-134.75 449.92,-137 443.23,-128.78 439.57,-134.75"/>
</g>
<!-- b5c -->
<g id="node12" class="node">
<title>b5c</title>
<polygon fill="gray" stroke="gray" points="504,-117 450,-117 450,-81 504,-81 504,-117"/>
<text text-anchor="middle" x="477" y="-95.9" font-family="Monospace" font-size="12.00">b5c</text>
</g>
<!-- b4a&#45;&gt;b5c -->
<g id="edge11" class="edge">
<title>b4a&#45;&gt;b5c</title>
<path fill="none" stroke="black" d="M414.4,-99C422.39,-99 431.31,-99 439.82,-99"/>
<polygon fill="black" stroke="black" points="439.92,-102.5 449.92,-99 439.92,-95.5 439.92,-102.5"/>
</g>
<!-- b5a -->
<g id="node10" class="node">
<title>b5a</title>
<polygon fill="gray" stroke="gray" points="504,-63 450,-63 450,-27 504,-27 504,-63"/>
<text text-anchor="middle" x="477" y="-41.9" font-family="Monospace" font-size="12.00">b5a</text>
</g>
<!-- b4b&#45;&gt;b5a -->
<g id="edge9" class="edge">
<title>b4b&#45;&gt;b5a</title>
<path fill="none" stroke="black" d="M414.4,-45C422.39,-45 431.31,-45 439.82,-45"/>
<polygon fill="black" stroke="black" points="439.92,-48.5 449.92,-45 439.92,-41.5 439.92,-48.5"/>
</g>
<!-- b6a -->
<g id="node13" class="node">
<title>b6a</title>
<polygon fill="none" stroke="red" stroke-dasharray="5,2" points="594,-171 540,-171 540,-135 594,-135 594,-171"/>
<text text-anchor="middle" x="567" y="-149.9" font-family="Monospace" font-size="12.00">b6a</text>
</g>
<!-- b5b&#45;&gt;b6a -->
<g id="edge12" class="edge">
<title>b5b&#45;&gt;b6a</title>
<path fill="none" stroke="black" d="M504.4,-153C512.39,-153 521.31,-153 529.82,-153"/>
<polygon fill="black" stroke="black" points="529.92,-156.5 539.92,-153 529.92,-149.5 529.92,-156.5"/>
</g>
</g>
</svg>
