<?xml version="1.0" encoding="UTF-8" standalone="no"?>
<!DOCTYPE svg PUBLIC "-//W3C//DTD SVG 1.1//EN"
 "http://www.w3.org/Graphics/SVG/1.1/DTD/svg11.dtd">
<!-- Generated by graphviz version 2.42.3 ()
 -->
<!-- Title: bfh Pages: 1 -->
<svg width="196pt" height="163pt"
 viewBox="0.00 0.00 196.00 163.00" xmlns="http://www.w3.org/2000/svg" xmlns:xlink="http://www.w3.org/1999/xlink">
<g id="graph0" class="graph" transform="scale(1 1) rotate(0) translate(4 159)">
<title>bfh</title>
<polygon fill="white" stroke="transparent" points="-4,4 -4,-159 192,-159 192,4 -4,4"/>
<!-- node1 -->
<g id="node1" class="node">
<title>node1</title>
<text text-anchor="start" x="78.5" y="-138.3" font-family="Times,serif" font-style="italic" font-size="14.00">data</text>
<polygon fill="none" stroke="black" points="8,-110.5 8,-131.5 180,-131.5 180,-110.5 8,-110.5"/>
<text text-anchor="start" x="11" y="-117.3" font-family="Times,serif" font-size="14.00">...</text>
<polygon fill="red" stroke="transparent" points="8,-89.5 8,-110.5 180,-110.5 180,-89.5 8,-89.5"/>
<polygon fill="none" stroke="black" points="8,-89.5 8,-110.5 180,-110.5 180,-89.5 8,-89.5"/>
<text text-anchor="start" x="11" y="-96.3" font-family="Times,serif" font-size="14.00">nonce: 6278330123</text>
<polygon fill="none" stroke="black" points="8,-68.5 8,-89.5 180,-89.5 180,-68.5 8,-68.5"/>
<text text-anchor="start" x="11" y="-75.3" font-family="Times,serif" font-size="14.00">...</text>
<polygon fill="red" stroke="transparent" points="8,-47.5 8,-68.5 180,-68.5 180,-47.5 8,-47.5"/>
<polygon fill="none" stroke="black" points="8,-47.5 8,-68.5 180,-68.5 180,-47.5 8,-47.5"/>
<text text-anchor="start" x="11" y="-54.3" font-family="Times,serif" font-size="14.00">timestemp: &#160;1590049607</text>
<polygon fill="none" stroke="black" points="8,-26.5 8,-47.5 180,-47.5 180,-26.5 8,-26.5"/>
<text text-anchor="start" x="11" y="-33.3" font-family="Times,serif" font-size="14.00">...</text>
<text text-anchor="start" x="15" y="-10.3" font-family="Times,serif" font-style="italic" font-size="14.00">hash(data)=0x8073a7..</text>
</g>
</g>
</svg>
