<?xml version="1.0" encoding="UTF-8" standalone="no"?>
<!DOCTYPE svg PUBLIC "-//W3C//DTD SVG 1.1//EN"
 "http://www.w3.org/Graphics/SVG/1.1/DTD/svg11.dtd">
<!-- Generated by graphviz version 2.42.3 ()
 -->
<!-- Title: bfh Pages: 1 -->
<svg width="734pt" height="163pt"
 viewBox="0.00 0.00 734.00 163.00" xmlns="http://www.w3.org/2000/svg" xmlns:xlink="http://www.w3.org/1999/xlink">
<g id="graph0" class="graph" transform="scale(1 1) rotate(0) translate(4 159)">
<title>bfh</title>
<polygon fill="white" stroke="transparent" points="-4,4 -4,-159 730,-159 730,4 -4,4"/>
<!-- node1 -->
<g id="node1" class="node">
<title>node1</title>
<text text-anchor="start" x="78.5" y="-138.3" font-family="Times,serif" font-style="italic" font-size="14.00">data</text>
<polygon fill="none" stroke="black" points="8,-110.5 8,-131.5 180,-131.5 180,-110.5 8,-110.5"/>
<text text-anchor="start" x="11" y="-117.3" font-family="Times,serif" font-size="14.00">...</text>
<polygon fill="lightgray" stroke="transparent" points="8,-89.5 8,-110.5 180,-110.5 180,-89.5 8,-89.5"/>
<polygon fill="none" stroke="black" points="8,-89.5 8,-110.5 180,-110.5 180,-89.5 8,-89.5"/>
<text text-anchor="start" x="11" y="-96.3" font-family="Times,serif" font-size="14.00">nonce: 6278330123</text>
<polygon fill="none" stroke="black" points="8,-68.5 8,-89.5 180,-89.5 180,-68.5 8,-68.5"/>
<text text-anchor="start" x="11" y="-75.3" font-family="Times,serif" font-size="14.00">...</text>
<polygon fill="lightgray" stroke="transparent" points="8,-47.5 8,-68.5 180,-68.5 180,-47.5 8,-47.5"/>
<polygon fill="none" stroke="black" points="8,-47.5 8,-68.5 180,-68.5 180,-47.5 8,-47.5"/>
<text text-anchor="start" x="11" y="-54.3" font-family="Times,serif" font-size="14.00">timestemp: &#160;1590049607</text>
<polygon fill="none" stroke="black" points="8,-26.5 8,-47.5 180,-47.5 180,-26.5 8,-26.5"/>
<text text-anchor="start" x="11" y="-33.3" font-family="Times,serif" font-size="14.00">...</text>
<text text-anchor="start" x="15" y="-10.3" font-family="Times,serif" font-style="italic" font-size="14.00">hash(data)=0x8073a7..</text>
</g>
<!-- node2 -->
<g id="node2" class="node">
<title>node2</title>
<text text-anchor="start" x="302.5" y="-138.3" font-family="Times,serif" font-style="italic" font-size="14.00">data</text>
<polygon fill="none" stroke="black" points="232,-110.5 232,-131.5 404,-131.5 404,-110.5 232,-110.5"/>
<text text-anchor="start" x="235" y="-117.3" font-family="Times,serif" font-size="14.00">...</text>
<polygon fill="lightgray" stroke="transparent" points="232,-89.5 232,-110.5 404,-110.5 404,-89.5 232,-89.5"/>
<polygon fill="none" stroke="black" points="232,-89.5 232,-110.5 404,-110.5 404,-89.5 232,-89.5"/>
<text text-anchor="start" x="235" y="-96.3" font-family="Times,serif" font-size="14.00">nonce: 6278330124</text>
<polygon fill="none" stroke="black" points="232,-68.5 232,-89.5 404,-89.5 404,-68.5 232,-68.5"/>
<text text-anchor="start" x="235" y="-75.3" font-family="Times,serif" font-size="14.00">...</text>
<polygon fill="lightgray" stroke="transparent" points="232,-47.5 232,-68.5 404,-68.5 404,-47.5 232,-47.5"/>
<polygon fill="none" stroke="black" points="232,-47.5 232,-68.5 404,-68.5 404,-47.5 232,-47.5"/>
<text text-anchor="start" x="235" y="-54.3" font-family="Times,serif" font-size="14.00">timestemp: &#160;1590049607</text>
<polygon fill="none" stroke="black" points="232,-26.5 232,-47.5 404,-47.5 404,-26.5 232,-26.5"/>
<text text-anchor="start" x="235" y="-33.3" font-family="Times,serif" font-size="14.00">...</text>
<text text-anchor="start" x="239" y="-10.3" font-family="Times,serif" font-style="italic" font-size="14.00">hash(data)=0x5a0c34..</text>
</g>
<!-- node1&#45;&gt;node2 -->
<!-- N -->
<g id="node3" class="node">
<title>N</title>
<text text-anchor="middle" x="475" y="-75.8" font-family="Times,serif" font-size="14.00">...</text>
</g>
<!-- node2&#45;&gt;N -->
<!-- node3 -->
<g id="node4" class="node">
<title>node3</title>
<text text-anchor="start" x="616.5" y="-138.3" font-family="Times,serif" font-style="italic" font-size="14.00">data</text>
<polygon fill="none" stroke="black" points="546,-110.5 546,-131.5 718,-131.5 718,-110.5 546,-110.5"/>
<text text-anchor="start" x="549" y="-117.3" font-family="Times,serif" font-size="14.00">...</text>
<polygon fill="lightgray" stroke="transparent" points="546,-89.5 546,-110.5 718,-110.5 718,-89.5 546,-89.5"/>
<polygon fill="none" stroke="black" points="546,-89.5 546,-110.5 718,-110.5 718,-89.5 546,-89.5"/>
<text text-anchor="start" x="549" y="-96.3" font-family="Times,serif" font-size="14.00">nonce: 18393420921</text>
<polygon fill="none" stroke="black" points="546,-68.5 546,-89.5 718,-89.5 718,-68.5 546,-68.5"/>
<text text-anchor="start" x="549" y="-75.3" font-family="Times,serif" font-size="14.00">...</text>
<polygon fill="lightgray" stroke="transparent" points="546,-47.5 546,-68.5 718,-68.5 718,-47.5 546,-47.5"/>
<polygon fill="none" stroke="black" points="546,-47.5 546,-68.5 718,-68.5 718,-47.5 546,-47.5"/>
<text text-anchor="start" x="549" y="-54.3" font-family="Times,serif" font-size="14.00">timestemp: &#160;1590049607</text>
<polygon fill="none" stroke="black" points="546,-26.5 546,-47.5 718,-47.5 718,-26.5 546,-26.5"/>
<text text-anchor="start" x="549" y="-33.3" font-family="Times,serif" font-size="14.00">...</text>
<polygon fill="red" stroke="transparent" points="546,-3.5 546,-22.5 718,-22.5 718,-3.5 546,-3.5"/>
<text text-anchor="start" x="553" y="-10.3" font-family="Times,serif" font-style="italic" font-size="14.00">hash(data)=0x98bb23..</text>
</g>
<!-- N&#45;&gt;node3 -->
</g>
</svg>
