<?xml version="1.0" encoding="UTF-8" standalone="no"?>
<!DOCTYPE svg PUBLIC "-//W3C//DTD SVG 1.1//EN"
 "http://www.w3.org/Graphics/SVG/1.1/DTD/svg11.dtd">
<!-- Generated by graphviz version 2.42.3 ()
 -->
<!-- Title: collision Pages: 1 -->
<svg width="250pt" height="120pt"
 viewBox="0.00 0.00 250.00 120.00" xmlns="http://www.w3.org/2000/svg" xmlns:xlink="http://www.w3.org/1999/xlink">
<g id="graph0" class="graph" transform="scale(1 1) rotate(0) translate(4 116)">
<title>collision</title>
<polygon fill="white" stroke="transparent" points="-4,4 -4,-116 246,-116 246,4 -4,4"/>
<!-- A -->
<g id="node1" class="node">
<title>A</title>
<polygon fill="none" stroke="red" stroke-dasharray="5,2" points="54,-112 0,-112 0,-76 54,-76 54,-112"/>
<text text-anchor="middle" x="27" y="-90.3" font-family="Times,serif" font-size="14.00">A</text>
</g>
<!-- C -->
<g id="node3" class="node">
<title>C</title>
<polygon fill="red" stroke="black" points="242,-101 188,-101 188,-65 242,-65 242,-101"/>
<text text-anchor="middle" x="215" y="-79.3" font-family="Times,serif" font-size="14.00">C</text>
</g>
<!-- A&#45;&gt;C -->
<g id="edge1" class="edge">
<title>A&#45;&gt;C</title>
<path fill="none" stroke="black" d="M54.25,-92.45C86.52,-90.54 141.44,-87.29 177.72,-85.15"/>
<polygon fill="black" stroke="black" points="178.1,-88.63 187.88,-84.54 177.69,-81.64 178.1,-88.63"/>
<text text-anchor="middle" x="121" y="-94.8" font-family="Times,serif" font-size="14.00">hash(A)</text>
</g>
<!-- B -->
<g id="node2" class="node">
<title>B</title>
<polygon fill="none" stroke="red" stroke-dasharray="5,2" points="54,-47 0,-47 0,-11 54,-11 54,-47"/>
<text text-anchor="middle" x="27" y="-25.3" font-family="Times,serif" font-size="14.00">B</text>
</g>
<!-- B&#45;&gt;C -->
<g id="edge2" class="edge">
<title>B&#45;&gt;C</title>
<path fill="none" stroke="black" d="M54.17,-34.87C82.85,-41.53 130.11,-53.14 170,-66 172.61,-66.84 175.3,-67.76 177.99,-68.71"/>
<polygon fill="black" stroke="black" points="177.06,-72.09 187.65,-72.26 179.47,-65.52 177.06,-72.09"/>
<text text-anchor="middle" x="121" y="-69.8" font-family="Times,serif" font-size="14.00">hash(B)</text>
</g>
<!-- D -->
<g id="node4" class="node">
<title>D</title>
<polygon fill="none" stroke="red" stroke-dasharray="5,2" points="242,-36 188,-36 188,0 242,0 242,-36"/>
<text text-anchor="middle" x="215" y="-14.3" font-family="Times,serif" font-size="14.00">D</text>
</g>
<!-- B&#45;&gt;D -->
<g id="edge3" class="edge">
<title>B&#45;&gt;D</title>
<path fill="none" stroke="black" d="M54.36,-22.03C60.14,-20.78 66.24,-19.67 72,-19 107.88,-14.85 149.2,-15.12 177.98,-16.11"/>
<polygon fill="black" stroke="black" points="177.86,-19.61 187.99,-16.5 178.13,-12.62 177.86,-19.61"/>
<text text-anchor="middle" x="121" y="-22.8" font-family="Times,serif" font-size="14.00">hash(hash(B))</text>
</g>
</g>
</svg>
