<?xml version="1.0" encoding="UTF-8" standalone="no"?>
<!DOCTYPE svg PUBLIC "-//W3C//DTD SVG 1.1//EN"
 "http://www.w3.org/Graphics/SVG/1.1/DTD/svg11.dtd">
<!-- Generated by graphviz version 2.42.3 ()
 -->
<!-- Title: collision Pages: 1 -->
<svg width="214pt" height="120pt"
 viewBox="0.00 0.00 214.00 120.00" xmlns="http://www.w3.org/2000/svg" xmlns:xlink="http://www.w3.org/1999/xlink">
<g id="graph0" class="graph" transform="scale(1 1) rotate(0) translate(4 116)">
<title>collision</title>
<polygon fill="white" stroke="transparent" points="-4,4 -4,-116 210,-116 210,4 -4,4"/>
<!-- A -->
<g id="node1" class="node">
<title>A</title>
<ellipse fill="none" stroke="red" stroke-dasharray="5,2" cx="18" cy="-94" rx="18" ry="18"/>
<text text-anchor="middle" x="18" y="-90.3" font-family="Times,serif" font-size="14.00">A</text>
</g>
<!-- C -->
<g id="node3" class="node">
<title>C</title>
<ellipse fill="red" stroke="black" cx="188" cy="-83" rx="18" ry="18"/>
<text text-anchor="middle" x="188" y="-79.3" font-family="Times,serif" font-size="14.00">C</text>
</g>
<!-- A&#45;&gt;C -->
<g id="edge1" class="edge">
<title>A&#45;&gt;C</title>
<path fill="none" stroke="black" d="M36.03,-92.88C65.21,-90.97 124.99,-87.06 159.94,-84.77"/>
<polygon fill="black" stroke="black" points="160.17,-88.26 169.92,-84.12 159.71,-81.28 160.17,-88.26"/>
<text text-anchor="middle" x="103" y="-94.8" font-family="Times,serif" font-size="14.00">hash(A)</text>
</g>
<!-- B -->
<g id="node2" class="node">
<title>B</title>
<ellipse fill="none" stroke="red" stroke-dasharray="5,2" cx="18" cy="-29" rx="18" ry="18"/>
<text text-anchor="middle" x="18" y="-25.3" font-family="Times,serif" font-size="14.00">B</text>
</g>
<!-- B&#45;&gt;C -->
<g id="edge2" class="edge">
<title>B&#45;&gt;C</title>
<path fill="none" stroke="black" d="M35.69,-32.62C61.19,-38.37 111.2,-50.56 152,-66 155.39,-67.28 158.89,-68.77 162.32,-70.33"/>
<polygon fill="black" stroke="black" points="161.05,-73.61 171.59,-74.77 164.08,-67.29 161.05,-73.61"/>
<text text-anchor="middle" x="103" y="-69.8" font-family="Times,serif" font-size="14.00">hash(B)</text>
</g>
<!-- D -->
<g id="node4" class="node">
<title>D</title>
<ellipse fill="none" stroke="red" stroke-dasharray="5,2" cx="188" cy="-18" rx="18" ry="18"/>
<text text-anchor="middle" x="188" y="-14.3" font-family="Times,serif" font-size="14.00">D</text>
</g>
<!-- B&#45;&gt;D -->
<g id="edge3" class="edge">
<title>B&#45;&gt;D</title>
<path fill="none" stroke="black" d="M35.18,-23.39C41.04,-21.62 47.74,-19.9 54,-19 90.16,-13.8 132.42,-14.64 159.43,-16.05"/>
<polygon fill="black" stroke="black" points="159.48,-19.56 169.67,-16.65 159.89,-12.57 159.48,-19.56"/>
<text text-anchor="middle" x="103" y="-22.8" font-family="Times,serif" font-size="14.00">hash(hash(B))</text>
</g>
</g>
</svg>
