<?xml version="1.0" encoding="UTF-8" standalone="no"?>
<!DOCTYPE svg PUBLIC "-//W3C//DTD SVG 1.1//EN"
 "http://www.w3.org/Graphics/SVG/1.1/DTD/svg11.dtd">
<!-- Generated by graphviz version 2.42.3 ()
 -->
<!-- Title: g Pages: 1 -->
<svg width="492pt" height="434pt"
 viewBox="0.00 0.00 491.60 434.01" xmlns="http://www.w3.org/2000/svg" xmlns:xlink="http://www.w3.org/1999/xlink">
<g id="graph0" class="graph" transform="scale(1 1) rotate(0) translate(4 430.01)">
<title>g</title>
<polygon fill="white" stroke="transparent" points="-4,4 -4,-430.01 487.6,-430.01 487.6,4 -4,4"/>
<!-- n0 -->
<g id="node1" class="node">
<title>n0</title>
<ellipse fill="none" stroke="black" cx="241.65" cy="-126.42" rx="18" ry="18"/>
<text text-anchor="middle" x="241.65" y="-122.72" font-family="Times,serif" font-size="14.00">X</text>
</g>
<!-- n1 -->
<g id="node2" class="node">
<title>n1</title>
<ellipse fill="none" stroke="black" cx="301.04" cy="-208.16" rx="18" ry="18"/>
<text text-anchor="middle" x="301.04" y="-204.46" font-family="Times,serif" font-size="14.00">Z</text>
</g>
<!-- n0&#45;&gt;n1 -->
<g id="edge1" class="edge">
<title>n0&#45;&gt;n1</title>
<path fill="none" stroke="black" d="M252.27,-141.03C263.01,-155.82 279.53,-178.56 290.31,-193.4"/>
</g>
<!-- n2 -->
<g id="node3" class="node">
<title>n2</title>
<ellipse fill="none" stroke="black" cx="145.57" cy="-258.67" rx="18" ry="18"/>
<text text-anchor="middle" x="145.57" y="-254.97" font-family="Times,serif" font-size="14.00">N</text>
</g>
<!-- n0&#45;&gt;n2 -->
<g id="edge2" class="edge">
<title>n0&#45;&gt;n2</title>
<path fill="none" stroke="black" d="M231,-141.08C212.53,-166.5 174.77,-218.48 156.26,-243.95"/>
</g>
<!-- n3 -->
<g id="node4" class="node">
<title>n3</title>
<ellipse fill="none" stroke="black" cx="241.65" cy="-289.9" rx="18" ry="18"/>
<text text-anchor="middle" x="241.65" y="-286.2" font-family="Times,serif" font-size="14.00">K</text>
</g>
<!-- n0&#45;&gt;n3 -->
<g id="edge3" class="edge">
<title>n0&#45;&gt;n3</title>
<path fill="none" stroke="black" d="M233.23,-142.39C226.48,-173.56 226.46,-242.2 233.17,-273.62"/>
</g>
<!-- n0&#45;&gt;n3 -->
<g id="edge13" class="edge">
<title>n0&#45;&gt;n3</title>
<path fill="none" stroke="red" stroke-dasharray="5,2" d="M250.08,-142.39C256.17,-170.52 256.78,-229.15 251.91,-263.42"/>
<polygon fill="red" stroke="red" points="248.41,-263.16 250.14,-273.62 255.3,-264.36 248.41,-263.16"/>
</g>
<!-- n4 -->
<g id="node5" class="node">
<title>n4</title>
<ellipse fill="none" stroke="black" cx="145.57" cy="-157.64" rx="18" ry="18"/>
<text text-anchor="middle" x="145.57" y="-153.94" font-family="Times,serif" font-size="14.00">E</text>
</g>
<!-- n0&#45;&gt;n4 -->
<g id="edge4" class="edge">
<title>n0&#45;&gt;n4</title>
<path fill="none" stroke="black" d="M224.48,-132C207.09,-137.65 180.36,-146.33 162.92,-152"/>
</g>
<!-- n1&#45;&gt;n2 -->
<g id="edge5" class="edge">
<title>n1&#45;&gt;n2</title>
<path fill="none" stroke="black" d="M283.81,-213.76C253.92,-223.47 192.81,-243.32 162.88,-253.05"/>
</g>
<!-- n1&#45;&gt;n3 -->
<g id="edge6" class="edge">
<title>n1&#45;&gt;n3</title>
<path fill="none" stroke="black" d="M290.42,-222.77C279.68,-237.56 263.16,-260.29 252.38,-275.13"/>
</g>
<!-- n1&#45;&gt;n4 -->
<g id="edge7" class="edge">
<title>n1&#45;&gt;n4</title>
<path fill="none" stroke="black" d="M288.45,-195.21C260.89,-179.16 195.62,-157.93 163.67,-154.6"/>
</g>
<!-- n1&#45;&gt;n4 -->
<g id="edge17" class="edge">
<title>n1&#45;&gt;n4</title>
<path fill="none" stroke="blue" stroke-dasharray="5,2" d="M283.25,-211.23C254.61,-208.33 198.66,-190.8 167.58,-175.58"/>
<polygon fill="blue" stroke="blue" points="168.9,-172.32 158.43,-170.74 165.63,-178.51 168.9,-172.32"/>
</g>
<!-- n2&#45;&gt;n3 -->
<g id="edge8" class="edge">
<title>n2&#45;&gt;n3</title>
<path fill="none" stroke="black" d="M162.74,-264.26C180.13,-269.9 206.86,-278.59 224.3,-284.26"/>
</g>
<!-- n2&#45;&gt;n4 -->
<g id="edge9" class="edge">
<title>n2&#45;&gt;n4</title>
<path fill="none" stroke="black" d="M145.57,-240.61C145.57,-222.34 145.57,-194.23 145.57,-175.89"/>
</g>
<!-- n3&#45;&gt;n0 -->
<g id="edge12" class="edge">
<title>n3&#45;&gt;n0</title>
<path fill="none" stroke="red" stroke-dasharray="5,2" d="M241.65,-271.78C241.65,-243.42 241.65,-188.34 241.65,-154.72"/>
<polygon fill="red" stroke="red" points="245.15,-154.62 241.65,-144.62 238.15,-154.62 245.15,-154.62"/>
</g>
<!-- n3&#45;&gt;n4 -->
<g id="edge10" class="edge">
<title>n3&#45;&gt;n4</title>
<path fill="none" stroke="black" d="M231,-275.24C212.53,-249.81 174.77,-197.83 156.26,-172.37"/>
</g>
<!-- u0 -->
<g id="node6" class="node">
<title>u0</title>
<ellipse fill="none" stroke="red" stroke-dasharray="5,2" cx="344.55" cy="-360.53" rx="20.6" ry="20.6"/>
<text text-anchor="middle" x="344.55" y="-356.83" font-family="Times,serif" font-size="14.00">u0</text>
</g>
<!-- n3&#45;&gt;u0 -->
<g id="edge14" class="edge">
<title>n3&#45;&gt;u0</title>
<path fill="none" stroke="red" stroke-dasharray="5,2" d="M253.22,-303.71C268.38,-316.68 295.26,-335.56 315.98,-348.07"/>
<polygon fill="red" stroke="red" points="314.31,-351.15 324.72,-353.17 317.84,-345.11 314.31,-351.15"/>
</g>
<!-- n4&#45;&gt;n1 -->
<g id="edge16" class="edge">
<title>n4&#45;&gt;n1</title>
<path fill="none" stroke="blue" stroke-dasharray="5,2" d="M162.8,-163.24C189.77,-172 242.15,-189.02 274.13,-199.41"/>
<polygon fill="blue" stroke="blue" points="273.14,-202.77 283.73,-202.53 275.3,-196.11 273.14,-202.77"/>
</g>
<!-- u1 -->
<g id="node7" class="node">
<title>u1</title>
<ellipse fill="none" stroke="blue" stroke-dasharray="5,2" cx="20.8" cy="-160.98" rx="20.6" ry="20.6"/>
<text text-anchor="middle" x="20.8" y="-157.28" font-family="Times,serif" font-size="14.00">u1</text>
</g>
<!-- n4&#45;&gt;u1 -->
<g id="edge18" class="edge">
<title>n4&#45;&gt;u1</title>
<path fill="none" stroke="blue" stroke-dasharray="5,2" d="M128.09,-153.26C108.2,-151.68 75.36,-152.2 51.24,-154.26"/>
<polygon fill="blue" stroke="blue" points="50.78,-150.79 41.18,-155.27 51.48,-157.75 50.78,-150.79"/>
</g>
<!-- u0&#45;&gt;n3 -->
<g id="edge11" class="edge">
<title>u0&#45;&gt;n3</title>
<path fill="none" stroke="red" stroke-dasharray="5,2" d="M330.49,-344.61C314.32,-331.19 287.61,-312.64 267.66,-300.82"/>
<polygon fill="red" stroke="red" points="269.18,-297.65 258.76,-295.75 265.72,-303.74 269.18,-297.65"/>
<text text-anchor="middle" x="265.07" y="-326.51" font-family="Times,serif" font-size="14.00">0x18037..</text>
</g>
<!-- u1&#45;&gt;n4 -->
<g id="edge15" class="edge">
<title>u1&#45;&gt;n4</title>
<path fill="none" stroke="blue" stroke-dasharray="5,2" d="M41.26,-165.57C62.17,-166.94 94.79,-166.27 117.98,-164.1"/>
<polygon fill="blue" stroke="blue" points="118.65,-167.55 128.2,-162.97 117.88,-160.59 118.65,-167.55"/>
<text text-anchor="middle" x="79.62" y="-153.64" font-family="Times,serif" font-size="14.00">0x40f54..</text>
</g>
<!-- nn0 -->
<g id="node8" class="node">
<title>nn0</title>
<polygon fill="none" stroke="gray" stroke-dasharray="5,2" points="318.88,-36 234.88,-36 234.88,0 318.88,0 318.88,-36"/>
<text text-anchor="middle" x="276.88" y="-14.3" font-family="Times,serif" font-size="14.00">0x3ba78..</text>
</g>
<!-- nn0&#45;&gt;n0 -->
<g id="edge19" class="edge">
<title>nn0&#45;&gt;n0</title>
<path fill="none" stroke="gray" stroke-dasharray="5,2" d="M270.91,-36.39C264.31,-56.69 253.77,-89.12 247.31,-109.02"/>
</g>
<!-- nn1 -->
<g id="node9" class="node">
<title>nn1</title>
<polygon fill="none" stroke="gray" stroke-dasharray="5,2" points="457.04,-226.16 373.04,-226.16 373.04,-190.16 457.04,-190.16 457.04,-226.16"/>
<text text-anchor="middle" x="415.04" y="-204.46" font-family="Times,serif" font-size="14.00">0x50f21..</text>
</g>
<!-- nn1&#45;&gt;n1 -->
<g id="edge20" class="edge">
<title>nn1&#45;&gt;n1</title>
<path fill="none" stroke="gray" stroke-dasharray="5,2" d="M372.91,-208.16C354.39,-208.16 333.62,-208.16 319.19,-208.16"/>
</g>
<!-- nn2 -->
<g id="node10" class="node">
<title>nn2</title>
<polygon fill="none" stroke="gray" stroke-dasharray="5,2" points="95.34,-343.68 11.34,-343.68 11.34,-307.68 95.34,-307.68 95.34,-343.68"/>
<text text-anchor="middle" x="53.34" y="-321.98" font-family="Times,serif" font-size="14.00">0x891cb..</text>
</g>
<!-- nn2&#45;&gt;n2 -->
<g id="edge21" class="edge">
<title>nn2&#45;&gt;n2</title>
<path fill="none" stroke="gray" stroke-dasharray="5,2" d="M78.54,-307.37C95.29,-295.2 116.7,-279.65 130.76,-269.43"/>
</g>
<!-- nn3 -->
<g id="node11" class="node">
<title>nn3</title>
<polygon fill="none" stroke="gray" stroke-dasharray="5,2" points="263.11,-426.01 179.11,-426.01 179.11,-390.01 263.11,-390.01 263.11,-426.01"/>
<text text-anchor="middle" x="221.11" y="-404.31" font-family="Times,serif" font-size="14.00">0xa0924..</text>
</g>
<!-- nn3&#45;&gt;n3 -->
<g id="edge22" class="edge">
<title>nn3&#45;&gt;n3</title>
<path fill="none" stroke="gray" stroke-dasharray="5,2" d="M224.28,-389.81C228.15,-367.55 234.66,-330.1 238.52,-307.92"/>
</g>
<!-- nn4 -->
<g id="node12" class="node">
<title>nn4</title>
<polygon fill="none" stroke="gray" stroke-dasharray="5,2" points="134.76,-68.01 50.76,-68.01 50.76,-32.01 134.76,-32.01 134.76,-68.01"/>
<text text-anchor="middle" x="92.76" y="-46.31" font-family="Times,serif" font-size="14.00">0xf3809..</text>
</g>
<!-- nn4&#45;&gt;n4 -->
<g id="edge23" class="edge">
<title>nn4&#45;&gt;n4</title>
<path fill="none" stroke="gray" stroke-dasharray="5,2" d="M101.72,-68.27C111.78,-88.78 127.96,-121.77 137.6,-141.41"/>
</g>
<!-- node1 -->
<g id="node13" class="node">
<title>node1</title>
<polygon fill="none" stroke="white" points="379.1,-109.16 379.1,-130.16 476.1,-130.16 476.1,-109.16 379.1,-109.16"/>
<text text-anchor="start" x="393.6" y="-116.96" font-family="Times,serif" font-style="italic" font-size="14.00">dht conf:</text>
<polygon fill="none" stroke="gray" points="379.1,-88.16 379.1,-109.16 476.1,-109.16 476.1,-88.16 379.1,-88.16"/>
<text text-anchor="start" x="382.1" y="-94.96" font-family="Times,serif" font-size="14.00">X: 0x3ba78..</text>
<polygon fill="none" stroke="gray" points="379.1,-67.16 379.1,-88.16 476.1,-88.16 476.1,-67.16 379.1,-67.16"/>
<text text-anchor="start" x="382.1" y="-73.96" font-family="Times,serif" font-size="14.00">Z: 0x50f21..</text>
<polygon fill="none" stroke="gray" points="379.1,-46.16 379.1,-67.16 476.1,-67.16 476.1,-46.16 379.1,-46.16"/>
<text text-anchor="start" x="382.1" y="-52.96" font-family="Times,serif" font-size="14.00">N: 0x891cb..</text>
<polygon fill="none" stroke="gray" points="379.1,-25.16 379.1,-46.16 476.1,-46.16 476.1,-25.16 379.1,-25.16"/>
<text text-anchor="start" x="382.1" y="-31.96" font-family="Times,serif" font-size="14.00">K: 0xa0924..</text>
<polygon fill="none" stroke="gray" points="379.1,-4.16 379.1,-25.16 476.1,-25.16 476.1,-4.16 379.1,-4.16"/>
<text text-anchor="start" x="382.1" y="-10.96" font-family="Times,serif" font-size="14.00">E: 0xf3809..</text>
</g>
</g>
</svg>
