<?xml version="1.0" encoding="UTF-8" standalone="no"?>
<!DOCTYPE svg PUBLIC "-//W3C//DTD SVG 1.1//EN"
 "http://www.w3.org/Graphics/SVG/1.1/DTD/svg11.dtd">
<!-- Generated by graphviz version 2.42.3 ()
 -->
<!-- Title: digitalsignatures Pages: 1 -->
<svg width="423pt" height="305pt"
 viewBox="0.00 0.00 423.00 305.00" xmlns="http://www.w3.org/2000/svg" xmlns:xlink="http://www.w3.org/1999/xlink">
<g id="graph0" class="graph" transform="scale(1 1) rotate(0) translate(4 301)">
<title>digitalsignatures</title>
<polygon fill="white" stroke="transparent" points="-4,4 -4,-301 419,-301 419,4 -4,4"/>
<!-- sk -->
<g id="node1" class="node">
<title>sk</title>
<polygon fill="none" stroke="red" stroke-dasharray="5,2" points="92,-297 0,-297 0,-261 92,-261 92,-297"/>
<text text-anchor="middle" x="46" y="-275.3" font-family="Times,serif" font-size="14.00">secret key</text>
</g>
<!-- encryption -->
<g id="node7" class="node">
<title>encryption</title>
<polygon fill="none" stroke="black" points="158,-210 66,-210 66,-174 158,-174 158,-210"/>
<text text-anchor="middle" x="112" y="-188.3" font-family="Times,serif" font-size="14.00">encryption</text>
</g>
<!-- sk&#45;&gt;encryption -->
<g id="edge2" class="edge">
<title>sk&#45;&gt;encryption</title>
<path fill="none" stroke="black" d="M59.36,-260.8C68.84,-248.59 81.72,-231.99 92.37,-218.28"/>
<polygon fill="black" stroke="black" points="95.3,-220.22 98.66,-210.18 89.77,-215.93 95.3,-220.22"/>
</g>
<!-- pk -->
<g id="node2" class="node">
<title>pk</title>
<polygon fill="none" stroke="red" stroke-dasharray="5,2" points="283,-297 191,-297 191,-261 283,-261 283,-297"/>
<text text-anchor="middle" x="237" y="-275.3" font-family="Times,serif" font-size="14.00">public key</text>
</g>
<!-- decryption -->
<g id="node8" class="node">
<title>decryption</title>
<polygon fill="none" stroke="black" points="308,-210 216,-210 216,-174 308,-174 308,-210"/>
<text text-anchor="middle" x="262" y="-188.3" font-family="Times,serif" font-size="14.00">decryption</text>
</g>
<!-- pk&#45;&gt;decryption -->
<g id="edge5" class="edge">
<title>pk&#45;&gt;decryption</title>
<path fill="none" stroke="black" d="M242.06,-260.8C245.52,-249.05 250.17,-233.24 254.11,-219.84"/>
<polygon fill="black" stroke="black" points="257.48,-220.76 256.95,-210.18 250.77,-218.78 257.48,-220.76"/>
</g>
<!-- sig1 -->
<g id="node3" class="node">
<title>sig1</title>
<polygon fill="none" stroke="black" points="154,-123 70,-123 70,-87 154,-87 154,-123"/>
<text text-anchor="middle" x="112" y="-101.3" font-family="Times,serif" font-size="14.00">signature</text>
</g>
<!-- sig2 -->
<g id="node4" class="node">
<title>sig2</title>
<polygon fill="none" stroke="black" points="385,-297 301,-297 301,-261 385,-261 385,-297"/>
<text text-anchor="middle" x="343" y="-275.3" font-family="Times,serif" font-size="14.00">signature</text>
</g>
<!-- sig2&#45;&gt;decryption -->
<g id="edge4" class="edge">
<title>sig2&#45;&gt;decryption</title>
<path fill="none" stroke="black" d="M326.61,-260.8C314.75,-248.36 298.56,-231.36 285.35,-217.5"/>
<polygon fill="black" stroke="black" points="287.8,-215 278.37,-210.18 282.73,-219.83 287.8,-215"/>
</g>
<!-- d1 -->
<g id="node5" class="node">
<title>d1</title>
<polygon fill="none" stroke="black" points="164,-297 110,-297 110,-261 164,-261 164,-297"/>
<text text-anchor="middle" x="137" y="-275.3" font-family="Times,serif" font-size="14.00">data</text>
</g>
<!-- d1&#45;&gt;encryption -->
<g id="edge1" class="edge">
<title>d1&#45;&gt;encryption</title>
<path fill="none" stroke="black" d="M131.94,-260.8C128.48,-249.05 123.83,-233.24 119.89,-219.84"/>
<polygon fill="black" stroke="black" points="123.23,-218.78 117.05,-210.18 116.52,-220.76 123.23,-218.78"/>
<text text-anchor="middle" x="164" y="-231.8" font-family="Times,serif" font-size="14.00">hash(data)</text>
</g>
<!-- d2 -->
<g id="node6" class="node">
<title>d2</title>
<polygon fill="none" stroke="black" points="380,-210 326,-210 326,-174 380,-174 380,-210"/>
<text text-anchor="middle" x="353" y="-188.3" font-family="Times,serif" font-size="14.00">data</text>
</g>
<!-- verify -->
<g id="node9" class="node">
<title>verify</title>
<polygon fill="none" stroke="black" points="353,-123 291,-123 291,-87 353,-87 353,-123"/>
<text text-anchor="middle" x="322" y="-101.3" font-family="Times,serif" font-size="14.00">verify</text>
</g>
<!-- d2&#45;&gt;verify -->
<g id="edge7" class="edge">
<title>d2&#45;&gt;verify</title>
<path fill="none" stroke="black" d="M346.73,-173.8C342.44,-162.05 336.68,-146.24 331.79,-132.84"/>
<polygon fill="black" stroke="black" points="334.98,-131.37 328.26,-123.18 328.4,-133.77 334.98,-131.37"/>
<text text-anchor="middle" x="377" y="-144.8" font-family="Times,serif" font-size="14.00">hash(data)</text>
</g>
<!-- encryption&#45;&gt;sig1 -->
<g id="edge3" class="edge">
<title>encryption&#45;&gt;sig1</title>
<path fill="none" stroke="black" d="M112,-173.8C112,-162.16 112,-146.55 112,-133.24"/>
<polygon fill="black" stroke="black" points="115.5,-133.18 112,-123.18 108.5,-133.18 115.5,-133.18"/>
</g>
<!-- decryption&#45;&gt;verify -->
<g id="edge6" class="edge">
<title>decryption&#45;&gt;verify</title>
<path fill="none" stroke="black" d="M274.14,-173.8C282.68,-161.7 294.26,-145.3 303.88,-131.67"/>
<polygon fill="black" stroke="black" points="306.97,-133.36 309.88,-123.18 301.25,-129.33 306.97,-133.36"/>
</g>
<!-- ok -->
<g id="node10" class="node">
<title>ok</title>
<polygon fill="none" stroke="black" points="349,-36 295,-36 295,0 349,0 349,-36"/>
<text text-anchor="middle" x="322" y="-14.3" font-family="Times,serif" font-size="14.00">ok</text>
</g>
<!-- verify&#45;&gt;ok -->
<g id="edge8" class="edge">
<title>verify&#45;&gt;ok</title>
<path fill="none" stroke="black" d="M322,-86.8C322,-75.16 322,-59.55 322,-46.24"/>
<polygon fill="black" stroke="black" points="325.5,-46.18 322,-36.18 318.5,-46.18 325.5,-46.18"/>
<text text-anchor="middle" x="326" y="-57.8" font-family="Times,serif" font-size="14.00">?</text>
</g>
</g>
</svg>
