<?xml version="1.0" encoding="UTF-8" standalone="no"?>
<!DOCTYPE svg PUBLIC "-//W3C//DTD SVG 1.1//EN"
 "http://www.w3.org/Graphics/SVG/1.1/DTD/svg11.dtd">
<!-- Generated by graphviz version 2.42.3 ()
 -->
<!-- Title: digitalsignatures Pages: 1 -->
<svg width="585pt" height="218pt"
 viewBox="0.00 0.00 585.00 218.00" xmlns="http://www.w3.org/2000/svg" xmlns:xlink="http://www.w3.org/1999/xlink">
<g id="graph0" class="graph" transform="scale(1 1) rotate(0) translate(4 214)">
<title>digitalsignatures</title>
<polygon fill="white" stroke="transparent" points="-4,4 -4,-214 581,-214 581,4 -4,4"/>
<!-- sk -->
<g id="node1" class="node">
<title>sk</title>
<polygon fill="none" stroke="red" stroke-dasharray="5,2" points="132.5,-210 40.5,-210 40.5,-174 132.5,-174 132.5,-210"/>
<text text-anchor="middle" x="86.5" y="-188.3" font-family="Times,serif" font-size="14.00">secret key</text>
</g>
<!-- sign -->
<g id="node4" class="node">
<title>sign</title>
<polygon fill="none" stroke="black" points="219,-123 0,-123 0,-87 219,-87 219,-123"/>
<text text-anchor="middle" x="109.5" y="-101.3" font-family="Times,serif" font-size="14.00">sign:encrypt(hash(data),sk)</text>
</g>
<!-- sk&#45;&gt;sign -->
<g id="edge1" class="edge">
<title>sk&#45;&gt;sign</title>
<path fill="none" stroke="black" d="M91.15,-173.8C94.33,-162.05 98.61,-146.24 102.24,-132.84"/>
<polygon fill="black" stroke="black" points="105.62,-133.74 104.85,-123.18 98.86,-131.91 105.62,-133.74"/>
</g>
<!-- pk -->
<g id="node2" class="node">
<title>pk</title>
<polygon fill="none" stroke="red" stroke-dasharray="5,2" points="358.5,-210 266.5,-210 266.5,-174 358.5,-174 358.5,-210"/>
<text text-anchor="middle" x="312.5" y="-188.3" font-family="Times,serif" font-size="14.00">public key</text>
</g>
<!-- verify -->
<g id="node8" class="node">
<title>verify</title>
<polygon fill="none" stroke="black" points="577,-123 260,-123 260,-87 577,-87 577,-123"/>
<text text-anchor="middle" x="418.5" y="-101.3" font-family="Times,serif" font-size="14.00">verify:decrypt(signature,pk)==hash(data)</text>
</g>
<!-- pk&#45;&gt;verify -->
<g id="edge5" class="edge">
<title>pk&#45;&gt;verify</title>
<path fill="none" stroke="black" d="M333.95,-173.8C349.76,-161.13 371.44,-143.73 388.9,-129.74"/>
<polygon fill="black" stroke="black" points="391.47,-132.16 397.08,-123.18 387.09,-126.7 391.47,-132.16"/>
</g>
<!-- msg1 -->
<g id="node3" class="node">
<title>msg1</title>
<polygon fill="none" stroke="black" points="204.5,-210 150.5,-210 150.5,-174 204.5,-174 204.5,-210"/>
<text text-anchor="middle" x="177.5" y="-188.3" font-family="Times,serif" font-size="14.00">data</text>
</g>
<!-- msg1&#45;&gt;sign -->
<g id="edge2" class="edge">
<title>msg1&#45;&gt;sign</title>
<path fill="none" stroke="black" d="M163.74,-173.8C153.97,-161.59 140.69,-144.99 129.72,-131.28"/>
<polygon fill="black" stroke="black" points="132.22,-128.8 123.24,-123.18 126.75,-133.17 132.22,-128.8"/>
<text text-anchor="middle" x="186.5" y="-144.8" font-family="Times,serif" font-size="14.00">hash(data)</text>
</g>
<!-- sig1 -->
<g id="node5" class="node">
<title>sig1</title>
<polygon fill="none" stroke="black" points="151.5,-36 67.5,-36 67.5,0 151.5,0 151.5,-36"/>
<text text-anchor="middle" x="109.5" y="-14.3" font-family="Times,serif" font-size="14.00">signature</text>
</g>
<!-- sign&#45;&gt;sig1 -->
<g id="edge3" class="edge">
<title>sign&#45;&gt;sig1</title>
<path fill="none" stroke="black" d="M109.5,-86.8C109.5,-75.16 109.5,-59.55 109.5,-46.24"/>
<polygon fill="black" stroke="black" points="113,-46.18 109.5,-36.18 106,-46.18 113,-46.18"/>
</g>
<!-- sig2 -->
<g id="node6" class="node">
<title>sig2</title>
<polygon fill="none" stroke="black" points="460.5,-210 376.5,-210 376.5,-174 460.5,-174 460.5,-210"/>
<text text-anchor="middle" x="418.5" y="-188.3" font-family="Times,serif" font-size="14.00">signature</text>
</g>
<!-- sig2&#45;&gt;verify -->
<g id="edge4" class="edge">
<title>sig2&#45;&gt;verify</title>
<path fill="none" stroke="black" d="M418.5,-173.8C418.5,-162.16 418.5,-146.55 418.5,-133.24"/>
<polygon fill="black" stroke="black" points="422,-133.18 418.5,-123.18 415,-133.18 422,-133.18"/>
</g>
<!-- msg2 -->
<g id="node7" class="node">
<title>msg2</title>
<polygon fill="none" stroke="black" points="532.5,-210 478.5,-210 478.5,-174 532.5,-174 532.5,-210"/>
<text text-anchor="middle" x="505.5" y="-188.3" font-family="Times,serif" font-size="14.00">data</text>
</g>
<!-- msg2&#45;&gt;verify -->
<g id="edge6" class="edge">
<title>msg2&#45;&gt;verify</title>
<path fill="none" stroke="black" d="M487.89,-173.8C475.16,-161.36 457.77,-144.36 443.58,-130.5"/>
<polygon fill="black" stroke="black" points="445.68,-127.66 436.08,-123.18 440.79,-132.67 445.68,-127.66"/>
<text text-anchor="middle" x="504.5" y="-144.8" font-family="Times,serif" font-size="14.00">hash(data)</text>
</g>
<!-- ok -->
<g id="node9" class="node">
<title>ok</title>
<polygon fill="none" stroke="black" points="445.5,-36 391.5,-36 391.5,0 445.5,0 445.5,-36"/>
<text text-anchor="middle" x="418.5" y="-14.3" font-family="Times,serif" font-size="14.00">ok</text>
</g>
<!-- verify&#45;&gt;ok -->
<g id="edge7" class="edge">
<title>verify&#45;&gt;ok</title>
<path fill="none" stroke="black" d="M418.5,-86.8C418.5,-75.16 418.5,-59.55 418.5,-46.24"/>
<polygon fill="black" stroke="black" points="422,-46.18 418.5,-36.18 415,-46.18 422,-46.18"/>
<text text-anchor="middle" x="422.5" y="-57.8" font-family="Times,serif" font-size="14.00">?</text>
</g>
</g>
</svg>
