<?xml version="1.0" encoding="UTF-8" standalone="no"?>
<!DOCTYPE svg PUBLIC "-//W3C//DTD SVG 1.1//EN"
 "http://www.w3.org/Graphics/SVG/1.1/DTD/svg11.dtd">
<!-- Generated by graphviz version 2.42.3 ()
 -->
<!-- Title: blockchain Pages: 1 -->
<svg width="670pt" height="200pt"
 viewBox="0.00 0.00 670.37 199.60" xmlns="http://www.w3.org/2000/svg" xmlns:xlink="http://www.w3.org/1999/xlink">
<g id="graph0" class="graph" transform="scale(1 1) rotate(0) translate(4 195.6)">
<title>blockchain</title>
<polygon fill="white" stroke="transparent" points="-4,4 -4,-195.6 666.37,-195.6 666.37,4 -4,4"/>
<!-- t0 -->
<g id="node1" class="node">
<title>t0</title>
<ellipse fill="none" stroke="black" cx="20.8" cy="-78.8" rx="20.6" ry="20.6"/>
<text text-anchor="middle" x="20.8" y="-75.1" font-family="Times,serif" font-size="14.00">tx</text>
</g>
<!-- t1 -->
<g id="node2" class="node">
<title>t1</title>
<ellipse fill="none" stroke="black" cx="98.39" cy="-29.8" rx="20.6" ry="20.6"/>
<text text-anchor="middle" x="98.39" y="-26.1" font-family="Times,serif" font-size="14.00">tx</text>
</g>
<!-- t1&#45;&gt;t0 -->
<g id="edge1" class="edge">
<title>t1&#45;&gt;t0</title>
<path fill="none" stroke="gray" stroke-dasharray="5,2" d="M80.62,-40.67C70.8,-47.04 58.21,-55.2 47.2,-62.33"/>
<polygon fill="gray" stroke="gray" points="45.28,-59.41 38.79,-67.78 49.09,-65.28 45.28,-59.41"/>
</g>
<!-- t2 -->
<g id="node3" class="node">
<title>t2</title>
<ellipse fill="none" stroke="black" cx="175.99" cy="-127.8" rx="20.6" ry="20.6"/>
<text text-anchor="middle" x="175.99" y="-124.1" font-family="Times,serif" font-size="14.00">tx</text>
</g>
<!-- t2&#45;&gt;t0 -->
<g id="edge2" class="edge">
<title>t2&#45;&gt;t0</title>
<path fill="none" stroke="gray" stroke-dasharray="5,2" d="M155.9,-121.69C129.52,-113.26 81.71,-97.96 50.88,-88.1"/>
<polygon fill="gray" stroke="gray" points="51.72,-84.69 41.13,-84.98 49.59,-91.36 51.72,-84.69"/>
</g>
<!-- t2&#45;&gt;t1 -->
<g id="edge3" class="edge">
<title>t2&#45;&gt;t1</title>
<path fill="none" stroke="gray" stroke-dasharray="5,2" d="M162.51,-111.62C150.47,-96.01 132.09,-72.19 118.27,-54.27"/>
<polygon fill="gray" stroke="gray" points="120.78,-51.79 111.9,-46 115.23,-56.06 120.78,-51.79"/>
</g>
<!-- t3 -->
<g id="node4" class="node">
<title>t3</title>
<ellipse fill="none" stroke="black" cx="253.59" cy="-78.8" rx="20.6" ry="20.6"/>
<text text-anchor="middle" x="253.59" y="-75.1" font-family="Times,serif" font-size="14.00">tx</text>
</g>
<!-- t3&#45;&gt;t0 -->
<g id="edge4" class="edge">
<title>t3&#45;&gt;t0</title>
<path fill="none" stroke="gray" stroke-dasharray="5,2" d="M232.51,-78.8C191.83,-78.8 99.49,-78.8 51.7,-78.8"/>
<polygon fill="gray" stroke="gray" points="51.66,-75.3 41.66,-78.8 51.66,-82.3 51.66,-75.3"/>
</g>
<!-- t3&#45;&gt;t2 -->
<g id="edge5" class="edge">
<title>t3&#45;&gt;t2</title>
<path fill="none" stroke="gray" stroke-dasharray="5,2" d="M235.81,-89.67C225.99,-96.04 213.4,-104.2 202.39,-111.33"/>
<polygon fill="gray" stroke="gray" points="200.47,-108.41 193.98,-116.78 204.28,-114.28 200.47,-108.41"/>
</g>
<!-- t4 -->
<g id="node5" class="node">
<title>t4</title>
<ellipse fill="none" stroke="black" cx="331.18" cy="-69.8" rx="20.6" ry="20.6"/>
<text text-anchor="middle" x="331.18" y="-66.1" font-family="Times,serif" font-size="14.00">tx</text>
</g>
<!-- t4&#45;&gt;t1 -->
<g id="edge7" class="edge">
<title>t4&#45;&gt;t1</title>
<path fill="none" stroke="gray" stroke-dasharray="5,2" d="M311.95,-61.6C301.22,-57.12 287.27,-51.87 274.39,-48.8 224.41,-36.88 164.61,-32.42 129.44,-30.77"/>
<polygon fill="gray" stroke="gray" points="129.49,-27.27 119.35,-30.34 129.2,-34.26 129.49,-27.27"/>
</g>
<!-- t4&#45;&gt;t3 -->
<g id="edge6" class="edge">
<title>t4&#45;&gt;t3</title>
<path fill="none" stroke="gray" stroke-dasharray="5,2" d="M310.32,-72.16C302.42,-73.1 293.16,-74.21 284.48,-75.24"/>
<polygon fill="gray" stroke="gray" points="283.83,-71.79 274.32,-76.45 284.66,-78.74 283.83,-71.79"/>
</g>
<!-- t5 -->
<g id="node6" class="node">
<title>t5</title>
<ellipse fill="none" stroke="black" cx="408.78" cy="-20.8" rx="20.6" ry="20.6"/>
<text text-anchor="middle" x="408.78" y="-17.1" font-family="Times,serif" font-size="14.00">tx</text>
</g>
<!-- t5&#45;&gt;t1 -->
<g id="edge8" class="edge">
<title>t5&#45;&gt;t1</title>
<path fill="none" stroke="gray" stroke-dasharray="5,2" d="M387.55,-21.39C334.6,-22.93 191.75,-27.1 129.3,-28.93"/>
<polygon fill="gray" stroke="gray" points="129.2,-25.43 119.3,-29.22 129.4,-32.42 129.2,-25.43"/>
</g>
<!-- t5&#45;&gt;t4 -->
<g id="edge9" class="edge">
<title>t5&#45;&gt;t4</title>
<path fill="none" stroke="gray" stroke-dasharray="5,2" d="M391,-31.67C381.19,-38.04 368.6,-46.2 357.58,-53.33"/>
<polygon fill="gray" stroke="gray" points="355.66,-50.41 349.18,-58.78 359.47,-56.28 355.66,-50.41"/>
</g>
<!-- t6 -->
<g id="node7" class="node">
<title>t6</title>
<ellipse fill="none" stroke="black" cx="486.38" cy="-121.8" rx="20.6" ry="20.6"/>
<text text-anchor="middle" x="486.38" y="-118.1" font-family="Times,serif" font-size="14.00">tx</text>
</g>
<!-- t6&#45;&gt;t2 -->
<g id="edge10" class="edge">
<title>t6&#45;&gt;t2</title>
<path fill="none" stroke="gray" stroke-dasharray="5,2" d="M465.14,-122.19C412.3,-123.22 269.94,-125.99 207.28,-127.21"/>
<polygon fill="gray" stroke="gray" points="206.83,-123.72 196.9,-127.41 206.96,-130.72 206.83,-123.72"/>
</g>
<!-- t6&#45;&gt;t5 -->
<g id="edge11" class="edge">
<title>t6&#45;&gt;t5</title>
<path fill="none" stroke="gray" stroke-dasharray="5,2" d="M473.23,-105.57C461,-89.23 441.98,-63.81 427.95,-45.07"/>
<polygon fill="gray" stroke="gray" points="430.69,-42.89 421.9,-36.99 425.09,-47.09 430.69,-42.89"/>
</g>
<!-- t7 -->
<g id="node8" class="node">
<title>t7</title>
<ellipse fill="none" stroke="black" cx="486.38" cy="-61.8" rx="20.6" ry="20.6"/>
<text text-anchor="middle" x="486.38" y="-58.1" font-family="Times,serif" font-size="14.00">tx</text>
</g>
<!-- t7&#45;&gt;t4 -->
<g id="edge12" class="edge">
<title>t7&#45;&gt;t4</title>
<path fill="none" stroke="gray" stroke-dasharray="5,2" d="M465.35,-62.84C439.09,-64.22 392.78,-66.63 362.28,-68.23"/>
<polygon fill="gray" stroke="gray" points="362.02,-64.74 352.22,-68.75 362.38,-71.73 362.02,-64.74"/>
</g>
<!-- t7&#45;&gt;t5 -->
<g id="edge13" class="edge">
<title>t7&#45;&gt;t5</title>
<path fill="none" stroke="gray" stroke-dasharray="5,2" d="M467.84,-52.29C458.56,-47.25 446.96,-40.96 436.57,-35.33"/>
<polygon fill="gray" stroke="gray" points="437.94,-32.09 427.48,-30.4 434.6,-38.24 437.94,-32.09"/>
</g>
<!-- t8 -->
<g id="node9" class="node">
<title>t8</title>
<ellipse fill="none" stroke="black" cx="563.97" cy="-170.8" rx="20.6" ry="20.6"/>
<text text-anchor="middle" x="563.97" y="-167.1" font-family="Times,serif" font-size="14.00">tx</text>
</g>
<!-- t8&#45;&gt;t4 -->
<g id="edge14" class="edge">
<title>t8&#45;&gt;t4</title>
<path fill="none" stroke="gray" stroke-dasharray="5,2" d="M542.99,-169.01C522.88,-166.73 491.26,-161.81 465.58,-151.8 424.39,-135.73 381.71,-106.99 356.04,-88.16"/>
<polygon fill="gray" stroke="gray" points="358.13,-85.35 348.02,-82.18 353.95,-90.96 358.13,-85.35"/>
</g>
<!-- t8&#45;&gt;t6 -->
<g id="edge15" class="edge">
<title>t8&#45;&gt;t6</title>
<path fill="none" stroke="gray" stroke-dasharray="5,2" d="M546.2,-159.92C536.38,-153.56 523.79,-145.4 512.78,-138.26"/>
<polygon fill="gray" stroke="gray" points="514.66,-135.31 504.37,-132.81 510.86,-141.19 514.66,-135.31"/>
</g>
<!-- t9 -->
<g id="node10" class="node">
<title>t9</title>
<ellipse fill="none" stroke="black" cx="563.97" cy="-37.8" rx="20.6" ry="20.6"/>
<text text-anchor="middle" x="563.97" y="-34.1" font-family="Times,serif" font-size="14.00">tx</text>
</g>
<!-- t9&#45;&gt;t5 -->
<g id="edge16" class="edge">
<title>t9&#45;&gt;t5</title>
<path fill="none" stroke="gray" stroke-dasharray="5,2" d="M543.26,-35.61C517.09,-32.71 470.63,-27.55 440.01,-24.15"/>
<polygon fill="gray" stroke="gray" points="440.23,-20.66 429.9,-23.03 439.46,-27.61 440.23,-20.66"/>
</g>
<!-- t9&#45;&gt;t7 -->
<g id="edge17" class="edge">
<title>t9&#45;&gt;t7</title>
<path fill="none" stroke="gray" stroke-dasharray="5,2" d="M543.9,-43.85C535.48,-46.53 525.41,-49.72 516.11,-52.68"/>
<polygon fill="gray" stroke="gray" points="514.92,-49.38 506.45,-55.74 517.04,-56.05 514.92,-49.38"/>
</g>
<!-- t10 -->
<g id="node11" class="node">
<title>t10</title>
<ellipse fill="none" stroke="black" cx="641.57" cy="-145.8" rx="20.6" ry="20.6"/>
<text text-anchor="middle" x="641.57" y="-142.1" font-family="Times,serif" font-size="14.00">tx</text>
</g>
<!-- t10&#45;&gt;t6 -->
<g id="edge18" class="edge">
<title>t10&#45;&gt;t6</title>
<path fill="none" stroke="gray" stroke-dasharray="5,2" d="M620.85,-142.71C594.54,-138.59 547.71,-131.25 517.1,-126.46"/>
<polygon fill="gray" stroke="gray" points="517.44,-122.96 507.01,-124.87 516.35,-129.88 517.44,-122.96"/>
</g>
<!-- t10&#45;&gt;t8 -->
<g id="edge19" class="edge">
<title>t10&#45;&gt;t8</title>
<path fill="none" stroke="gray" stroke-dasharray="5,2" d="M621.49,-152.11C613.08,-154.89 603,-158.22 593.71,-161.29"/>
<polygon fill="gray" stroke="gray" points="592.44,-158.03 584.04,-164.49 594.64,-164.67 592.44,-158.03"/>
</g>
</g>
</svg>
