<?xml version="1.0" encoding="UTF-8" standalone="no"?>
<!DOCTYPE svg PUBLIC "-//W3C//DTD SVG 1.1//EN"
 "http://www.w3.org/Graphics/SVG/1.1/DTD/svg11.dtd">
<!-- Generated by graphviz version 2.42.3 ()
 -->
<!-- Title: blockchain Pages: 1 -->
<svg width="782pt" height="182pt"
 viewBox="0.00 0.00 782.00 182.00" xmlns="http://www.w3.org/2000/svg" xmlns:xlink="http://www.w3.org/1999/xlink">
<g id="graph0" class="graph" transform="scale(1 1) rotate(0) translate(4 178)">
<title>blockchain</title>
<polygon fill="white" stroke="transparent" points="-4,4 -4,-178 778,-178 778,4 -4,4"/>
<!-- t1 -->
<g id="node1" class="node">
<title>t1</title>
<ellipse fill="none" stroke="black" cx="117" cy="-22" rx="27" ry="18"/>
<text text-anchor="middle" x="117" y="-18.9" font-family="Monospace" font-size="12.00">t1</text>
</g>
<!-- t0 -->
<g id="node2" class="node">
<title>t0</title>
<ellipse fill="none" stroke="black" cx="27" cy="-68" rx="27" ry="18"/>
<text text-anchor="middle" x="27" y="-64.9" font-family="Monospace" font-size="12.00">t0</text>
</g>
<!-- t1&#45;&gt;t0 -->
<g id="edge1" class="edge">
<title>t1&#45;&gt;t0</title>
<path fill="none" stroke="black" d="M95.15,-32.9C83.97,-38.74 70,-46.04 57.71,-52.47"/>
<polygon fill="black" stroke="black" points="55.95,-49.44 48.71,-57.18 59.19,-55.65 55.95,-49.44"/>
</g>
<!-- t2 -->
<g id="node3" class="node">
<title>t2</title>
<ellipse fill="none" stroke="black" cx="207" cy="-114" rx="27" ry="18"/>
<text text-anchor="middle" x="207" y="-110.9" font-family="Monospace" font-size="12.00">t2</text>
</g>
<!-- t2&#45;&gt;t1 -->
<g id="edge3" class="edge">
<title>t2&#45;&gt;t1</title>
<path fill="none" stroke="black" d="M191.47,-98.81C177.24,-83.94 155.42,-61.12 139.25,-44.21"/>
<polygon fill="black" stroke="black" points="141.7,-41.72 132.26,-36.91 136.64,-46.55 141.7,-41.72"/>
</g>
<!-- t2&#45;&gt;t0 -->
<g id="edge2" class="edge">
<title>t2&#45;&gt;t0</title>
<path fill="none" stroke="black" d="M181.62,-107.7C150.69,-99.71 97.14,-85.87 62.15,-76.83"/>
<polygon fill="black" stroke="black" points="62.93,-73.41 52.37,-74.3 61.17,-80.19 62.93,-73.41"/>
</g>
<!-- t3 -->
<g id="node4" class="node">
<title>t3</title>
<ellipse fill="none" stroke="black" cx="297" cy="-68" rx="27" ry="18"/>
<text text-anchor="middle" x="297" y="-64.9" font-family="Monospace" font-size="12.00">t3</text>
</g>
<!-- t3&#45;&gt;t0 -->
<g id="edge4" class="edge">
<title>t3&#45;&gt;t0</title>
<path fill="none" stroke="black" d="M269.82,-68C221.78,-68 119.49,-68 64.61,-68"/>
<polygon fill="black" stroke="black" points="64.29,-64.5 54.29,-68 64.29,-71.5 64.29,-64.5"/>
</g>
<!-- t3&#45;&gt;t2 -->
<g id="edge5" class="edge">
<title>t3&#45;&gt;t2</title>
<path fill="none" stroke="black" d="M275.15,-78.9C263.97,-84.74 250,-92.04 237.71,-98.47"/>
<polygon fill="black" stroke="black" points="235.95,-95.44 228.71,-103.18 239.19,-101.65 235.95,-95.44"/>
</g>
<!-- t4 -->
<g id="node5" class="node">
<title>t4</title>
<ellipse fill="none" stroke="black" cx="387" cy="-64" rx="27" ry="18"/>
<text text-anchor="middle" x="387" y="-60.9" font-family="Monospace" font-size="12.00">t4</text>
</g>
<!-- t4&#45;&gt;t1 -->
<g id="edge7" class="edge">
<title>t4&#45;&gt;t1</title>
<path fill="none" stroke="black" d="M364.05,-54.24C352.38,-49.47 337.66,-44.11 324,-41 265.53,-27.7 195.7,-23.67 154.2,-22.47"/>
<polygon fill="black" stroke="black" points="154.12,-18.97 144.03,-22.22 153.94,-25.97 154.12,-18.97"/>
</g>
<!-- t4&#45;&gt;t3 -->
<g id="edge6" class="edge">
<title>t4&#45;&gt;t3</title>
<path fill="none" stroke="black" d="M359.6,-65.2C351.61,-65.56 342.69,-65.97 334.18,-66.36"/>
<polygon fill="black" stroke="black" points="333.91,-62.86 324.08,-66.81 334.23,-69.86 333.91,-62.86"/>
</g>
<!-- t5 -->
<g id="node6" class="node">
<title>t5</title>
<ellipse fill="none" stroke="black" cx="477" cy="-18" rx="27" ry="18"/>
<text text-anchor="middle" x="477" y="-14.9" font-family="Monospace" font-size="12.00">t5</text>
</g>
<!-- t5&#45;&gt;t1 -->
<g id="edge8" class="edge">
<title>t5&#45;&gt;t1</title>
<path fill="none" stroke="black" d="M449.86,-17.95C398.27,-17.91 279.68,-18.06 180,-20 171.75,-20.16 162.88,-20.4 154.5,-20.67"/>
<polygon fill="black" stroke="black" points="154.12,-17.18 144.24,-21.01 154.35,-24.17 154.12,-17.18"/>
</g>
<!-- t5&#45;&gt;t4 -->
<g id="edge9" class="edge">
<title>t5&#45;&gt;t4</title>
<path fill="none" stroke="black" d="M455.15,-28.9C443.97,-34.74 430,-42.04 417.71,-48.47"/>
<polygon fill="black" stroke="black" points="415.95,-45.44 408.71,-53.18 419.19,-51.65 415.95,-45.44"/>
</g>
<!-- t6 -->
<g id="node7" class="node">
<title>t6</title>
<ellipse fill="none" stroke="black" cx="567" cy="-110" rx="27" ry="18"/>
<text text-anchor="middle" x="567" y="-106.9" font-family="Monospace" font-size="12.00">t6</text>
</g>
<!-- t6&#45;&gt;t2 -->
<g id="edge10" class="edge">
<title>t6&#45;&gt;t2</title>
<path fill="none" stroke="black" d="M539.97,-110.29C477.09,-110.99 316.81,-112.78 244.44,-113.59"/>
<polygon fill="black" stroke="black" points="244.38,-110.09 234.42,-113.7 244.46,-117.09 244.38,-110.09"/>
</g>
<!-- t6&#45;&gt;t5 -->
<g id="edge11" class="edge">
<title>t6&#45;&gt;t5</title>
<path fill="none" stroke="black" d="M551.68,-95.16C547.88,-91.21 543.78,-86.95 540,-83 526.42,-68.83 511.2,-52.88 499.24,-40.32"/>
<polygon fill="black" stroke="black" points="501.69,-37.82 492.26,-32.99 496.62,-42.65 501.69,-37.82"/>
</g>
<!-- t7 -->
<g id="node8" class="node">
<title>t7</title>
<ellipse fill="none" stroke="black" cx="567" cy="-56" rx="27" ry="18"/>
<text text-anchor="middle" x="567" y="-52.9" font-family="Monospace" font-size="12.00">t7</text>
</g>
<!-- t7&#45;&gt;t4 -->
<g id="edge12" class="edge">
<title>t7&#45;&gt;t4</title>
<path fill="none" stroke="black" d="M539.74,-57.18C509.15,-58.56 458.45,-60.83 424.16,-62.37"/>
<polygon fill="black" stroke="black" points="423.92,-58.88 414.08,-62.83 424.23,-65.88 423.92,-58.88"/>
</g>
<!-- t7&#45;&gt;t5 -->
<g id="edge13" class="edge">
<title>t7&#45;&gt;t5</title>
<path fill="none" stroke="black" d="M543.79,-46.41C533.37,-41.91 520.77,-36.47 509.39,-31.56"/>
<polygon fill="black" stroke="black" points="510.77,-28.34 500.2,-27.59 507.99,-34.76 510.77,-28.34"/>
</g>
<!-- t8 -->
<g id="node9" class="node">
<title>t8</title>
<ellipse fill="none" stroke="black" cx="657" cy="-156" rx="27" ry="18"/>
<text text-anchor="middle" x="657" y="-152.9" font-family="Monospace" font-size="12.00">t8</text>
</g>
<!-- t8&#45;&gt;t4 -->
<g id="edge14" class="edge">
<title>t8&#45;&gt;t4</title>
<path fill="none" stroke="black" d="M630.17,-153.9C606.33,-151.46 570.17,-146.5 540,-137 495.15,-122.88 446.75,-97.74 416.9,-80.97"/>
<polygon fill="black" stroke="black" points="418.31,-77.75 407.89,-75.84 414.85,-83.83 418.31,-77.75"/>
</g>
<!-- t8&#45;&gt;t6 -->
<g id="edge15" class="edge">
<title>t8&#45;&gt;t6</title>
<path fill="none" stroke="black" d="M635.15,-145.1C623.97,-139.26 610,-131.96 597.71,-125.53"/>
<polygon fill="black" stroke="black" points="599.19,-122.35 588.71,-120.82 595.95,-128.56 599.19,-122.35"/>
</g>
<!-- t9 -->
<g id="node10" class="node">
<title>t9</title>
<ellipse fill="none" stroke="black" cx="657" cy="-33" rx="27" ry="18"/>
<text text-anchor="middle" x="657" y="-29.9" font-family="Monospace" font-size="12.00">t9</text>
</g>
<!-- t9&#45;&gt;t5 -->
<g id="edge16" class="edge">
<title>t9&#45;&gt;t5</title>
<path fill="none" stroke="black" d="M630.12,-30.82C599.53,-28.24 548.46,-23.94 514.03,-21.04"/>
<polygon fill="black" stroke="black" points="514.17,-17.54 503.91,-20.18 513.58,-24.51 514.17,-17.54"/>
</g>
<!-- t9&#45;&gt;t7 -->
<g id="edge17" class="edge">
<title>t9&#45;&gt;t7</title>
<path fill="none" stroke="black" d="M631.49,-39.41C622.43,-41.77 611.99,-44.5 602.22,-47.05"/>
<polygon fill="black" stroke="black" points="601.17,-43.71 592.38,-49.63 602.94,-50.49 601.17,-43.71"/>
</g>
<!-- t10 -->
<g id="node11" class="node">
<title>t10</title>
<ellipse fill="none" stroke="black" cx="747" cy="-133" rx="27" ry="18"/>
<text text-anchor="middle" x="747" y="-129.9" font-family="Monospace" font-size="12.00">t10</text>
</g>
<!-- t10&#45;&gt;t6 -->
<g id="edge18" class="edge">
<title>t10&#45;&gt;t6</title>
<path fill="none" stroke="black" d="M720.12,-129.66C689.45,-125.69 638.17,-119.07 603.73,-114.62"/>
<polygon fill="black" stroke="black" points="603.99,-111.12 593.63,-113.31 603.09,-118.06 603.99,-111.12"/>
</g>
<!-- t10&#45;&gt;t8 -->
<g id="edge19" class="edge">
<title>t10&#45;&gt;t8</title>
<path fill="none" stroke="black" d="M721.49,-139.41C712.43,-141.77 701.99,-144.5 692.22,-147.05"/>
<polygon fill="black" stroke="black" points="691.17,-143.71 682.38,-149.63 692.94,-150.49 691.17,-143.71"/>
</g>
</g>
</svg>
