<?xml version="1.0" encoding="UTF-8" standalone="no"?>
<!DOCTYPE svg PUBLIC "-//W3C//DTD SVG 1.1//EN"
 "http://www.w3.org/Graphics/SVG/1.1/DTD/svg11.dtd">
<!-- Generated by graphviz version 2.42.3 ()
 -->
<!-- Title: dcp Pages: 1 -->
<svg width="199pt" height="207pt"
 viewBox="0.00 0.00 199.47 207.47" xmlns="http://www.w3.org/2000/svg" xmlns:xlink="http://www.w3.org/1999/xlink">
<g id="graph0" class="graph" transform="scale(1 1) rotate(0) translate(4 203.47)">
<title>dcp</title>
<polygon fill="white" stroke="transparent" points="-4,4 -4,-203.47 195.47,-203.47 195.47,4 -4,4"/>
<!-- n0 -->
<g id="node1" class="node">
<title>n0</title>
<ellipse fill="none" stroke="black" cx="114.09" cy="-18" rx="18" ry="18"/>
<text text-anchor="middle" x="114.09" y="-14.3" font-family="Times,serif" font-size="14.00">A</text>
</g>
<!-- n1 -->
<g id="node2" class="node">
<title>n1</title>
<ellipse fill="red" stroke="black" cx="173.47" cy="-99.74" rx="18" ry="18"/>
<text text-anchor="middle" x="173.47" y="-96.04" font-family="Times,serif" font-size="14.00">B</text>
</g>
<!-- n0&#45;&gt;n1 -->
<g id="edge1" class="edge">
<title>n0&#45;&gt;n1</title>
<path fill="none" stroke="gray" stroke-dasharray="5,2" d="M124.7,-32.61C135.45,-47.4 151.97,-70.14 162.75,-84.98"/>
</g>
<!-- n2 -->
<g id="node3" class="node">
<title>n2</title>
<ellipse fill="red" stroke="black" cx="18" cy="-150.25" rx="18" ry="18"/>
<text text-anchor="middle" x="18" y="-146.55" font-family="Times,serif" font-size="14.00">C</text>
</g>
<!-- n0&#45;&gt;n2 -->
<g id="edge2" class="edge">
<title>n0&#45;&gt;n2</title>
<path fill="none" stroke="gray" stroke-dasharray="5,2" d="M103.44,-32.66C84.97,-58.08 47.2,-110.06 28.7,-135.53"/>
</g>
<!-- n3 -->
<g id="node4" class="node">
<title>n3</title>
<ellipse fill="none" stroke="black" cx="114.09" cy="-181.47" rx="18" ry="18"/>
<text text-anchor="middle" x="114.09" y="-177.77" font-family="Times,serif" font-size="14.00">D</text>
</g>
<!-- n0&#45;&gt;n3 -->
<g id="edge3" class="edge">
<title>n0&#45;&gt;n3</title>
<path fill="none" stroke="gray" stroke-dasharray="5,2" d="M114.09,-36.12C114.09,-67.54 114.09,-131.79 114.09,-163.27"/>
</g>
<!-- n4 -->
<g id="node5" class="node">
<title>n4</title>
<ellipse fill="none" stroke="black" cx="18" cy="-49.22" rx="18" ry="18"/>
<text text-anchor="middle" x="18" y="-45.52" font-family="Times,serif" font-size="14.00">E</text>
</g>
<!-- n0&#45;&gt;n4 -->
<g id="edge4" class="edge">
<title>n0&#45;&gt;n4</title>
<path fill="none" stroke="gray" stroke-dasharray="5,2" d="M96.91,-23.58C79.53,-29.23 52.8,-37.91 35.35,-43.58"/>
</g>
<!-- n1&#45;&gt;n2 -->
<g id="edge5" class="edge">
<title>n1&#45;&gt;n2</title>
<path fill="none" stroke="gray" stroke-dasharray="5,2" d="M156.24,-105.34C126.36,-115.05 65.25,-134.9 35.31,-144.63"/>
</g>
<!-- n1&#45;&gt;n3 -->
<g id="edge6" class="edge">
<title>n1&#45;&gt;n3</title>
<path fill="none" stroke="gray" stroke-dasharray="5,2" d="M162.86,-114.35C152.11,-129.14 135.59,-151.87 124.81,-166.71"/>
</g>
<!-- n1&#45;&gt;n4 -->
<g id="edge7" class="edge">
<title>n1&#45;&gt;n4</title>
<path fill="none" stroke="gray" stroke-dasharray="5,2" d="M156.24,-94.14C126.36,-84.43 65.25,-64.57 35.31,-54.85"/>
</g>
<!-- n2&#45;&gt;n3 -->
<g id="edge8" class="edge">
<title>n2&#45;&gt;n3</title>
<path fill="none" stroke="gray" stroke-dasharray="5,2" d="M35.18,-155.84C52.56,-161.48 79.29,-170.17 96.73,-175.84"/>
</g>
<!-- n2&#45;&gt;n4 -->
<g id="edge9" class="edge">
<title>n2&#45;&gt;n4</title>
<path fill="none" stroke="gray" stroke-dasharray="5,2" d="M18,-132.19C18,-113.91 18,-85.81 18,-67.47"/>
</g>
<!-- n3&#45;&gt;n4 -->
<g id="edge10" class="edge">
<title>n3&#45;&gt;n4</title>
<path fill="none" stroke="gray" stroke-dasharray="5,2" d="M103.44,-166.82C84.97,-141.39 47.2,-89.41 28.7,-63.95"/>
</g>
</g>
</svg>
