<?xml version="1.0" encoding="UTF-8" standalone="no"?>
<!DOCTYPE svg PUBLIC "-//W3C//DTD SVG 1.1//EN"
 "http://www.w3.org/Graphics/SVG/1.1/DTD/svg11.dtd">
<!-- Generated by graphviz version 2.42.3 ()
 -->
<!-- Title: dcp Pages: 1 -->
<svg width="440pt" height="312pt"
 viewBox="0.00 0.00 440.48 311.55" xmlns="http://www.w3.org/2000/svg" xmlns:xlink="http://www.w3.org/1999/xlink">
<g id="graph0" class="graph" transform="scale(1 1) rotate(0) translate(4 307.55)">
<title>dcp</title>
<polygon fill="white" stroke="transparent" points="-4,4 -4,-307.55 436.48,-307.55 436.48,4 -4,4"/>
<!-- n0 -->
<g id="node1" class="node">
<title>n0</title>
<ellipse fill="none" stroke="black" cx="18" cy="-142.91" rx="18" ry="18"/>
<text text-anchor="middle" x="18" y="-139.21" font-family="Times,serif" font-size="14.00">A</text>
</g>
<!-- i0 -->
<g id="node6" class="node">
<title>i0</title>
<ellipse fill="lightgray" stroke="black" cx="243.12" cy="-95.94" rx="20.6" ry="20.6"/>
<text text-anchor="middle" x="243.12" y="-92.24" font-family="Times,serif" font-size="14.00">SP</text>
</g>
<!-- n0&#45;&gt;i0 -->
<g id="edge4" class="edge">
<title>n0&#45;&gt;i0</title>
<path fill="none" stroke="gray" stroke-dasharray="5,2" d="M35.66,-139.23C76.81,-130.64 178.88,-109.35 222.65,-100.21"/>
</g>
<!-- n1 -->
<g id="node2" class="node">
<title>n1</title>
<ellipse fill="red" stroke="black" cx="198.12" cy="-18" rx="18" ry="18"/>
<text text-anchor="middle" x="198.12" y="-14.3" font-family="Times,serif" font-size="14.00">B</text>
</g>
<!-- n1&#45;&gt;i0 -->
<g id="edge5" class="edge">
<title>n1&#45;&gt;i0</title>
<path fill="none" stroke="gray" stroke-dasharray="5,2" d="M207.23,-33.77C214.57,-46.49 224.91,-64.4 232.61,-77.73"/>
</g>
<!-- n2 -->
<g id="node3" class="node">
<title>n2</title>
<ellipse fill="red" stroke="black" cx="248.8" cy="-285.55" rx="18" ry="18"/>
<text text-anchor="middle" x="248.8" y="-281.85" font-family="Times,serif" font-size="14.00">C</text>
</g>
<!-- i1 -->
<g id="node7" class="node">
<title>i1</title>
<ellipse fill="lightgray" stroke="black" cx="243.12" cy="-189.89" rx="20.6" ry="20.6"/>
<text text-anchor="middle" x="243.12" y="-186.19" font-family="Times,serif" font-size="14.00">SP</text>
</g>
<!-- n2&#45;&gt;i1 -->
<g id="edge6" class="edge">
<title>n2&#45;&gt;i1</title>
<path fill="none" stroke="gray" stroke-dasharray="5,2" d="M247.73,-267.56C246.77,-251.43 245.37,-227.76 244.36,-210.8"/>
</g>
<!-- n3 -->
<g id="node4" class="node">
<title>n3</title>
<ellipse fill="none" stroke="black" cx="414.48" cy="-142.91" rx="18" ry="18"/>
<text text-anchor="middle" x="414.48" y="-139.21" font-family="Times,serif" font-size="14.00">D</text>
</g>
<!-- i2 -->
<g id="node8" class="node">
<title>i2</title>
<ellipse fill="lightgray" stroke="black" cx="324.48" cy="-142.91" rx="20.6" ry="20.6"/>
<text text-anchor="middle" x="324.48" y="-139.21" font-family="Times,serif" font-size="14.00">SP</text>
</g>
<!-- n3&#45;&gt;i2 -->
<g id="edge7" class="edge">
<title>n3&#45;&gt;i2</title>
<path fill="none" stroke="gray" stroke-dasharray="5,2" d="M396.26,-142.91C381.57,-142.91 360.9,-142.91 345.5,-142.91"/>
</g>
<!-- n4 -->
<g id="node5" class="node">
<title>n4</title>
<ellipse fill="none" stroke="black" cx="157.43" cy="-232.8" rx="18" ry="18"/>
<text text-anchor="middle" x="157.43" y="-229.1" font-family="Times,serif" font-size="14.00">E</text>
</g>
<!-- n4&#45;&gt;i1 -->
<g id="edge8" class="edge">
<title>n4&#45;&gt;i1</title>
<path fill="none" stroke="gray" stroke-dasharray="5,2" d="M173.55,-224.73C188,-217.49 209.19,-206.88 224.39,-199.27"/>
</g>
<!-- i0&#45;&gt;i1 -->
<g id="edge1" class="edge">
<title>i0&#45;&gt;i1</title>
<path fill="none" stroke="gray" stroke-dasharray="5,2" d="M243.12,-116.79C243.12,-132.25 243.12,-153.25 243.12,-168.77"/>
</g>
<!-- i0&#45;&gt;i2 -->
<g id="edge2" class="edge">
<title>i0&#45;&gt;i2</title>
<path fill="none" stroke="gray" stroke-dasharray="5,2" d="M261.17,-106.37C274.56,-114.1 292.75,-124.59 306.19,-132.36"/>
</g>
<!-- i1&#45;&gt;i2 -->
<g id="edge3" class="edge">
<title>i1&#45;&gt;i2</title>
<path fill="none" stroke="gray" stroke-dasharray="5,2" d="M261.17,-179.46C274.56,-171.73 292.75,-161.23 306.19,-153.47"/>
</g>
</g>
</svg>
