<?xml version="1.0" encoding="UTF-8" standalone="no"?>
<!DOCTYPE svg PUBLIC "-//W3C//DTD SVG 1.1//EN"
 "http://www.w3.org/Graphics/SVG/1.1/DTD/svg11.dtd">
<!-- Generated by graphviz version 2.42.3 ()
 -->
<!-- Title: g Pages: 1 -->
<svg width="441pt" height="98pt"
 viewBox="0.00 0.00 441.00 98.00" xmlns="http://www.w3.org/2000/svg" xmlns:xlink="http://www.w3.org/1999/xlink">
<g id="graph0" class="graph" transform="scale(1 1) rotate(0) translate(4 94)">
<title>g</title>
<polygon fill="white" stroke="transparent" points="-4,4 -4,-94 437,-94 437,4 -4,4"/>
<!-- info -->
<g id="node1" class="node">
<title>info</title>
<text text-anchor="middle" x="106" y="-41.3" font-family="Times,serif" font-size="14.00">balances A:1.0, B:0.5, C:0</text>
</g>
<!-- n0 -->
<g id="node2" class="node">
<title>n0</title>
<ellipse fill="none" stroke="red" stroke-dasharray="5,2" cx="267" cy="-45" rx="18" ry="18"/>
<text text-anchor="middle" x="267" y="-41.3" font-family="Times,serif" font-size="14.00">A</text>
</g>
<!-- info&#45;&gt;n0 -->
<!-- n1 -->
<g id="node3" class="node">
<title>n1</title>
<ellipse fill="none" stroke="red" stroke-dasharray="5,2" cx="415" cy="-72" rx="18" ry="18"/>
<text text-anchor="middle" x="415" y="-68.3" font-family="Times,serif" font-size="14.00">B</text>
</g>
<!-- n0&#45;&gt;n1 -->
<g id="edge1" class="edge">
<title>n0&#45;&gt;n1</title>
<path fill="none" stroke="black" d="M284.75,-48.1C309.7,-52.71 356.89,-61.44 386.82,-66.97"/>
<polygon fill="black" stroke="black" points="386.53,-70.48 397,-68.86 387.8,-63.6 386.53,-70.48"/>
<text text-anchor="middle" x="341" y="-68.8" font-family="Times,serif" font-size="14.00">A:0, B:1.5</text>
</g>
<!-- n2 -->
<g id="node4" class="node">
<title>n2</title>
<ellipse fill="none" stroke="red" stroke-dasharray="5,2" cx="415" cy="-18" rx="18" ry="18"/>
<text text-anchor="middle" x="415" y="-14.3" font-family="Times,serif" font-size="14.00">C</text>
</g>
<!-- n0&#45;&gt;n2 -->
<g id="edge2" class="edge">
<title>n0&#45;&gt;n2</title>
<path fill="none" stroke="black" d="M283.79,-38.26C289.72,-35.96 296.58,-33.58 303,-32 331.05,-25.12 363.95,-21.51 386.62,-19.69"/>
<polygon fill="black" stroke="black" points="387.14,-23.16 396.85,-18.94 386.62,-16.18 387.14,-23.16"/>
<text text-anchor="middle" x="341" y="-35.8" font-family="Times,serif" font-size="14.00">A:0, C:1</text>
</g>
</g>
</svg>
