<?xml version="1.0" encoding="UTF-8" standalone="no"?>
<!DOCTYPE svg PUBLIC "-//W3C//DTD SVG 1.1//EN"
 "http://www.w3.org/Graphics/SVG/1.1/DTD/svg11.dtd">
<!-- Generated by graphviz version 2.42.3 ()
 -->
<!-- Title: hashfunc Pages: 1 -->
<svg width="317pt" height="44pt"
 viewBox="0.00 0.00 317.00 44.00" xmlns="http://www.w3.org/2000/svg" xmlns:xlink="http://www.w3.org/1999/xlink">
<g id="graph0" class="graph" transform="scale(1 1) rotate(0) translate(4 40)">
<title>hashfunc</title>
<polygon fill="white" stroke="transparent" points="-4,4 -4,-40 313,-40 313,4 -4,4"/>
<!-- node1 -->
<g id="node1" class="node">
<title>node1</title>
<polygon fill="green" stroke="transparent" points="10,-8 10,-27 30,-27 30,-8 10,-8"/>
<text text-anchor="start" x="12" y="-13.8" font-family="Times,serif" font-size="14.00"> &#160;</text>
<polygon fill="blue" stroke="transparent" points="31,-8 31,-27 51,-27 51,-8 31,-8"/>
<text text-anchor="start" x="33" y="-13.8" font-family="Times,serif" font-size="14.00"> &#160;</text>
<polygon fill="lightgreen" stroke="transparent" points="52,-8 52,-27 72,-27 72,-8 52,-8"/>
<text text-anchor="start" x="54" y="-13.8" font-family="Times,serif" font-size="14.00"> &#160;</text>
<polygon fill="white" stroke="transparent" points="73,-8 73,-27 93,-27 93,-8 73,-8"/>
<text text-anchor="start" x="75" y="-13.8" font-family="Times,serif" font-size="14.00">..</text>
<polygon fill="grey" stroke="transparent" points="94,-8 94,-27 114,-27 114,-8 94,-8"/>
<text text-anchor="start" x="96" y="-13.8" font-family="Times,serif" font-size="14.00"> &#160;</text>
<polygon fill="none" stroke="gray" points="8,-6.5 8,-29.5 116,-29.5 116,-6.5 8,-6.5"/>
</g>
<!-- node2 -->
<g id="node2" class="node">
<title>node2</title>
<polygon fill="lightgray" stroke="transparent" points="216.5,-8 216.5,-27 236.5,-27 236.5,-8 216.5,-8"/>
<text text-anchor="start" x="218.5" y="-13.8" font-family="Times,serif" font-size="14.00"> &#160;</text>
<polygon fill="lightgreen" stroke="transparent" points="237.5,-8 237.5,-27 257.5,-27 257.5,-8 237.5,-8"/>
<text text-anchor="start" x="239.5" y="-13.8" font-family="Times,serif" font-size="14.00"> &#160;</text>
<polygon fill="brown" stroke="transparent" points="258.5,-8 258.5,-27 278.5,-27 278.5,-8 258.5,-8"/>
<text text-anchor="start" x="260.5" y="-13.8" font-family="Times,serif" font-size="14.00"> &#160;</text>
<polygon fill="magenta" stroke="transparent" points="279.5,-8 279.5,-27 299.5,-27 299.5,-8 279.5,-8"/>
<text text-anchor="start" x="281.5" y="-13.8" font-family="Times,serif" font-size="14.00"> &#160;</text>
<polygon fill="none" stroke="gray" points="214,-6.5 214,-29.5 301,-29.5 301,-6.5 214,-6.5"/>
</g>
<!-- node1&#45;&gt;node2 -->
<g id="edge1" class="edge">
<title>node1:port5&#45;&gt;node2:port1</title>
<path fill="none" stroke="gray" d="M115,-17C156,-17 168.78,-17 205.15,-17"/>
<polygon fill="gray" stroke="gray" points="205.5,-20.5 215.5,-17 205.5,-13.5 205.5,-20.5"/>
<text text-anchor="middle" x="165" y="-21.8" font-family="Times,serif" font-size="14.00">hash()</text>
</g>
</g>
</svg>
