<?xml version="1.0" encoding="UTF-8" standalone="no"?>
<!DOCTYPE svg PUBLIC "-//W3C//DTD SVG 1.1//EN"
 "http://www.w3.org/Graphics/SVG/1.1/DTD/svg11.dtd">
<!-- Generated by graphviz version 2.42.3 ()
 -->
<!-- Title: hashlink Pages: 1 -->
<svg width="465pt" height="296pt"
 viewBox="0.00 0.00 465.00 296.00" xmlns="http://www.w3.org/2000/svg" xmlns:xlink="http://www.w3.org/1999/xlink">
<g id="graph0" class="graph" transform="scale(1 1) rotate(0) translate(4 292)">
<title>hashlink</title>
<polygon fill="white" stroke="transparent" points="-4,4 -4,-292 461,-292 461,4 -4,4"/>
<g id="clust1" class="cluster">
<title>cluster1</title>
<polygon fill="none" stroke="gray" stroke-dasharray="5,2" points="8,-114 8,-246 101,-246 101,-114 8,-114"/>
<text text-anchor="middle" x="54.5" y="-230.8" font-family="Times,serif" font-size="14.00">d0</text>
</g>
<g id="clust2" class="cluster">
<title>cluster2</title>
<polygon fill="none" stroke="gray" stroke-dasharray="5,2" points="182,-102 182,-234 275,-234 275,-102 182,-102"/>
<text text-anchor="middle" x="228.5" y="-218.8" font-family="Times,serif" font-size="14.00">d1</text>
</g>
<g id="clust3" class="cluster">
<title>cluster3</title>
<polygon fill="none" stroke="gray" stroke-dasharray="5,2" points="356,-148 356,-280 449,-280 449,-148 356,-148"/>
<text text-anchor="middle" x="402.5" y="-264.8" font-family="Times,serif" font-size="14.00">d2</text>
</g>
<g id="clust4" class="cluster">
<title>cluster4</title>
<polygon fill="none" stroke="gray" stroke-dasharray="5,2" points="356,-8 356,-140 449,-140 449,-8 356,-8"/>
<text text-anchor="middle" x="402.5" y="-124.8" font-family="Times,serif" font-size="14.00">d3</text>
</g>
<!-- struct1 -->
<g id="node1" class="node">
<title>struct1</title>
<polygon fill="white" stroke="black" points="16,-122 16,-214 93,-214 93,-122 16,-122"/>
<text text-anchor="middle" x="54.5" y="-198.8" font-family="Times,serif" font-size="14.00"> </text>
<polyline fill="none" stroke="black" points="16,-191 93,-191 "/>
<text text-anchor="middle" x="54.5" y="-175.8" font-family="Times,serif" font-size="14.00">0x0000..</text>
<polyline fill="none" stroke="black" points="16,-168 93,-168 "/>
<text text-anchor="middle" x="54.5" y="-152.8" font-family="Times,serif" font-size="14.00">...</text>
<polyline fill="none" stroke="black" points="16,-145 93,-145 "/>
<text text-anchor="middle" x="54.5" y="-129.8" font-family="Times,serif" font-size="14.00"> </text>
</g>
<!-- struct2 -->
<g id="node2" class="node">
<title>struct2</title>
<polygon fill="white" stroke="black" points="190,-110 190,-202 267,-202 267,-110 190,-110"/>
<text text-anchor="middle" x="228.5" y="-186.8" font-family="Times,serif" font-size="14.00"> </text>
<polyline fill="none" stroke="black" points="190,-179 267,-179 "/>
<text text-anchor="middle" x="228.5" y="-163.8" font-family="Times,serif" font-size="14.00">0xa047..</text>
<polyline fill="none" stroke="black" points="190,-156 267,-156 "/>
<text text-anchor="middle" x="228.5" y="-140.8" font-family="Times,serif" font-size="14.00">...</text>
<polyline fill="none" stroke="black" points="190,-133 267,-133 "/>
<text text-anchor="middle" x="228.5" y="-117.8" font-family="Times,serif" font-size="14.00"> </text>
</g>
<!-- struct1&#45;&gt;struct2 -->
<g id="edge1" class="edge">
<title>struct1&#45;&gt;struct2:f1</title>
<path fill="none" stroke="black" d="M93.05,-168C116.88,-168 148.68,-168 178.18,-168"/>
<polygon fill="black" stroke="black" points="178.5,-171.5 188.5,-168 178.5,-164.5 178.5,-171.5"/>
<text text-anchor="middle" x="141.5" y="-171.8" font-family="Times,serif" font-size="14.00">hash(d0)</text>
</g>
<!-- struct3 -->
<g id="node3" class="node">
<title>struct3</title>
<polygon fill="white" stroke="black" points="364,-156 364,-248 441,-248 441,-156 364,-156"/>
<text text-anchor="middle" x="402.5" y="-232.8" font-family="Times,serif" font-size="14.00"> </text>
<polyline fill="none" stroke="black" points="364,-225 441,-225 "/>
<text text-anchor="middle" x="402.5" y="-209.8" font-family="Times,serif" font-size="14.00">0x3b67..</text>
<polyline fill="none" stroke="black" points="364,-202 441,-202 "/>
<text text-anchor="middle" x="402.5" y="-186.8" font-family="Times,serif" font-size="14.00">...</text>
<polyline fill="none" stroke="black" points="364,-179 441,-179 "/>
<text text-anchor="middle" x="402.5" y="-163.8" font-family="Times,serif" font-size="14.00"> </text>
</g>
<!-- struct2&#45;&gt;struct3 -->
<g id="edge2" class="edge">
<title>struct2&#45;&gt;struct3:f1</title>
<path fill="none" stroke="black" d="M267.19,-182.28C290.34,-196.13 321.42,-210.81 352.44,-213.55"/>
<polygon fill="black" stroke="black" points="352.35,-217.05 362.5,-214 352.67,-210.05 352.35,-217.05"/>
<text text-anchor="middle" x="315.5" y="-215.8" font-family="Times,serif" font-size="14.00">hash(d1)</text>
</g>
<!-- struct4 -->
<g id="node4" class="node">
<title>struct4</title>
<polygon fill="white" stroke="black" points="364,-16 364,-108 441,-108 441,-16 364,-16"/>
<text text-anchor="middle" x="402.5" y="-92.8" font-family="Times,serif" font-size="14.00"> </text>
<polyline fill="none" stroke="black" points="364,-85 441,-85 "/>
<text text-anchor="middle" x="402.5" y="-69.8" font-family="Times,serif" font-size="14.00">0x3b67..</text>
<polyline fill="none" stroke="black" points="364,-62 441,-62 "/>
<text text-anchor="middle" x="402.5" y="-46.8" font-family="Times,serif" font-size="14.00">...</text>
<polyline fill="none" stroke="black" points="364,-39 441,-39 "/>
<text text-anchor="middle" x="402.5" y="-23.8" font-family="Times,serif" font-size="14.00"> </text>
</g>
<!-- struct2&#45;&gt;struct4 -->
<g id="edge3" class="edge">
<title>struct2&#45;&gt;struct4:f1</title>
<path fill="none" stroke="black" d="M267.12,-117.4C289.61,-98.13 320.04,-78.14 352.4,-74.56"/>
<polygon fill="black" stroke="black" points="352.71,-78.05 362.5,-74 352.32,-71.06 352.71,-78.05"/>
<text text-anchor="middle" x="315.5" y="-105.8" font-family="Times,serif" font-size="14.00">hash(d1)</text>
</g>
</g>
</svg>
