<?xml version="1.0" encoding="UTF-8" standalone="no"?>
<!DOCTYPE svg PUBLIC "-//W3C//DTD SVG 1.1//EN"
 "http://www.w3.org/Graphics/SVG/1.1/DTD/svg11.dtd">
<!-- Generated by graphviz version 2.42.3 ()
 -->
<!-- Title: hca Pages: 1 -->
<svg width="510pt" height="159pt"
 viewBox="0.00 0.00 510.00 159.00" xmlns="http://www.w3.org/2000/svg" xmlns:xlink="http://www.w3.org/1999/xlink">
<g id="graph0" class="graph" transform="scale(1 1) rotate(0) translate(4 155)">
<title>hca</title>
<polygon fill="white" stroke="transparent" points="-4,4 -4,-155 506,-155 506,4 -4,4"/>
<!-- node2 -->
<g id="node1" class="node">
<title>node2</title>
<text text-anchor="start" x="78.5" y="-134.3" font-family="Times,serif" font-style="italic" font-size="14.00">data</text>
<polygon fill="none" stroke="black" points="8,-106.5 8,-127.5 180,-127.5 180,-106.5 8,-106.5"/>
<text text-anchor="start" x="11" y="-113.3" font-family="Times,serif" font-size="14.00">...</text>
<polygon fill="lightgray" stroke="transparent" points="8,-85.5 8,-106.5 180,-106.5 180,-85.5 8,-85.5"/>
<polygon fill="none" stroke="black" points="8,-85.5 8,-106.5 180,-106.5 180,-85.5 8,-85.5"/>
<text text-anchor="start" x="11" y="-92.3" font-family="Times,serif" font-size="14.00">address: 0x5bcf09..</text>
<polygon fill="none" stroke="black" points="8,-64.5 8,-85.5 180,-85.5 180,-64.5 8,-64.5"/>
<text text-anchor="start" x="11" y="-71.3" font-family="Times,serif" font-size="14.00">...</text>
<polygon fill="lightgray" stroke="transparent" points="8,-43.5 8,-64.5 180,-64.5 180,-43.5 8,-43.5"/>
<polygon fill="none" stroke="black" points="8,-43.5 8,-64.5 180,-64.5 180,-43.5 8,-43.5"/>
<text text-anchor="start" x="11" y="-50.3" font-family="Times,serif" font-size="14.00">timestemp: &#160;1590049607</text>
<polygon fill="none" stroke="black" points="8,-22.5 8,-43.5 180,-43.5 180,-22.5 8,-22.5"/>
<text text-anchor="start" x="11" y="-29.3" font-family="Times,serif" font-size="14.00">...</text>
<text text-anchor="start" x="15" y="-10.3" font-family="Times,serif" font-style="italic" font-size="14.00">hash(data)=0x5a0c34..</text>
</g>
<!-- N -->
<g id="node2" class="node">
<title>N</title>
<text text-anchor="middle" x="251" y="-70.8" font-family="Times,serif" font-size="14.00">...</text>
</g>
<!-- node2&#45;&gt;N -->
<!-- node3 -->
<g id="node3" class="node">
<title>node3</title>
<text text-anchor="start" x="392.5" y="-134.3" font-family="Times,serif" font-style="italic" font-size="14.00">data</text>
<polygon fill="none" stroke="black" points="322,-106.5 322,-127.5 494,-127.5 494,-106.5 322,-106.5"/>
<text text-anchor="start" x="325" y="-113.3" font-family="Times,serif" font-size="14.00">...</text>
<polygon fill="red" stroke="transparent" points="322,-85.5 322,-106.5 494,-106.5 494,-85.5 322,-85.5"/>
<polygon fill="none" stroke="black" points="322,-85.5 322,-106.5 494,-106.5 494,-85.5 322,-85.5"/>
<text text-anchor="start" x="325" y="-92.3" font-family="Times,serif" font-size="14.00">address: 0xc56efa..</text>
<polygon fill="none" stroke="black" points="322,-64.5 322,-85.5 494,-85.5 494,-64.5 322,-64.5"/>
<text text-anchor="start" x="325" y="-71.3" font-family="Times,serif" font-size="14.00">...</text>
<polygon fill="red" stroke="transparent" points="322,-43.5 322,-64.5 494,-64.5 494,-43.5 322,-43.5"/>
<polygon fill="none" stroke="black" points="322,-43.5 322,-64.5 494,-64.5 494,-43.5 322,-43.5"/>
<text text-anchor="start" x="325" y="-50.3" font-family="Times,serif" font-size="14.00">timestemp: &#160;1421234443</text>
<polygon fill="none" stroke="black" points="322,-22.5 322,-43.5 494,-43.5 494,-22.5 322,-22.5"/>
<text text-anchor="start" x="325" y="-29.3" font-family="Times,serif" font-size="14.00">...</text>
<text text-anchor="start" x="329" y="-10.3" font-family="Times,serif" font-style="italic" font-size="14.00">hash(data)=0x5a0c34..</text>
</g>
<!-- N&#45;&gt;node3 -->
</g>
</svg>
