<?xml version="1.0" encoding="UTF-8" standalone="no"?>
<!DOCTYPE svg PUBLIC "-//W3C//DTD SVG 1.1//EN"
 "http://www.w3.org/Graphics/SVG/1.1/DTD/svg11.dtd">
<!-- Generated by graphviz version 2.42.3 ()
 -->
<!-- Title: tx Pages: 1 -->
<svg width="490pt" height="354pt"
 viewBox="0.00 0.00 490.00 353.50" xmlns="http://www.w3.org/2000/svg" xmlns:xlink="http://www.w3.org/1999/xlink">
<g id="graph0" class="graph" transform="scale(1 1) rotate(0) translate(4 349.5)">
<title>tx</title>
<polygon fill="white" stroke="transparent" points="-4,4 -4,-349.5 486,-349.5 486,4 -4,4"/>
<g id="clust1" class="cluster">
<title>cluster1</title>
<polygon fill="none" stroke="black" points="8,-8 8,-292 152,-292 152,-8 8,-8"/>
<text text-anchor="middle" x="80" y="-276.8" font-family="Times,serif" font-size="14.00">private key</text>
</g>
<g id="clust2" class="cluster">
<title>cluster2</title>
<polygon fill="none" stroke="black" points="330,-48 330,-332 474,-332 474,-48 330,-48"/>
<text text-anchor="middle" x="402" y="-316.8" font-family="Times,serif" font-size="14.00">public key</text>
</g>
<!-- node1 -->
<g id="node1" class="node">
<title>node1</title>
<polygon fill="none" stroke="white" points="24,-235 24,-256 136,-256 136,-235 24,-235"/>
<text text-anchor="start" x="49.5" y="-242.8" font-family="Times,serif" font-style="italic" font-size="14.00">random X</text>
<polygon fill="none" stroke="black" points="24,-214 24,-235 136,-235 136,-214 24,-214"/>
<text text-anchor="start" x="27" y="-220.8" font-family="Times,serif" font-size="14.00">0:0x82b6a0..</text>
<polygon fill="none" stroke="black" points="24,-193 24,-214 136,-214 136,-193 24,-193"/>
<text text-anchor="start" x="27" y="-199.8" font-family="Times,serif" font-size="14.00">1:0x0982cc..</text>
<polygon fill="none" stroke="black" points="24,-172 24,-193 136,-193 136,-172 24,-172"/>
<text text-anchor="start" x="68.5" y="-178.8" font-family="Times,serif" font-size="14.00">...</text>
<polygon fill="none" stroke="black" points="24,-151 24,-172 136,-172 136,-151 24,-151"/>
<text text-anchor="start" x="27" y="-157.8" font-family="Times,serif" font-size="14.00">n&#45;1:0xf54100..</text>
</g>
<!-- node3 -->
<g id="node5" class="node">
<title>node3</title>
<polygon fill="none" stroke="white" points="215.5,-320 215.5,-341 259.5,-341 259.5,-320 215.5,-320"/>
<text text-anchor="start" x="222" y="-327.8" font-family="Times,serif" font-style="italic" font-size="14.00">data</text>
<polygon fill="none" stroke="black" points="215.5,-299 215.5,-320 259.5,-320 259.5,-299 215.5,-299"/>
<text text-anchor="start" x="218.5" y="-305.8" font-family="Times,serif" font-size="14.00">0:0</text>
<polygon fill="none" stroke="black" points="215.5,-278 215.5,-299 259.5,-299 259.5,-278 215.5,-278"/>
<text text-anchor="start" x="218.5" y="-284.8" font-family="Times,serif" font-size="14.00">1:1</text>
<polygon fill="none" stroke="black" points="215.5,-257 215.5,-278 259.5,-278 259.5,-257 215.5,-257"/>
<text text-anchor="start" x="226" y="-263.8" font-family="Times,serif" font-size="14.00">...</text>
<polygon fill="none" stroke="black" points="215.5,-236 215.5,-257 259.5,-257 259.5,-236 215.5,-236"/>
<text text-anchor="start" x="218.5" y="-242.8" font-family="Times,serif" font-size="14.00">n&#45;1:0</text>
</g>
<!-- node1&#45;&gt;node3 -->
<!-- node4 -->
<g id="node6" class="node">
<title>node4</title>
<polygon fill="none" stroke="white" points="189.5,-189 189.5,-210 286.5,-210 286.5,-189 189.5,-189"/>
<text text-anchor="start" x="204" y="-196.8" font-family="Times,serif" font-style="italic" font-size="14.00">signature</text>
<polygon fill="none" stroke="black" points="189.5,-168 189.5,-189 286.5,-189 286.5,-168 189.5,-168"/>
<text text-anchor="start" x="192.5" y="-174.8" font-family="Times,serif" font-size="14.00">0:0x82b6a0</text>
<polygon fill="none" stroke="black" points="189.5,-147 189.5,-168 286.5,-168 286.5,-147 189.5,-147"/>
<text text-anchor="start" x="192.5" y="-153.8" font-family="Times,serif" font-size="14.00">1:0x164598</text>
<polygon fill="none" stroke="black" points="189.5,-126 189.5,-147 286.5,-147 286.5,-126 189.5,-126"/>
<text text-anchor="start" x="226.5" y="-132.8" font-family="Times,serif" font-size="14.00">...</text>
<polygon fill="none" stroke="black" points="189.5,-105 189.5,-126 286.5,-126 286.5,-105 189.5,-105"/>
<text text-anchor="start" x="192.5" y="-111.8" font-family="Times,serif" font-size="14.00">n&#45;1:0xf54100</text>
</g>
<!-- node1&#45;&gt;node4 -->
<g id="edge3" class="edge">
<title>node1:port1&#45;&gt;node4:port1</title>
<path fill="none" stroke="black" d="M137,-225C163.61,-225 159.72,-190.41 178.23,-181.22"/>
<polygon fill="black" stroke="black" points="179.46,-184.53 188.5,-179 177.99,-177.69 179.46,-184.53"/>
</g>
<!-- node1&#45;&gt;node4 -->
<g id="edge5" class="edge">
<title>node1:port4&#45;&gt;node4:port4</title>
<path fill="none" stroke="black" d="M137,-161C163.61,-161 159.72,-126.41 178.23,-117.22"/>
<polygon fill="black" stroke="black" points="179.46,-120.53 188.5,-115 177.99,-113.69 179.46,-120.53"/>
</g>
<!-- node2 -->
<g id="node2" class="node">
<title>node2</title>
<polygon fill="none" stroke="white" points="24,-104 24,-125 136,-125 136,-104 24,-104"/>
<text text-anchor="start" x="49.5" y="-111.8" font-family="Times,serif" font-style="italic" font-size="14.00">random Y</text>
<polygon fill="none" stroke="black" points="24,-83 24,-104 136,-104 136,-83 24,-83"/>
<text text-anchor="start" x="27" y="-89.8" font-family="Times,serif" font-size="14.00">0:0x096cc2..</text>
<polygon fill="none" stroke="black" points="24,-62 24,-83 136,-83 136,-62 24,-62"/>
<text text-anchor="start" x="27" y="-68.8" font-family="Times,serif" font-size="14.00">1:0x164598..</text>
<polygon fill="none" stroke="black" points="24,-41 24,-62 136,-62 136,-41 24,-41"/>
<text text-anchor="start" x="68.5" y="-47.8" font-family="Times,serif" font-size="14.00">...</text>
<polygon fill="none" stroke="black" points="24,-20 24,-41 136,-41 136,-20 24,-20"/>
<text text-anchor="start" x="27" y="-26.8" font-family="Times,serif" font-size="14.00">n&#45;1:0xbf4522..</text>
</g>
<!-- node2&#45;&gt;node4 -->
<g id="edge4" class="edge">
<title>node2:port2&#45;&gt;node4:port2</title>
<path fill="none" stroke="black" d="M137,-72C177.2,-72 150.3,-142.41 178.44,-155.06"/>
<polygon fill="black" stroke="black" points="178.02,-158.55 188.5,-157 179.34,-151.67 178.02,-158.55"/>
</g>
<!-- node12 -->
<g id="node3" class="node">
<title>node12</title>
<polygon fill="none" stroke="white" points="346,-275 346,-296 458,-296 458,-275 346,-275"/>
<text text-anchor="start" x="375.5" y="-282.8" font-family="Times,serif" font-style="italic" font-size="14.00">hash(X)</text>
<polygon fill="none" stroke="black" points="346,-254 346,-275 458,-275 458,-254 346,-254"/>
<text text-anchor="start" x="349" y="-260.8" font-family="Times,serif" font-size="14.00">0:0xf56c09..</text>
<polygon fill="none" stroke="black" points="346,-233 346,-254 458,-254 458,-233 346,-233"/>
<text text-anchor="start" x="349" y="-239.8" font-family="Times,serif" font-size="14.00">1:0x51b567..</text>
<polygon fill="none" stroke="black" points="346,-212 346,-233 458,-233 458,-212 346,-212"/>
<text text-anchor="start" x="390.5" y="-218.8" font-family="Times,serif" font-size="14.00">...</text>
<polygon fill="none" stroke="black" points="346,-191 346,-212 458,-212 458,-191 346,-191"/>
<text text-anchor="start" x="349" y="-197.8" font-family="Times,serif" font-size="14.00">n&#45;1:0x123bb0..</text>
</g>
<!-- node22 -->
<g id="node4" class="node">
<title>node22</title>
<polygon fill="none" stroke="white" points="346,-144 346,-165 458,-165 458,-144 346,-144"/>
<text text-anchor="start" x="375.5" y="-151.8" font-family="Times,serif" font-style="italic" font-size="14.00">hash(Y)</text>
<polygon fill="none" stroke="black" points="346,-123 346,-144 458,-144 458,-123 346,-123"/>
<text text-anchor="start" x="349" y="-129.8" font-family="Times,serif" font-size="14.00">0:0x983614..</text>
<polygon fill="none" stroke="black" points="346,-102 346,-123 458,-123 458,-102 346,-102"/>
<text text-anchor="start" x="349" y="-108.8" font-family="Times,serif" font-size="14.00">1:0x892b45..</text>
<polygon fill="none" stroke="black" points="346,-81 346,-102 458,-102 458,-81 346,-81"/>
<text text-anchor="start" x="390.5" y="-87.8" font-family="Times,serif" font-size="14.00">...</text>
<polygon fill="none" stroke="black" points="346,-60 346,-81 458,-81 458,-60 346,-60"/>
<text text-anchor="start" x="349" y="-66.8" font-family="Times,serif" font-size="14.00">n&#45;1:0xff3490..</text>
</g>
<!-- node3&#45;&gt;node12 -->
<!-- node4&#45;&gt;node12 -->
<g id="edge6" class="edge">
<title>node4:port1&#45;&gt;node12:port1</title>
<path fill="none" stroke="black" stroke-dasharray="5,2" d="M287.5,-179C333.48,-179 299.02,-265 345,-265"/>
<text text-anchor="middle" x="316" y="-244.8" font-family="Times,serif" font-size="14.00">?</text>
</g>
<!-- node4&#45;&gt;node12 -->
<g id="edge8" class="edge">
<title>node4:port4&#45;&gt;node12:port4</title>
<path fill="none" stroke="black" stroke-dasharray="5,2" d="M287.5,-115C301.94,-115 309.03,-105.61 320,-115 341.87,-133.72 319.41,-152.23 330,-179 334.35,-190 333.17,-201 345,-201"/>
<text text-anchor="middle" x="316" y="-118.8" font-family="Times,serif" font-size="14.00">?</text>
</g>
<!-- node4&#45;&gt;node22 -->
<g id="edge7" class="edge">
<title>node4:port2&#45;&gt;node22:port2</title>
<path fill="none" stroke="black" stroke-dasharray="5,2" d="M287.5,-157C305.2,-157 306.12,-144.97 320,-134 331.61,-124.82 330.2,-112 345,-112"/>
<text text-anchor="middle" x="316" y="-144.8" font-family="Times,serif" font-size="14.00">?</text>
</g>
</g>
</svg>
