<?xml version="1.0" encoding="UTF-8" standalone="no"?>
<!DOCTYPE svg PUBLIC "-//W3C//DTD SVG 1.1//EN"
 "http://www.w3.org/Graphics/SVG/1.1/DTD/svg11.dtd">
<!-- Generated by graphviz version 2.42.3 ()
 -->
<!-- Title: hierarchy Pages: 1 -->
<svg width="575pt" height="332pt"
 viewBox="0.00 0.00 575.00 332.00" xmlns="http://www.w3.org/2000/svg" xmlns:xlink="http://www.w3.org/1999/xlink">
<g id="graph0" class="graph" transform="scale(1 1) rotate(0) translate(4 328)">
<title>hierarchy</title>
<polygon fill="white" stroke="transparent" points="-4,4 -4,-328 571,-328 571,4 -4,4"/>
<!-- h10 -->
<g id="node1" class="node">
<title>h10</title>
<polygon fill="none" stroke="red" stroke-dasharray="5,2" points="342,-324 213,-324 213,-288 342,-288 342,-324"/>
<text text-anchor="middle" x="277.5" y="-302.3" font-family="Times,serif" font-size="14.00">h10=hash(h8,h9)</text>
</g>
<!-- h8 -->
<g id="node2" class="node">
<title>h8</title>
<polygon fill="none" stroke="black" points="263,-252 164,-252 164,-216 263,-216 263,-252"/>
<text text-anchor="middle" x="213.5" y="-230.3" font-family="Times,serif" font-size="14.00">h8=hash(h5)</text>
</g>
<!-- h10&#45;&gt;h8 -->
<g id="edge1" class="edge">
<title>h10&#45;&gt;h8</title>
<path fill="none" stroke="black" d="M254.82,-280.2C246.32,-270.9 236.86,-260.55 229.14,-252.1"/>
<polygon fill="black" stroke="black" points="252.35,-282.68 261.68,-287.7 257.52,-277.95 252.35,-282.68"/>
</g>
<!-- h9 -->
<g id="node3" class="node">
<title>h9</title>
<polygon fill="none" stroke="red" stroke-dasharray="5,2" points="408.5,-252 286.5,-252 286.5,-216 408.5,-216 408.5,-252"/>
<text text-anchor="middle" x="347.5" y="-230.3" font-family="Times,serif" font-size="14.00">h9=hash(h6,h7)</text>
</g>
<!-- h10&#45;&gt;h9 -->
<g id="edge2" class="edge">
<title>h10&#45;&gt;h9</title>
<path fill="none" stroke="red" stroke-dasharray="5,2" d="M302.02,-280.48C311.39,-271.11 321.86,-260.64 330.4,-252.1"/>
<polygon fill="red" stroke="red" points="299.4,-278.15 294.8,-287.7 304.35,-283.1 299.4,-278.15"/>
</g>
<!-- h5 -->
<g id="node4" class="node">
<title>h5</title>
<polygon fill="none" stroke="black" points="227.5,-180 105.5,-180 105.5,-144 227.5,-144 227.5,-180"/>
<text text-anchor="middle" x="166.5" y="-158.3" font-family="Times,serif" font-size="14.00">h5=hash(h0,h1)</text>
</g>
<!-- h8&#45;&gt;h5 -->
<g id="edge3" class="edge">
<title>h8&#45;&gt;h5</title>
<path fill="none" stroke="black" d="M196.28,-207.36C190.19,-198.28 183.49,-188.3 177.98,-180.1"/>
<polygon fill="black" stroke="black" points="193.4,-209.35 201.88,-215.7 199.21,-205.44 193.4,-209.35"/>
</g>
<!-- h6 -->
<g id="node5" class="node">
<title>h6</title>
<polygon fill="none" stroke="red" stroke-dasharray="5,2" points="408.5,-180 286.5,-180 286.5,-144 408.5,-144 408.5,-180"/>
<text text-anchor="middle" x="347.5" y="-158.3" font-family="Times,serif" font-size="14.00">h6=hash(h2,h3)</text>
</g>
<!-- h9&#45;&gt;h6 -->
<g id="edge4" class="edge">
<title>h9&#45;&gt;h6</title>
<path fill="none" stroke="red" stroke-dasharray="5,2" d="M347.5,-205.67C347.5,-197.05 347.5,-187.79 347.5,-180.1"/>
<polygon fill="red" stroke="red" points="344,-205.7 347.5,-215.7 351,-205.7 344,-205.7"/>
</g>
<!-- h7 -->
<g id="node6" class="node">
<title>h7</title>
<polygon fill="none" stroke="black" points="546,-180 447,-180 447,-144 546,-144 546,-180"/>
<text text-anchor="middle" x="496.5" y="-158.3" font-family="Times,serif" font-size="14.00">h7=hash(h4)</text>
</g>
<!-- h9&#45;&gt;h7 -->
<g id="edge5" class="edge">
<title>h9&#45;&gt;h7</title>
<path fill="none" stroke="black" d="M393.22,-211.52C414.72,-201.42 440,-189.54 460.17,-180.07"/>
<polygon fill="black" stroke="black" points="391.51,-208.46 383.95,-215.88 394.49,-214.79 391.51,-208.46"/>
</g>
<!-- h0 -->
<g id="node7" class="node">
<title>h0</title>
<polygon fill="none" stroke="black" points="99,-108 0,-108 0,-72 99,-72 99,-108"/>
<text text-anchor="middle" x="49.5" y="-86.3" font-family="Times,serif" font-size="14.00">h0=hash(d0)</text>
</g>
<!-- h5&#45;&gt;h0 -->
<g id="edge6" class="edge">
<title>h5&#45;&gt;h0</title>
<path fill="none" stroke="black" d="M129.04,-138.59C112.57,-128.74 93.55,-117.35 78.23,-108.19"/>
<polygon fill="black" stroke="black" points="127.5,-141.75 137.88,-143.88 131.09,-135.74 127.5,-141.75"/>
</g>
<!-- h1 -->
<g id="node8" class="node">
<title>h1</title>
<polygon fill="none" stroke="black" points="216,-108 117,-108 117,-72 216,-72 216,-108"/>
<text text-anchor="middle" x="166.5" y="-86.3" font-family="Times,serif" font-size="14.00">h1=hash(d1)</text>
</g>
<!-- h5&#45;&gt;h1 -->
<g id="edge7" class="edge">
<title>h5&#45;&gt;h1</title>
<path fill="none" stroke="black" d="M166.5,-133.67C166.5,-125.05 166.5,-115.79 166.5,-108.1"/>
<polygon fill="black" stroke="black" points="163,-133.7 166.5,-143.7 170,-133.7 163,-133.7"/>
</g>
<!-- h2 -->
<g id="node9" class="node">
<title>h2</title>
<polygon fill="none" stroke="black" points="333,-108 234,-108 234,-72 333,-72 333,-108"/>
<text text-anchor="middle" x="283.5" y="-86.3" font-family="Times,serif" font-size="14.00">h2=hash(d2)</text>
</g>
<!-- h6&#45;&gt;h2 -->
<g id="edge8" class="edge">
<title>h6&#45;&gt;h2</title>
<path fill="none" stroke="black" d="M324.82,-136.2C316.32,-126.9 306.86,-116.55 299.14,-108.1"/>
<polygon fill="black" stroke="black" points="322.35,-138.68 331.68,-143.7 327.52,-133.95 322.35,-138.68"/>
</g>
<!-- h3 -->
<g id="node10" class="node">
<title>h3</title>
<polygon fill="none" stroke="red" stroke-dasharray="5,2" points="450,-108 351,-108 351,-72 450,-72 450,-108"/>
<text text-anchor="middle" x="400.5" y="-86.3" font-family="Times,serif" font-size="14.00">h3=hash(d3)</text>
</g>
<!-- h6&#45;&gt;h3 -->
<g id="edge9" class="edge">
<title>h6&#45;&gt;h3</title>
<path fill="none" stroke="red" stroke-dasharray="5,2" d="M366.7,-135.64C373.63,-126.49 381.28,-116.38 387.55,-108.1"/>
<polygon fill="red" stroke="red" points="363.85,-133.61 360.6,-143.7 369.43,-137.84 363.85,-133.61"/>
</g>
<!-- h4 -->
<g id="node11" class="node">
<title>h4</title>
<polygon fill="none" stroke="black" points="567,-108 468,-108 468,-72 567,-72 567,-108"/>
<text text-anchor="middle" x="517.5" y="-86.3" font-family="Times,serif" font-size="14.00">h4=hash(d4)</text>
</g>
<!-- h7&#45;&gt;h4 -->
<g id="edge10" class="edge">
<title>h7&#45;&gt;h4</title>
<path fill="none" stroke="black" d="M504.62,-133.95C507.22,-125.26 510.04,-115.88 512.37,-108.1"/>
<polygon fill="black" stroke="black" points="501.21,-133.11 501.69,-143.7 507.92,-135.12 501.21,-133.11"/>
</g>
<!-- d0 -->
<g id="node12" class="node">
<title>d0</title>
<polygon fill="lightgrey" stroke="black" points="76.5,-36 22.5,-36 22.5,0 76.5,0 76.5,-36"/>
<text text-anchor="middle" x="49.5" y="-14.3" font-family="Times,serif" font-size="14.00">d0</text>
</g>
<!-- h0&#45;&gt;d0 -->
<g id="edge11" class="edge">
<title>h0&#45;&gt;d0</title>
<path fill="none" stroke="black" d="M49.5,-61.67C49.5,-53.05 49.5,-43.79 49.5,-36.1"/>
<polygon fill="black" stroke="black" points="46,-61.7 49.5,-71.7 53,-61.7 46,-61.7"/>
</g>
<!-- d1 -->
<g id="node13" class="node">
<title>d1</title>
<polygon fill="lightgrey" stroke="black" points="193.5,-36 139.5,-36 139.5,0 193.5,0 193.5,-36"/>
<text text-anchor="middle" x="166.5" y="-14.3" font-family="Times,serif" font-size="14.00">d1</text>
</g>
<!-- h1&#45;&gt;d1 -->
<g id="edge12" class="edge">
<title>h1&#45;&gt;d1</title>
<path fill="none" stroke="black" d="M166.5,-61.67C166.5,-53.05 166.5,-43.79 166.5,-36.1"/>
<polygon fill="black" stroke="black" points="163,-61.7 166.5,-71.7 170,-61.7 163,-61.7"/>
</g>
<!-- d2 -->
<g id="node14" class="node">
<title>d2</title>
<polygon fill="lightgrey" stroke="black" points="310.5,-36 256.5,-36 256.5,0 310.5,0 310.5,-36"/>
<text text-anchor="middle" x="283.5" y="-14.3" font-family="Times,serif" font-size="14.00">d2</text>
</g>
<!-- h2&#45;&gt;d2 -->
<g id="edge13" class="edge">
<title>h2&#45;&gt;d2</title>
<path fill="none" stroke="black" d="M283.5,-61.67C283.5,-53.05 283.5,-43.79 283.5,-36.1"/>
<polygon fill="black" stroke="black" points="280,-61.7 283.5,-71.7 287,-61.7 280,-61.7"/>
</g>
<!-- d3 -->
<g id="node15" class="node">
<title>d3</title>
<polygon fill="lightgrey" stroke="black" points="427.5,-36 373.5,-36 373.5,0 427.5,0 427.5,-36"/>
<text text-anchor="middle" x="400.5" y="-14.3" font-family="Times,serif" font-size="14.00">d3</text>
</g>
<!-- h3&#45;&gt;d3 -->
<g id="edge14" class="edge">
<title>h3&#45;&gt;d3</title>
<path fill="none" stroke="black" d="M400.5,-61.67C400.5,-53.05 400.5,-43.79 400.5,-36.1"/>
<polygon fill="black" stroke="black" points="397,-61.7 400.5,-71.7 404,-61.7 397,-61.7"/>
</g>
<!-- d4 -->
<g id="node16" class="node">
<title>d4</title>
<polygon fill="lightgrey" stroke="black" points="544.5,-36 490.5,-36 490.5,0 544.5,0 544.5,-36"/>
<text text-anchor="middle" x="517.5" y="-14.3" font-family="Times,serif" font-size="14.00">d4</text>
</g>
<!-- h4&#45;&gt;d4 -->
<g id="edge15" class="edge">
<title>h4&#45;&gt;d4</title>
<path fill="none" stroke="black" d="M517.5,-61.67C517.5,-53.05 517.5,-43.79 517.5,-36.1"/>
<polygon fill="black" stroke="black" points="514,-61.7 517.5,-71.7 521,-61.7 514,-61.7"/>
</g>
</g>
</svg>
