<?xml version="1.0" encoding="UTF-8" standalone="no"?>
<!DOCTYPE svg PUBLIC "-//W3C//DTD SVG 1.1//EN"
 "http://www.w3.org/Graphics/SVG/1.1/DTD/svg11.dtd">
<!-- Generated by graphviz version 2.42.3 ()
 -->
<!-- Title: hierarchy Pages: 1 -->
<svg width="350pt" height="332pt"
 viewBox="0.00 0.00 350.00 332.00" xmlns="http://www.w3.org/2000/svg" xmlns:xlink="http://www.w3.org/1999/xlink">
<g id="graph0" class="graph" transform="scale(1 1) rotate(0) translate(4 328)">
<title>hierarchy</title>
<polygon fill="white" stroke="transparent" points="-4,4 -4,-328 346,-328 346,4 -4,4"/>
<!-- H10 -->
<g id="node1" class="node">
<title>H10</title>
<polygon fill="none" stroke="red" stroke-dasharray="5,2" points="162,-324 108,-324 108,-288 162,-288 162,-324"/>
<text text-anchor="middle" x="135" y="-302.9" font-family="Monospace" font-size="12.00">H10</text>
</g>
<!-- H8 -->
<g id="node2" class="node">
<title>H8</title>
<polygon fill="none" stroke="black" points="126,-252 72,-252 72,-216 126,-216 126,-252"/>
<text text-anchor="middle" x="99" y="-230.9" font-family="Monospace" font-size="12.00">H8</text>
</g>
<!-- H10&#45;&gt;H8 -->
<g id="edge1" class="edge">
<title>H10&#45;&gt;H8</title>
<path fill="none" stroke="black" d="M121.52,-278.8C116.93,-269.87 111.92,-260.13 107.8,-252.1"/>
<polygon fill="black" stroke="black" points="118.42,-280.4 126.1,-287.7 124.64,-277.2 118.42,-280.4"/>
</g>
<!-- H9 -->
<g id="node3" class="node">
<title>H9</title>
<polygon fill="none" stroke="red" stroke-dasharray="5,2" points="198,-252 144,-252 144,-216 198,-216 198,-252"/>
<text text-anchor="middle" x="171" y="-230.9" font-family="Monospace" font-size="12.00">H9</text>
</g>
<!-- H10&#45;&gt;H9 -->
<g id="edge2" class="edge">
<title>H10&#45;&gt;H9</title>
<path fill="none" stroke="red" stroke-dasharray="5,2" d="M148.48,-278.8C153.07,-269.87 158.08,-260.13 162.2,-252.1"/>
<polygon fill="red" stroke="red" points="145.36,-277.2 143.9,-287.7 151.58,-280.4 145.36,-277.2"/>
</g>
<!-- H5 -->
<g id="node4" class="node">
<title>H5</title>
<polygon fill="none" stroke="black" points="126,-180 72,-180 72,-144 126,-144 126,-180"/>
<text text-anchor="middle" x="99" y="-158.9" font-family="Monospace" font-size="12.00">H5</text>
</g>
<!-- H8&#45;&gt;H5 -->
<g id="edge3" class="edge">
<title>H8&#45;&gt;H5</title>
<path fill="none" stroke="black" d="M99,-205.67C99,-197.05 99,-187.79 99,-180.1"/>
<polygon fill="black" stroke="black" points="95.5,-205.7 99,-215.7 102.5,-205.7 95.5,-205.7"/>
</g>
<!-- H6 -->
<g id="node5" class="node">
<title>H6</title>
<polygon fill="none" stroke="red" stroke-dasharray="5,2" points="198,-180 144,-180 144,-144 198,-144 198,-180"/>
<text text-anchor="middle" x="171" y="-158.9" font-family="Monospace" font-size="12.00">H6</text>
</g>
<!-- H9&#45;&gt;H6 -->
<g id="edge4" class="edge">
<title>H9&#45;&gt;H6</title>
<path fill="none" stroke="red" stroke-dasharray="5,2" d="M171,-205.67C171,-197.05 171,-187.79 171,-180.1"/>
<polygon fill="red" stroke="red" points="167.5,-205.7 171,-215.7 174.5,-205.7 167.5,-205.7"/>
</g>
<!-- H7 -->
<g id="node6" class="node">
<title>H7</title>
<polygon fill="none" stroke="black" points="306,-180 252,-180 252,-144 306,-144 306,-180"/>
<text text-anchor="middle" x="279" y="-158.9" font-family="Monospace" font-size="12.00">H7</text>
</g>
<!-- H9&#45;&gt;H7 -->
<g id="edge5" class="edge">
<title>H9&#45;&gt;H7</title>
<path fill="none" stroke="black" d="M206,-210.31C221.1,-200.53 238.47,-189.27 252.48,-180.19"/>
<polygon fill="black" stroke="black" points="203.91,-207.5 197.42,-215.88 207.71,-213.37 203.91,-207.5"/>
</g>
<!-- H0 -->
<g id="node7" class="node">
<title>H0</title>
<polygon fill="none" stroke="black" points="54,-108 0,-108 0,-72 54,-72 54,-108"/>
<text text-anchor="middle" x="27" y="-86.9" font-family="Monospace" font-size="12.00">H0</text>
</g>
<!-- H5&#45;&gt;H0 -->
<g id="edge6" class="edge">
<title>H5&#45;&gt;H0</title>
<path fill="none" stroke="black" d="M73.78,-136.48C64.14,-127.11 53.37,-116.64 44.59,-108.1"/>
<polygon fill="black" stroke="black" points="71.59,-139.24 81.2,-143.7 76.47,-134.22 71.59,-139.24"/>
</g>
<!-- H1 -->
<g id="node8" class="node">
<title>H1</title>
<polygon fill="none" stroke="black" points="126,-108 72,-108 72,-72 126,-72 126,-108"/>
<text text-anchor="middle" x="99" y="-86.9" font-family="Monospace" font-size="12.00">H1</text>
</g>
<!-- H5&#45;&gt;H1 -->
<g id="edge7" class="edge">
<title>H5&#45;&gt;H1</title>
<path fill="none" stroke="black" d="M99,-133.67C99,-125.05 99,-115.79 99,-108.1"/>
<polygon fill="black" stroke="black" points="95.5,-133.7 99,-143.7 102.5,-133.7 95.5,-133.7"/>
</g>
<!-- H2 -->
<g id="node9" class="node">
<title>H2</title>
<polygon fill="none" stroke="black" points="198,-108 144,-108 144,-72 198,-72 198,-108"/>
<text text-anchor="middle" x="171" y="-86.9" font-family="Monospace" font-size="12.00">H2</text>
</g>
<!-- H6&#45;&gt;H2 -->
<g id="edge8" class="edge">
<title>H6&#45;&gt;H2</title>
<path fill="none" stroke="black" d="M171,-133.67C171,-125.05 171,-115.79 171,-108.1"/>
<polygon fill="black" stroke="black" points="167.5,-133.7 171,-143.7 174.5,-133.7 167.5,-133.7"/>
</g>
<!-- H3 -->
<g id="node10" class="node">
<title>H3</title>
<polygon fill="none" stroke="red" stroke-dasharray="5,2" points="270,-108 216,-108 216,-72 270,-72 270,-108"/>
<text text-anchor="middle" x="243" y="-86.9" font-family="Monospace" font-size="12.00">H3</text>
</g>
<!-- H6&#45;&gt;H3 -->
<g id="edge9" class="edge">
<title>H6&#45;&gt;H3</title>
<path fill="none" stroke="red" stroke-dasharray="5,2" d="M196.22,-136.48C205.86,-127.11 216.63,-116.64 225.41,-108.1"/>
<polygon fill="red" stroke="red" points="193.53,-134.22 188.8,-143.7 198.41,-139.24 193.53,-134.22"/>
</g>
<!-- H4 -->
<g id="node11" class="node">
<title>H4</title>
<polygon fill="none" stroke="black" points="342,-108 288,-108 288,-72 342,-72 342,-108"/>
<text text-anchor="middle" x="315" y="-86.9" font-family="Monospace" font-size="12.00">H4</text>
</g>
<!-- H7&#45;&gt;H4 -->
<g id="edge10" class="edge">
<title>H7&#45;&gt;H4</title>
<path fill="none" stroke="black" d="M292.48,-134.8C297.07,-125.87 302.08,-116.13 306.2,-108.1"/>
<polygon fill="black" stroke="black" points="289.36,-133.2 287.9,-143.7 295.58,-136.4 289.36,-133.2"/>
</g>
<!-- D0 -->
<g id="node12" class="node">
<title>D0</title>
<polygon fill="lightgrey" stroke="black" points="54,-36 0,-36 0,0 54,0 54,-36"/>
<text text-anchor="middle" x="27" y="-14.9" font-family="Monospace" font-size="12.00">D0</text>
</g>
<!-- H0&#45;&gt;D0 -->
<g id="edge11" class="edge">
<title>H0&#45;&gt;D0</title>
<path fill="none" stroke="black" d="M27,-61.67C27,-53.05 27,-43.79 27,-36.1"/>
<polygon fill="black" stroke="black" points="23.5,-61.7 27,-71.7 30.5,-61.7 23.5,-61.7"/>
</g>
<!-- D1 -->
<g id="node13" class="node">
<title>D1</title>
<polygon fill="lightgrey" stroke="black" points="126,-36 72,-36 72,0 126,0 126,-36"/>
<text text-anchor="middle" x="99" y="-14.9" font-family="Monospace" font-size="12.00">D1</text>
</g>
<!-- H1&#45;&gt;D1 -->
<g id="edge12" class="edge">
<title>H1&#45;&gt;D1</title>
<path fill="none" stroke="black" d="M99,-61.67C99,-53.05 99,-43.79 99,-36.1"/>
<polygon fill="black" stroke="black" points="95.5,-61.7 99,-71.7 102.5,-61.7 95.5,-61.7"/>
</g>
<!-- D2 -->
<g id="node14" class="node">
<title>D2</title>
<polygon fill="lightgrey" stroke="black" points="198,-36 144,-36 144,0 198,0 198,-36"/>
<text text-anchor="middle" x="171" y="-14.9" font-family="Monospace" font-size="12.00">D2</text>
</g>
<!-- H2&#45;&gt;D2 -->
<g id="edge13" class="edge">
<title>H2&#45;&gt;D2</title>
<path fill="none" stroke="black" d="M171,-61.67C171,-53.05 171,-43.79 171,-36.1"/>
<polygon fill="black" stroke="black" points="167.5,-61.7 171,-71.7 174.5,-61.7 167.5,-61.7"/>
</g>
<!-- D3 -->
<g id="node15" class="node">
<title>D3</title>
<polygon fill="lightgrey" stroke="black" points="270,-36 216,-36 216,0 270,0 270,-36"/>
<text text-anchor="middle" x="243" y="-14.9" font-family="Monospace" font-size="12.00">D3</text>
</g>
<!-- H3&#45;&gt;D3 -->
<g id="edge14" class="edge">
<title>H3&#45;&gt;D3</title>
<path fill="none" stroke="black" d="M243,-61.67C243,-53.05 243,-43.79 243,-36.1"/>
<polygon fill="black" stroke="black" points="239.5,-61.7 243,-71.7 246.5,-61.7 239.5,-61.7"/>
</g>
<!-- D4 -->
<g id="node16" class="node">
<title>D4</title>
<polygon fill="lightgrey" stroke="black" points="342,-36 288,-36 288,0 342,0 342,-36"/>
<text text-anchor="middle" x="315" y="-14.9" font-family="Monospace" font-size="12.00">D4</text>
</g>
<!-- H4&#45;&gt;D4 -->
<g id="edge15" class="edge">
<title>H4&#45;&gt;D4</title>
<path fill="none" stroke="black" d="M315,-61.67C315,-53.05 315,-43.79 315,-36.1"/>
<polygon fill="black" stroke="black" points="311.5,-61.7 315,-71.7 318.5,-61.7 311.5,-61.7"/>
</g>
</g>
</svg>
