<?xml version="1.0" encoding="UTF-8" standalone="no"?>
<!DOCTYPE svg PUBLIC "-//W3C//DTD SVG 1.1//EN"
 "http://www.w3.org/Graphics/SVG/1.1/DTD/svg11.dtd">
<!-- Generated by graphviz version 2.42.3 ()
 -->
<!-- Title: hierarchy Pages: 1 -->
<svg width="350pt" height="332pt"
 viewBox="0.00 0.00 350.00 332.00" xmlns="http://www.w3.org/2000/svg" xmlns:xlink="http://www.w3.org/1999/xlink">
<g id="graph0" class="graph" transform="scale(1 1) rotate(0) translate(4 328)">
<title>hierarchy</title>
<polygon fill="white" stroke="transparent" points="-4,4 -4,-328 346,-328 346,4 -4,4"/>
<!-- H10 -->
<g id="node1" class="node">
<title>H10</title>
<polygon fill="none" stroke="red" points="234,-324 180,-324 180,-288 234,-288 234,-324"/>
<text text-anchor="middle" x="207" y="-302.3" font-family="Times,serif" font-size="14.00">H</text>
</g>
<!-- H8 -->
<g id="node2" class="node">
<title>H8</title>
<polygon fill="none" stroke="black" points="162,-252 108,-252 108,-216 162,-216 162,-252"/>
<text text-anchor="middle" x="135" y="-230.3" font-family="Times,serif" font-size="14.00">H</text>
</g>
<!-- H10&#45;&gt;H8 -->
<g id="edge1" class="edge">
<title>H10&#45;&gt;H8</title>
<path fill="none" stroke="black" d="M181.78,-280.48C172.14,-271.11 161.37,-260.64 152.59,-252.1"/>
<polygon fill="black" stroke="black" points="179.59,-283.24 189.2,-287.7 184.47,-278.22 179.59,-283.24"/>
</g>
<!-- H88 -->
<g id="node3" class="node">
<title>H88</title>
</g>
<!-- H10&#45;&gt;H88 -->
<!-- H9 -->
<g id="node4" class="node">
<title>H9</title>
<polygon fill="none" stroke="black" points="306,-252 252,-252 252,-216 306,-216 306,-252"/>
<text text-anchor="middle" x="279" y="-230.3" font-family="Times,serif" font-size="14.00">H</text>
</g>
<!-- H10&#45;&gt;H9 -->
<g id="edge3" class="edge">
<title>H10&#45;&gt;H9</title>
<path fill="none" stroke="black" d="M232.22,-280.48C241.86,-271.11 252.63,-260.64 261.41,-252.1"/>
<polygon fill="black" stroke="black" points="229.53,-278.22 224.8,-287.7 234.41,-283.24 229.53,-278.22"/>
</g>
<!-- H5 -->
<g id="node5" class="node">
<title>H5</title>
<polygon fill="none" stroke="black" points="126,-180 72,-180 72,-144 126,-144 126,-180"/>
<text text-anchor="middle" x="99" y="-158.3" font-family="Times,serif" font-size="14.00">H</text>
</g>
<!-- H8&#45;&gt;H5 -->
<g id="edge4" class="edge">
<title>H8&#45;&gt;H5</title>
<path fill="none" stroke="black" d="M121.52,-206.8C116.93,-197.87 111.92,-188.13 107.8,-180.1"/>
<polygon fill="black" stroke="black" points="118.42,-208.4 126.1,-215.7 124.64,-205.2 118.42,-208.4"/>
</g>
<!-- H6 -->
<g id="node6" class="node">
<title>H6</title>
<polygon fill="none" stroke="black" points="198,-180 144,-180 144,-144 198,-144 198,-180"/>
<text text-anchor="middle" x="171" y="-158.3" font-family="Times,serif" font-size="14.00">H</text>
</g>
<!-- H8&#45;&gt;H6 -->
<g id="edge5" class="edge">
<title>H8&#45;&gt;H6</title>
<path fill="none" stroke="black" d="M148.48,-206.8C153.07,-197.87 158.08,-188.13 162.2,-180.1"/>
<polygon fill="black" stroke="black" points="145.36,-205.2 143.9,-215.7 151.58,-208.4 145.36,-205.2"/>
</g>
<!-- H7 -->
<g id="node7" class="node">
<title>H7</title>
<polygon fill="none" stroke="black" points="342,-180 288,-180 288,-144 342,-144 342,-180"/>
<text text-anchor="middle" x="315" y="-158.3" font-family="Times,serif" font-size="14.00">H</text>
</g>
<!-- H9&#45;&gt;H7 -->
<g id="edge6" class="edge">
<title>H9&#45;&gt;H7</title>
<path fill="none" stroke="black" d="M292.48,-206.8C297.07,-197.87 302.08,-188.13 306.2,-180.1"/>
<polygon fill="black" stroke="black" points="289.36,-205.2 287.9,-215.7 295.58,-208.4 289.36,-205.2"/>
</g>
<!-- H77 -->
<g id="node8" class="node">
<title>H77</title>
<text text-anchor="middle" x="243" y="-158.3" font-family="Times,serif" font-size="14.00">...</text>
</g>
<!-- H9&#45;&gt;H77 -->
<g id="edge7" class="edge">
<title>H9&#45;&gt;H77</title>
<path fill="none" stroke="black" stroke-dasharray="5,2" d="M265.52,-206.8C260.93,-197.87 255.92,-188.13 251.8,-180.1"/>
<polygon fill="black" stroke="black" points="262.42,-208.4 270.1,-215.7 268.64,-205.2 262.42,-208.4"/>
</g>
<!-- H0 -->
<g id="node9" class="node">
<title>H0</title>
<polygon fill="none" stroke="black" points="54,-108 0,-108 0,-72 54,-72 54,-108"/>
<text text-anchor="middle" x="27" y="-86.3" font-family="Times,serif" font-size="14.00">Pk0</text>
</g>
<!-- H5&#45;&gt;H0 -->
<g id="edge8" class="edge">
<title>H5&#45;&gt;H0</title>
<path fill="none" stroke="black" d="M73.78,-136.48C64.14,-127.11 53.37,-116.64 44.59,-108.1"/>
<polygon fill="black" stroke="black" points="71.59,-139.24 81.2,-143.7 76.47,-134.22 71.59,-139.24"/>
</g>
<!-- H1 -->
<g id="node10" class="node">
<title>H1</title>
<polygon fill="none" stroke="black" points="126,-108 72,-108 72,-72 126,-72 126,-108"/>
<text text-anchor="middle" x="99" y="-86.3" font-family="Times,serif" font-size="14.00">Pk1</text>
</g>
<!-- H5&#45;&gt;H1 -->
<g id="edge9" class="edge">
<title>H5&#45;&gt;H1</title>
<path fill="none" stroke="black" d="M99,-133.67C99,-125.05 99,-115.79 99,-108.1"/>
<polygon fill="black" stroke="black" points="95.5,-133.7 99,-143.7 102.5,-133.7 95.5,-133.7"/>
</g>
<!-- H2 -->
<g id="node11" class="node">
<title>H2</title>
<polygon fill="none" stroke="black" points="198,-108 144,-108 144,-72 198,-72 198,-108"/>
<text text-anchor="middle" x="171" y="-86.3" font-family="Times,serif" font-size="14.00">Pk2</text>
</g>
<!-- H6&#45;&gt;H2 -->
<g id="edge10" class="edge">
<title>H6&#45;&gt;H2</title>
<path fill="none" stroke="black" d="M171,-133.67C171,-125.05 171,-115.79 171,-108.1"/>
<polygon fill="black" stroke="black" points="167.5,-133.7 171,-143.7 174.5,-133.7 167.5,-133.7"/>
</g>
<!-- H3 -->
<g id="node12" class="node">
<title>H3</title>
<text text-anchor="middle" x="243" y="-86.3" font-family="Times,serif" font-size="14.00">...</text>
</g>
<!-- H6&#45;&gt;H3 -->
<!-- H6&#45;&gt;H3 -->
<g id="edge15" class="edge">
<title>H6&#45;&gt;H3</title>
<path fill="none" stroke="black" stroke-dasharray="5,2" d="M202.4,-136.76C212.63,-127.32 223.34,-116.72 231.3,-108.1"/>
<polygon fill="black" stroke="black" points="199.79,-134.4 194.71,-143.7 204.48,-139.59 199.79,-134.4"/>
</g>
<!-- H7&#45;&gt;H3 -->
<g id="edge14" class="edge">
<title>H7&#45;&gt;H3</title>
<path fill="none" stroke="black" stroke-dasharray="5,2" d="M289.78,-136.48C280.14,-127.11 269.37,-116.64 260.59,-108.1"/>
<polygon fill="black" stroke="black" points="287.59,-139.24 297.2,-143.7 292.47,-134.22 287.59,-139.24"/>
</g>
<!-- H4 -->
<g id="node13" class="node">
<title>H4</title>
<polygon fill="none" stroke="black" points="342,-108 288,-108 288,-72 342,-72 342,-108"/>
<text text-anchor="middle" x="315" y="-86.3" font-family="Times,serif" font-size="14.00">Pkn&#45;1</text>
</g>
<!-- H7&#45;&gt;H4 -->
<g id="edge13" class="edge">
<title>H7&#45;&gt;H4</title>
<path fill="none" stroke="black" d="M315,-133.67C315,-125.05 315,-115.79 315,-108.1"/>
<polygon fill="black" stroke="black" points="311.5,-133.7 315,-143.7 318.5,-133.7 311.5,-133.7"/>
</g>
<!-- H77&#45;&gt;H3 -->
<!-- P0 -->
<g id="node14" class="node">
<title>P0</title>
<polygon fill="lightgrey" stroke="black" points="54,-36 0,-36 0,0 54,0 54,-36"/>
<text text-anchor="middle" x="27" y="-14.3" font-family="Times,serif" font-size="14.00">Sk0</text>
</g>
<!-- H0&#45;&gt;P0 -->
<g id="edge16" class="edge">
<title>H0&#45;&gt;P0</title>
<path fill="none" stroke="black" d="M27,-61.67C27,-53.05 27,-43.79 27,-36.1"/>
<polygon fill="black" stroke="black" points="23.5,-61.7 27,-71.7 30.5,-61.7 23.5,-61.7"/>
</g>
<!-- P1 -->
<g id="node15" class="node">
<title>P1</title>
<polygon fill="lightgrey" stroke="black" points="126,-36 72,-36 72,0 126,0 126,-36"/>
<text text-anchor="middle" x="99" y="-14.3" font-family="Times,serif" font-size="14.00">Sk1</text>
</g>
<!-- H1&#45;&gt;P1 -->
<g id="edge17" class="edge">
<title>H1&#45;&gt;P1</title>
<path fill="none" stroke="black" d="M99,-61.67C99,-53.05 99,-43.79 99,-36.1"/>
<polygon fill="black" stroke="black" points="95.5,-61.7 99,-71.7 102.5,-61.7 95.5,-61.7"/>
</g>
<!-- P2 -->
<g id="node16" class="node">
<title>P2</title>
<polygon fill="lightgrey" stroke="black" points="198,-36 144,-36 144,0 198,0 198,-36"/>
<text text-anchor="middle" x="171" y="-14.3" font-family="Times,serif" font-size="14.00">Sk2</text>
</g>
<!-- H2&#45;&gt;P2 -->
<g id="edge18" class="edge">
<title>H2&#45;&gt;P2</title>
<path fill="none" stroke="black" d="M171,-61.67C171,-53.05 171,-43.79 171,-36.1"/>
<polygon fill="black" stroke="black" points="167.5,-61.7 171,-71.7 174.5,-61.7 167.5,-61.7"/>
</g>
<!-- P3 -->
<g id="node17" class="node">
<title>P3</title>
<text text-anchor="middle" x="243" y="-14.3" font-family="Times,serif" font-size="14.00">...</text>
</g>
<!-- H3&#45;&gt;P3 -->
<!-- P4 -->
<g id="node18" class="node">
<title>P4</title>
<polygon fill="lightgrey" stroke="black" points="342,-36 288,-36 288,0 342,0 342,-36"/>
<text text-anchor="middle" x="315" y="-14.3" font-family="Times,serif" font-size="14.00">Skn&#45;1</text>
</g>
<!-- H4&#45;&gt;P4 -->
<g id="edge20" class="edge">
<title>H4&#45;&gt;P4</title>
<path fill="none" stroke="black" d="M315,-61.67C315,-53.05 315,-43.79 315,-36.1"/>
<polygon fill="black" stroke="black" points="311.5,-61.7 315,-71.7 318.5,-61.7 311.5,-61.7"/>
</g>
</g>
</svg>
