<?xml version="1.0" encoding="UTF-8" standalone="no"?>
<!DOCTYPE svg PUBLIC "-//W3C//DTD SVG 1.1//EN"
 "http://www.w3.org/Graphics/SVG/1.1/DTD/svg11.dtd">
<!-- Generated by graphviz version 2.42.3 ()
 -->
<!-- Title: simplehashfunc Pages: 1 -->
<svg width="310pt" height="227pt"
 viewBox="0.00 0.00 310.00 227.00" xmlns="http://www.w3.org/2000/svg" xmlns:xlink="http://www.w3.org/1999/xlink">
<g id="graph0" class="graph" transform="scale(1 1) rotate(0) translate(4 223)">
<title>simplehashfunc</title>
<polygon fill="white" stroke="transparent" points="-4,4 -4,-223 306,-223 306,4 -4,4"/>
<g id="clust1" class="cluster">
<title>cluster1</title>
<polygon fill="none" stroke="gray" stroke-dasharray="5,2" points="8,-136 8,-211 294,-211 294,-136 8,-136"/>
<text text-anchor="middle" x="151" y="-195.8" font-family="Times,serif" font-size="14.00">data</text>
</g>
<!-- d0 -->
<g id="node1" class="node">
<title>d0</title>
<polygon fill="none" stroke="black" points="70,-180 16,-180 16,-144 70,-144 70,-180"/>
<text text-anchor="middle" x="43" y="-158.3" font-family="Times,serif" font-size="14.00">d0</text>
</g>
<!-- d1 -->
<g id="node2" class="node">
<title>d1</title>
<polygon fill="none" stroke="black" points="142,-180 88,-180 88,-144 142,-144 142,-180"/>
<text text-anchor="middle" x="115" y="-158.3" font-family="Times,serif" font-size="14.00">d1</text>
</g>
<!-- d0&#45;&gt;d1 -->
<!-- sum -->
<g id="node5" class="node">
<title>sum</title>
<ellipse fill="none" stroke="red" stroke-dasharray="5,2" cx="115" cy="-90" rx="18" ry="18"/>
<text text-anchor="middle" x="115" y="-86.3" font-family="Times,serif" font-size="14.00">+</text>
</g>
<!-- d0&#45;&gt;sum -->
<g id="edge4" class="edge">
<title>d0&#45;&gt;sum</title>
<path fill="none" stroke="black" d="M60.8,-143.7C71.25,-133.53 84.49,-120.67 95.26,-110.19"/>
<polygon fill="black" stroke="black" points="97.87,-112.54 102.6,-103.06 92.99,-107.52 97.87,-112.54"/>
</g>
<!-- d2 -->
<g id="node3" class="node">
<title>d2</title>
<text text-anchor="middle" x="187" y="-158.3" font-family="Times,serif" font-size="14.00">...</text>
</g>
<!-- d1&#45;&gt;d2 -->
<!-- d1&#45;&gt;sum -->
<g id="edge5" class="edge">
<title>d1&#45;&gt;sum</title>
<path fill="none" stroke="black" d="M115,-143.7C115,-135.98 115,-126.71 115,-118.11"/>
<polygon fill="black" stroke="black" points="118.5,-118.1 115,-108.1 111.5,-118.1 118.5,-118.1"/>
</g>
<!-- dn&#45;1 -->
<g id="node4" class="node">
<title>dn&#45;1</title>
<polygon fill="none" stroke="black" points="286,-180 232,-180 232,-144 286,-144 286,-180"/>
<text text-anchor="middle" x="259" y="-158.3" font-family="Times,serif" font-size="14.00">dn&#45;1</text>
</g>
<!-- d2&#45;&gt;dn&#45;1 -->
<!-- dn&#45;1&#45;&gt;sum -->
<g id="edge6" class="edge">
<title>dn&#45;1&#45;&gt;sum</title>
<path fill="none" stroke="black" d="M235.83,-143.85C231.66,-141.07 227.27,-138.34 223,-136 196.27,-121.37 163.78,-108.43 141.46,-100.23"/>
<polygon fill="black" stroke="black" points="142.57,-96.91 131.98,-96.8 140.19,-103.49 142.57,-96.91"/>
</g>
<!-- hash -->
<g id="node6" class="node">
<title>hash</title>
<polygon fill="none" stroke="black" points="142,-36 88,-36 88,0 142,0 142,-36"/>
<text text-anchor="middle" x="115" y="-14.3" font-family="Times,serif" font-size="14.00">hash</text>
</g>
<!-- sum&#45;&gt;hash -->
<g id="edge7" class="edge">
<title>sum&#45;&gt;hash</title>
<path fill="none" stroke="black" d="M115,-71.7C115,-63.98 115,-54.71 115,-46.11"/>
<polygon fill="black" stroke="black" points="118.5,-46.1 115,-36.1 111.5,-46.1 118.5,-46.1"/>
</g>
</g>
</svg>
