<?xml version="1.0" encoding="UTF-8" standalone="no"?>
<!DOCTYPE svg PUBLIC "-//W3C//DTD SVG 1.1//EN"
 "http://www.w3.org/Graphics/SVG/1.1/DTD/svg11.dtd">
<!-- Generated by graphviz version 2.42.3 ()
 -->
<!-- Title: state_transition_tx Pages: 1 -->
<svg width="356pt" height="816pt"
 viewBox="0.00 0.00 356.00 816.00" xmlns="http://www.w3.org/2000/svg" xmlns:xlink="http://www.w3.org/1999/xlink">
<g id="graph0" class="graph" transform="scale(1 1) rotate(0) translate(4 812)">
<title>state_transition_tx</title>
<polygon fill="white" stroke="transparent" points="-4,4 -4,-812 352,-812 352,4 -4,4"/>
<g id="clust1" class="cluster">
<title>cluster1</title>
<polygon fill="none" stroke="black" points="15,-377 15,-800 309,-800 309,-377 15,-377"/>
<text text-anchor="middle" x="162" y="-784.8" font-family="Times,serif" font-size="14.00">block0:[tx0,tx1,tx3,tx4];//tx2 failed</text>
</g>
<g id="clust2" class="cluster">
<title>cluster2</title>
<polygon fill="none" stroke="black" points="8,-8 8,-344 340,-344 340,-8 8,-8"/>
<text text-anchor="middle" x="174" y="-328.8" font-family="Times,serif" font-size="14.00">block1:[tx5,tx6,tx9,tx10];//tx7,tx8 failed</text>
</g>
<!-- s0 -->
<g id="node1" class="node">
<title>s0</title>
<ellipse fill="none" stroke="black" cx="87" cy="-751" rx="27" ry="18"/>
<text text-anchor="middle" x="87" y="-747.3" font-family="Times,serif" font-size="14.00">s0</text>
</g>
<!-- s1 -->
<g id="node2" class="node">
<title>s1</title>
<ellipse fill="none" stroke="black" cx="87" cy="-664" rx="27" ry="18"/>
<text text-anchor="middle" x="87" y="-660.3" font-family="Times,serif" font-size="14.00">s1</text>
</g>
<!-- s0&#45;&gt;s1 -->
<g id="edge1" class="edge">
<title>s0&#45;&gt;s1</title>
<path fill="none" stroke="black" d="M87,-732.8C87,-721.16 87,-705.55 87,-692.24"/>
<polygon fill="black" stroke="black" points="90.5,-692.18 87,-682.18 83.5,-692.18 90.5,-692.18"/>
<text text-anchor="middle" x="98.5" y="-703.8" font-family="Times,serif" font-size="14.00">tx0</text>
</g>
<!-- s2 -->
<g id="node3" class="node">
<title>s2</title>
<ellipse fill="none" stroke="black" cx="87" cy="-577" rx="27" ry="18"/>
<text text-anchor="middle" x="87" y="-573.3" font-family="Times,serif" font-size="14.00">s2</text>
</g>
<!-- s1&#45;&gt;s2 -->
<g id="edge2" class="edge">
<title>s1&#45;&gt;s2</title>
<path fill="none" stroke="black" d="M87,-645.8C87,-634.16 87,-618.55 87,-605.24"/>
<polygon fill="black" stroke="black" points="90.5,-605.18 87,-595.18 83.5,-605.18 90.5,-605.18"/>
<text text-anchor="middle" x="98.5" y="-616.8" font-family="Times,serif" font-size="14.00">tx1</text>
</g>
<!-- s3 -->
<g id="node4" class="node">
<title>s3</title>
<ellipse fill="lightgray" stroke="lightgray" cx="69" cy="-490" rx="27" ry="18"/>
<text text-anchor="middle" x="69" y="-486.3" font-family="Times,serif" font-size="14.00">s3</text>
</g>
<!-- s2&#45;&gt;s3 -->
<g id="edge3" class="edge">
<title>s2&#45;&gt;s3</title>
<path fill="none" stroke="black" d="M65.87,-565.3C56.76,-559.47 47.04,-551.31 42,-541 37.4,-531.6 41.25,-521.4 47.34,-512.68"/>
<polygon fill="black" stroke="black" points="50.1,-514.83 53.66,-504.85 44.65,-510.44 50.1,-514.83"/>
<text text-anchor="middle" x="53.5" y="-529.8" font-family="Times,serif" font-size="14.00">tx2</text>
</g>
<!-- s4 -->
<g id="node5" class="node">
<title>s4</title>
<ellipse fill="none" stroke="black" cx="171" cy="-490" rx="27" ry="18"/>
<text text-anchor="middle" x="171" y="-486.3" font-family="Times,serif" font-size="14.00">s4</text>
</g>
<!-- s2&#45;&gt;s4 -->
<g id="edge5" class="edge">
<title>s2&#45;&gt;s4</title>
<path fill="none" stroke="black" d="M108.67,-566.17C120.2,-560.14 134.02,-551.55 144,-541 150.6,-534.02 156.09,-525.12 160.35,-516.77"/>
<polygon fill="black" stroke="black" points="163.53,-518.24 164.64,-507.7 157.2,-515.24 163.53,-518.24"/>
<text text-anchor="middle" x="166.5" y="-529.8" font-family="Times,serif" font-size="14.00">tx3</text>
</g>
<!-- s3&#45;&gt;s2 -->
<g id="edge4" class="edge">
<title>s3&#45;&gt;s2</title>
<path fill="none" stroke="red" stroke-dasharray="5,2" d="M72.58,-507.89C75.04,-519.53 78.37,-535.25 81.21,-548.66"/>
<polygon fill="red" stroke="red" points="77.86,-549.74 83.36,-558.8 84.71,-548.29 77.86,-549.74"/>
<text text-anchor="middle" x="109.5" y="-529.8" font-family="Times,serif" font-size="14.00">rollback</text>
</g>
<!-- s5 -->
<g id="node6" class="node">
<title>s5</title>
<ellipse fill="none" stroke="black" cx="171" cy="-403" rx="27" ry="18"/>
<text text-anchor="middle" x="171" y="-399.3" font-family="Times,serif" font-size="14.00">s5</text>
</g>
<!-- s4&#45;&gt;s5 -->
<g id="edge6" class="edge">
<title>s4&#45;&gt;s5</title>
<path fill="none" stroke="black" d="M171,-471.8C171,-460.16 171,-444.55 171,-431.24"/>
<polygon fill="black" stroke="black" points="174.5,-431.18 171,-421.18 167.5,-431.18 174.5,-431.18"/>
<text text-anchor="middle" x="182.5" y="-442.8" font-family="Times,serif" font-size="14.00">tx4</text>
</g>
<!-- s6 -->
<g id="node7" class="node">
<title>s6</title>
<ellipse fill="none" stroke="black" cx="171" cy="-295" rx="27" ry="18"/>
<text text-anchor="middle" x="171" y="-291.3" font-family="Times,serif" font-size="14.00">s6</text>
</g>
<!-- s5&#45;&gt;s6 -->
<g id="edge7" class="edge">
<title>s5&#45;&gt;s6</title>
<path fill="none" stroke="black" d="M171,-384.97C171,-368.38 171,-342.88 171,-323.43"/>
<polygon fill="black" stroke="black" points="174.5,-323.34 171,-313.34 167.5,-323.34 174.5,-323.34"/>
<text text-anchor="middle" x="182.5" y="-355.8" font-family="Times,serif" font-size="14.00">tx5</text>
</g>
<!-- s7 -->
<g id="node8" class="node">
<title>s7</title>
<ellipse fill="none" stroke="black" cx="171" cy="-208" rx="27" ry="18"/>
<text text-anchor="middle" x="171" y="-204.3" font-family="Times,serif" font-size="14.00">s7</text>
</g>
<!-- s6&#45;&gt;s7 -->
<g id="edge8" class="edge">
<title>s6&#45;&gt;s7</title>
<path fill="none" stroke="black" d="M171,-276.8C171,-265.16 171,-249.55 171,-236.24"/>
<polygon fill="black" stroke="black" points="174.5,-236.18 171,-226.18 167.5,-236.18 174.5,-236.18"/>
<text text-anchor="middle" x="182.5" y="-247.8" font-family="Times,serif" font-size="14.00">tx6</text>
</g>
<!-- s8 -->
<g id="node9" class="node">
<title>s8</title>
<ellipse fill="lightgray" stroke="lightgray" cx="65" cy="-121" rx="27" ry="18"/>
<text text-anchor="middle" x="65" y="-117.3" font-family="Times,serif" font-size="14.00">s8</text>
</g>
<!-- s7&#45;&gt;s8 -->
<g id="edge9" class="edge">
<title>s7&#45;&gt;s8</title>
<path fill="none" stroke="black" d="M144.72,-203.63C110.73,-198.68 54.41,-188.22 42,-172 35.75,-163.83 38.82,-153.7 44.48,-144.69"/>
<polygon fill="black" stroke="black" points="47.39,-146.64 50.48,-136.5 41.74,-142.5 47.39,-146.64"/>
<text text-anchor="middle" x="53.5" y="-160.8" font-family="Times,serif" font-size="14.00">tx7</text>
</g>
<!-- s9 -->
<g id="node10" class="node">
<title>s9</title>
<ellipse fill="lightgray" stroke="lightgray" cx="253" cy="-121" rx="27" ry="18"/>
<text text-anchor="middle" x="253" y="-117.3" font-family="Times,serif" font-size="14.00">s9</text>
</g>
<!-- s7&#45;&gt;s9 -->
<g id="edge10" class="edge">
<title>s7&#45;&gt;s9</title>
<path fill="none" stroke="black" d="M184.87,-192.01C194.16,-182.02 206.72,-168.63 218,-157 222.22,-152.65 226.76,-148.05 231.14,-143.65"/>
<polygon fill="black" stroke="black" points="233.65,-146.09 238.25,-136.54 228.71,-141.14 233.65,-146.09"/>
<text text-anchor="middle" x="229.5" y="-160.8" font-family="Times,serif" font-size="14.00">tx8</text>
</g>
<!-- s10 -->
<g id="node11" class="node">
<title>s10</title>
<ellipse fill="none" stroke="black" cx="171" cy="-121" rx="27" ry="18"/>
<text text-anchor="middle" x="171" y="-117.3" font-family="Times,serif" font-size="14.00">s10</text>
</g>
<!-- s7&#45;&gt;s10 -->
<g id="edge11" class="edge">
<title>s7&#45;&gt;s10</title>
<path fill="none" stroke="black" d="M171,-189.8C171,-178.16 171,-162.55 171,-149.24"/>
<polygon fill="black" stroke="black" points="174.5,-149.18 171,-139.18 167.5,-149.18 174.5,-149.18"/>
<text text-anchor="middle" x="182.5" y="-160.8" font-family="Times,serif" font-size="14.00">tx9</text>
</g>
<!-- s8&#45;&gt;s7 -->
<g id="edge13" class="edge">
<title>s8&#45;&gt;s7</title>
<path fill="none" stroke="red" stroke-dasharray="5,2" d="M75.48,-137.8C83.06,-148.39 94.04,-162.15 106,-172 116.05,-180.28 128.35,-187.49 139.54,-193.19"/>
<polygon fill="red" stroke="red" points="138.09,-196.37 148.61,-197.61 141.15,-190.08 138.09,-196.37"/>
<text text-anchor="middle" x="136.5" y="-160.8" font-family="Times,serif" font-size="14.00">rollback</text>
</g>
<!-- s9&#45;&gt;s7 -->
<g id="edge14" class="edge">
<title>s9&#45;&gt;s7</title>
<path fill="none" stroke="red" stroke-dasharray="5,2" d="M252.44,-139.33C251.29,-149.77 248.33,-162.77 241,-172 231.98,-183.36 218.3,-191.33 205.42,-196.77"/>
<polygon fill="red" stroke="red" points="203.91,-193.6 195.82,-200.44 206.41,-200.14 203.91,-193.6"/>
<text text-anchor="middle" x="278.5" y="-160.8" font-family="Times,serif" font-size="14.00">rollback</text>
</g>
<!-- s11 -->
<g id="node12" class="node">
<title>s11</title>
<ellipse fill="none" stroke="black" cx="171" cy="-34" rx="27" ry="18"/>
<text text-anchor="middle" x="171" y="-30.3" font-family="Times,serif" font-size="14.00">s11</text>
</g>
<!-- s10&#45;&gt;s11 -->
<g id="edge12" class="edge">
<title>s10&#45;&gt;s11</title>
<path fill="none" stroke="black" d="M171,-102.8C171,-91.16 171,-75.55 171,-62.24"/>
<polygon fill="black" stroke="black" points="174.5,-62.18 171,-52.18 167.5,-62.18 174.5,-62.18"/>
<text text-anchor="middle" x="186.5" y="-73.8" font-family="Times,serif" font-size="14.00">tx10</text>
</g>
</g>
</svg>
