<?xml version="1.0" encoding="UTF-8" standalone="no"?>
<!DOCTYPE svg PUBLIC "-//W3C//DTD SVG 1.1//EN"
 "http://www.w3.org/Graphics/SVG/1.1/DTD/svg11.dtd">
<!-- Generated by graphviz version 2.42.3 ()
 -->
<!-- Title: g Pages: 1 -->
<svg width="390pt" height="188pt"
 viewBox="0.00 0.00 390.00 188.00" xmlns="http://www.w3.org/2000/svg" xmlns:xlink="http://www.w3.org/1999/xlink">
<g id="graph0" class="graph" transform="scale(1 1) rotate(0) translate(4 184)">
<title>g</title>
<polygon fill="white" stroke="transparent" points="-4,4 -4,-184 386,-184 386,4 -4,4"/>
<!-- encryption -->
<g id="node1" class="node">
<title>encryption</title>
<polygon fill="none" stroke="red" points="107,-108 15,-108 15,-72 107,-72 107,-108"/>
<text text-anchor="middle" x="61" y="-86.9" font-family="Monospace" font-size="12.00">encryption</text>
</g>
<!-- edata1 -->
<g id="node4" class="node">
<title>edata1</title>
<polygon fill="none" stroke="black" points="122,-36 0,-36 0,0 122,0 122,-36"/>
<text text-anchor="middle" x="61" y="-14.9" font-family="Monospace" font-size="12.00">encrypted data</text>
</g>
<!-- encryption&#45;&gt;edata1 -->
<g id="edge3" class="edge">
<title>encryption&#45;&gt;edata1</title>
<path fill="none" stroke="black" d="M61,-71.7C61,-63.98 61,-54.71 61,-46.11"/>
<polygon fill="black" stroke="black" points="64.5,-46.1 61,-36.1 57.5,-46.1 64.5,-46.1"/>
</g>
<!-- key1 -->
<g id="node2" class="node">
<title>key1</title>
<polygon fill="none" stroke="black" points="60,-180 6,-180 6,-144 60,-144 60,-180"/>
<text text-anchor="middle" x="33" y="-158.9" font-family="Monospace" font-size="12.00">key</text>
</g>
<!-- key1&#45;&gt;encryption -->
<g id="edge1" class="edge">
<title>key1&#45;&gt;encryption</title>
<path fill="none" stroke="black" d="M39.92,-143.7C43.07,-135.81 46.88,-126.3 50.38,-117.55"/>
<polygon fill="black" stroke="black" points="53.69,-118.69 54.16,-108.1 47.19,-116.09 53.69,-118.69"/>
</g>
<!-- data1 -->
<g id="node3" class="node">
<title>data1</title>
<polygon fill="none" stroke="black" points="170,-180 78,-180 78,-144 170,-144 170,-180"/>
<text text-anchor="middle" x="124" y="-158.9" font-family="Monospace" font-size="12.00">plain data</text>
</g>
<!-- data1&#45;&gt;encryption -->
<g id="edge2" class="edge">
<title>data1&#45;&gt;encryption</title>
<path fill="none" stroke="black" d="M108.43,-143.7C100.8,-135.22 91.48,-124.86 83.12,-115.58"/>
<polygon fill="black" stroke="black" points="85.69,-113.2 76.39,-108.1 80.48,-117.88 85.69,-113.2"/>
</g>
<!-- decryption -->
<g id="node5" class="node">
<title>decryption</title>
<polygon fill="none" stroke="red" points="314,-108 222,-108 222,-72 314,-72 314,-108"/>
<text text-anchor="middle" x="268" y="-86.9" font-family="Monospace" font-size="12.00">decryption</text>
</g>
<!-- data2 -->
<g id="node7" class="node">
<title>data2</title>
<polygon fill="none" stroke="black" points="314,-36 222,-36 222,0 314,0 314,-36"/>
<text text-anchor="middle" x="268" y="-14.9" font-family="Monospace" font-size="12.00">plain data</text>
</g>
<!-- decryption&#45;&gt;data2 -->
<g id="edge6" class="edge">
<title>decryption&#45;&gt;data2</title>
<path fill="none" stroke="black" d="M268,-71.7C268,-63.98 268,-54.71 268,-46.11"/>
<polygon fill="black" stroke="black" points="271.5,-46.1 268,-36.1 264.5,-46.1 271.5,-46.1"/>
</g>
<!-- key2 -->
<g id="node6" class="node">
<title>key2</title>
<polygon fill="none" stroke="black" points="242,-180 188,-180 188,-144 242,-144 242,-180"/>
<text text-anchor="middle" x="215" y="-158.9" font-family="Monospace" font-size="12.00">key</text>
</g>
<!-- key2&#45;&gt;decryption -->
<g id="edge4" class="edge">
<title>key2&#45;&gt;decryption</title>
<path fill="none" stroke="black" d="M228.1,-143.7C234.39,-135.39 242.05,-125.28 248.96,-116.14"/>
<polygon fill="black" stroke="black" points="251.8,-118.19 255.05,-108.1 246.22,-113.96 251.8,-118.19"/>
</g>
<!-- edata2 -->
<g id="node8" class="node">
<title>edata2</title>
<polygon fill="none" stroke="black" points="382,-180 260,-180 260,-144 382,-144 382,-180"/>
<text text-anchor="middle" x="321" y="-158.9" font-family="Monospace" font-size="12.00">encrypted data</text>
</g>
<!-- edata2&#45;&gt;decryption -->
<g id="edge5" class="edge">
<title>edata2&#45;&gt;decryption</title>
<path fill="none" stroke="black" d="M307.9,-143.7C301.61,-135.39 293.95,-125.28 287.04,-116.14"/>
<polygon fill="black" stroke="black" points="289.78,-113.96 280.95,-108.1 284.2,-118.19 289.78,-113.96"/>
</g>
</g>
</svg>
