<?xml version="1.0" encoding="UTF-8" standalone="no"?>
<!DOCTYPE svg PUBLIC "-//W3C//DTD SVG 1.1//EN"
 "http://www.w3.org/Graphics/SVG/1.1/DTD/svg11.dtd">
<!-- Generated by graphviz version 2.42.3 ()
 -->
<!-- Title: tx Pages: 1 -->
<svg width="196pt" height="142pt"
 viewBox="0.00 0.00 196.00 142.00" xmlns="http://www.w3.org/2000/svg" xmlns:xlink="http://www.w3.org/1999/xlink">
<g id="graph0" class="graph" transform="scale(1 1) rotate(0) translate(4 138)">
<title>tx</title>
<polygon fill="white" stroke="transparent" points="-4,4 -4,-138 192,-138 192,4 -4,4"/>
<!-- node1 -->
<g id="node1" class="node">
<title>node1</title>
<polygon fill="none" stroke="white" points="8,-109 8,-130 180,-130 180,-109 8,-109"/>
<text text-anchor="start" x="52.5" y="-116.8" font-family="Times,serif" font-style="italic" font-size="14.00">transaction</text>
<polygon fill="none" stroke="black" points="8,-88 8,-109 180,-109 180,-88 8,-88"/>
<text text-anchor="start" x="11" y="-94.8" font-family="Times,serif" font-size="14.00">method: transfer</text>
<polygon fill="none" stroke="black" points="8,-67 8,-88 180,-88 180,-67 8,-67"/>
<text text-anchor="start" x="11" y="-73.8" font-family="Times,serif" font-size="14.00">recipient: 0x63ab..</text>
<polygon fill="none" stroke="black" points="8,-46 8,-67 180,-67 180,-46 8,-46"/>
<text text-anchor="start" x="11" y="-52.8" font-family="Times,serif" font-size="14.00">amount: 1000</text>
<polygon fill="none" stroke="black" points="8,-25 8,-46 180,-46 180,-25 8,-25"/>
<text text-anchor="start" x="11" y="-31.8" font-family="Times,serif" font-size="14.00">timestemp: &#160;1590049607</text>
<polygon fill="gray" stroke="transparent" points="8,-4 8,-25 180,-25 180,-4 8,-4"/>
<polygon fill="none" stroke="black" points="8,-4 8,-25 180,-25 180,-4 8,-4"/>
<text text-anchor="start" x="11" y="-10.8" font-family="Times,serif" font-size="14.00">signature: 0x6c20f..</text>
</g>
</g>
</svg>
