<?xml version="1.0" encoding="UTF-8" standalone="no"?>
<!DOCTYPE svg PUBLIC "-//W3C//DTD SVG 1.1//EN"
 "http://www.w3.org/Graphics/SVG/1.1/DTD/svg11.dtd">
<!-- Generated by graphviz version 2.42.3 ()
 -->
<!-- Title: utxo Pages: 1 -->
<svg width="663pt" height="260pt"
 viewBox="0.00 0.00 663.00 260.00" xmlns="http://www.w3.org/2000/svg" xmlns:xlink="http://www.w3.org/1999/xlink">
<g id="graph0" class="graph" transform="scale(1 1) rotate(0) translate(4 256)">
<title>utxo</title>
<polygon fill="white" stroke="transparent" points="-4,4 -4,-256 659,-256 659,4 -4,4"/>
<!-- tx0 -->
<g id="node1" class="node">
<title>tx0</title>
<polygon fill="none" stroke="black" points="0,-27 0,-63 54,-63 54,-27 0,-27"/>
<text text-anchor="middle" x="27" y="-42.2" font-family="Arial" font-size="11.00">tx0</text>
</g>
<!-- A0 -->
<g id="node2" class="node">
<title>A0</title>
<text text-anchor="middle" x="140" y="-42.2" font-family="Arial" font-size="11.00">A</text>
</g>
<!-- tx0&#45;&gt;A0 -->
<g id="edge1" class="edge">
<title>tx0&#45;&gt;A0</title>
<path fill="none" stroke="black" d="M54.02,-45C68.53,-45 86.83,-45 102.72,-45"/>
<polygon fill="black" stroke="black" points="102.75,-48.5 112.75,-45 102.75,-41.5 102.75,-48.5"/>
<text text-anchor="middle" x="83.5" y="-48.8" font-family="Times,serif" font-size="14.00">0.6</text>
</g>
<!-- tx3 -->
<g id="node7" class="node">
<title>tx3</title>
<polygon fill="none" stroke="black" points="226,-27 226,-63 280,-63 280,-27 226,-27"/>
<text text-anchor="middle" x="253" y="-42.2" font-family="Arial" font-size="11.00">tx3</text>
</g>
<!-- A0&#45;&gt;tx3 -->
<g id="edge4" class="edge">
<title>A0&#45;&gt;tx3</title>
<path fill="none" stroke="black" d="M167.02,-45C181.53,-45 199.83,-45 215.72,-45"/>
<polygon fill="black" stroke="black" points="215.75,-48.5 225.75,-45 215.75,-41.5 215.75,-48.5"/>
<text text-anchor="middle" x="196.5" y="-48.8" font-family="Times,serif" font-size="14.00">0.6</text>
</g>
<!-- tx1 -->
<g id="node3" class="node">
<title>tx1</title>
<polygon fill="none" stroke="black" points="0,-189 0,-225 54,-225 54,-189 0,-189"/>
<text text-anchor="middle" x="27" y="-204.2" font-family="Arial" font-size="11.00">tx1</text>
</g>
<!-- B0 -->
<g id="node4" class="node">
<title>B0</title>
<text text-anchor="middle" x="140" y="-204.2" font-family="Arial" font-size="11.00">B</text>
</g>
<!-- tx1&#45;&gt;B0 -->
<g id="edge2" class="edge">
<title>tx1&#45;&gt;B0</title>
<path fill="none" stroke="black" d="M54.02,-207C68.53,-207 86.83,-207 102.72,-207"/>
<polygon fill="black" stroke="black" points="102.75,-210.5 112.75,-207 102.75,-203.5 102.75,-210.5"/>
<text text-anchor="middle" x="83.5" y="-210.8" font-family="Times,serif" font-size="14.00">1.1</text>
</g>
<!-- tx4 -->
<g id="node8" class="node">
<title>tx4</title>
<polygon fill="none" stroke="black" points="226,-162 226,-198 280,-198 280,-162 226,-162"/>
<text text-anchor="middle" x="253" y="-177.2" font-family="Arial" font-size="11.00">tx4</text>
</g>
<!-- B0&#45;&gt;tx4 -->
<g id="edge5" class="edge">
<title>B0&#45;&gt;tx4</title>
<path fill="none" stroke="black" d="M167.02,-200.67C181.53,-197.14 199.83,-192.69 215.72,-188.82"/>
<polygon fill="black" stroke="black" points="216.86,-192.15 225.75,-186.38 215.21,-185.35 216.86,-192.15"/>
<text text-anchor="middle" x="196.5" y="-198.8" font-family="Times,serif" font-size="14.00">1.1</text>
</g>
<!-- tx2 -->
<g id="node5" class="node">
<title>tx2</title>
<polygon fill="none" stroke="black" points="0,-134 0,-170 54,-170 54,-134 0,-134"/>
<text text-anchor="middle" x="27" y="-149.2" font-family="Arial" font-size="11.00">tx2</text>
</g>
<!-- C0 -->
<g id="node6" class="node">
<title>C0</title>
<text text-anchor="middle" x="140" y="-150.2" font-family="Arial" font-size="11.00">C</text>
</g>
<!-- tx2&#45;&gt;C0 -->
<g id="edge3" class="edge">
<title>tx2&#45;&gt;C0</title>
<path fill="none" stroke="black" d="M54.02,-152.23C68.53,-152.37 86.83,-152.53 102.72,-152.67"/>
<polygon fill="black" stroke="black" points="102.72,-156.17 112.75,-152.76 102.79,-149.17 102.72,-156.17"/>
<text text-anchor="middle" x="83.5" y="-155.8" font-family="Times,serif" font-size="14.00">2.9</text>
</g>
<!-- C0&#45;&gt;tx4 -->
<g id="edge6" class="edge">
<title>C0&#45;&gt;tx4</title>
<path fill="none" stroke="black" d="M167.02,-159.33C181.53,-162.86 199.83,-167.31 215.72,-171.18"/>
<polygon fill="black" stroke="black" points="215.21,-174.65 225.75,-173.62 216.86,-167.85 215.21,-174.65"/>
<text text-anchor="middle" x="196.5" y="-171.8" font-family="Times,serif" font-size="14.00">2.9</text>
</g>
<!-- A1 -->
<g id="node9" class="node">
<title>A1</title>
<polygon fill="none" stroke="red" stroke-dasharray="5,2" points="393,-90 339,-90 339,-54 393,-54 393,-90"/>
<text text-anchor="middle" x="366" y="-69.2" font-family="Arial" font-size="11.00">A</text>
</g>
<!-- tx3&#45;&gt;A1 -->
<g id="edge7" class="edge">
<title>tx3&#45;&gt;A1</title>
<path fill="none" stroke="black" d="M280.02,-51.33C294.53,-54.86 312.83,-59.31 328.72,-63.18"/>
<polygon fill="black" stroke="black" points="328.21,-66.65 338.75,-65.62 329.86,-59.85 328.21,-66.65"/>
<text text-anchor="middle" x="309.5" y="-64.8" font-family="Times,serif" font-size="14.00">0.1</text>
</g>
<!-- B1 -->
<g id="node10" class="node">
<title>B1</title>
<polygon fill="none" stroke="red" stroke-dasharray="5,2" points="393,-36 339,-36 339,0 393,0 393,-36"/>
<text text-anchor="middle" x="366" y="-15.2" font-family="Arial" font-size="11.00">B</text>
</g>
<!-- tx3&#45;&gt;B1 -->
<g id="edge8" class="edge">
<title>tx3&#45;&gt;B1</title>
<path fill="none" stroke="black" d="M280.02,-38.67C294.53,-35.14 312.83,-30.69 328.72,-26.82"/>
<polygon fill="black" stroke="black" points="329.86,-30.15 338.75,-24.38 328.21,-23.35 329.86,-30.15"/>
<text text-anchor="middle" x="309.5" y="-37.8" font-family="Times,serif" font-size="14.00">0.5</text>
</g>
<!-- A2 -->
<g id="node11" class="node">
<title>A2</title>
<polygon fill="none" stroke="red" stroke-dasharray="5,2" points="393,-252 339,-252 339,-216 393,-216 393,-252"/>
<text text-anchor="middle" x="366" y="-231.2" font-family="Arial" font-size="11.00">A</text>
</g>
<!-- tx4&#45;&gt;A2 -->
<g id="edge9" class="edge">
<title>tx4&#45;&gt;A2</title>
<path fill="none" stroke="black" d="M280.02,-192.66C294.81,-199.85 313.52,-208.96 329.63,-216.79"/>
<polygon fill="black" stroke="black" points="328.23,-220 338.75,-221.23 331.29,-213.71 328.23,-220"/>
<text text-anchor="middle" x="309.5" y="-214.8" font-family="Times,serif" font-size="14.00">0.2</text>
</g>
<!-- B2 -->
<g id="node12" class="node">
<title>B2</title>
<text text-anchor="middle" x="366" y="-177.2" font-family="Arial" font-size="11.00">B</text>
</g>
<!-- tx4&#45;&gt;B2 -->
<g id="edge10" class="edge">
<title>tx4&#45;&gt;B2</title>
<path fill="none" stroke="black" d="M280.02,-180C294.53,-180 312.83,-180 328.72,-180"/>
<polygon fill="black" stroke="black" points="328.75,-183.5 338.75,-180 328.75,-176.5 328.75,-183.5"/>
<text text-anchor="middle" x="309.5" y="-183.8" font-family="Times,serif" font-size="14.00">1.5</text>
</g>
<!-- C2 -->
<g id="node13" class="node">
<title>C2</title>
<polygon fill="none" stroke="red" stroke-dasharray="5,2" points="393,-144 339,-144 339,-108 393,-108 393,-144"/>
<text text-anchor="middle" x="366" y="-123.2" font-family="Arial" font-size="11.00">C</text>
</g>
<!-- tx4&#45;&gt;C2 -->
<g id="edge11" class="edge">
<title>tx4&#45;&gt;C2</title>
<path fill="none" stroke="black" d="M280.02,-167.34C294.81,-160.15 313.52,-151.04 329.63,-143.21"/>
<polygon fill="black" stroke="black" points="331.29,-146.29 338.75,-138.77 328.23,-140 331.29,-146.29"/>
<text text-anchor="middle" x="309.5" y="-160.8" font-family="Times,serif" font-size="14.00">2.3</text>
</g>
<!-- tx5 -->
<g id="node14" class="node">
<title>tx5</title>
<polygon fill="none" stroke="black" points="470,-163 470,-199 524,-199 524,-163 470,-163"/>
<text text-anchor="middle" x="497" y="-178.2" font-family="Arial" font-size="11.00">tx5</text>
</g>
<!-- B2&#45;&gt;tx5 -->
<g id="edge12" class="edge">
<title>B2&#45;&gt;tx5</title>
<path fill="none" stroke="black" d="M393.11,-180.2C412.25,-180.35 438.49,-180.55 459.68,-180.72"/>
<polygon fill="black" stroke="black" points="459.91,-184.22 469.93,-180.8 459.96,-177.22 459.91,-184.22"/>
<text text-anchor="middle" x="422.5" y="-183.8" font-family="Times,serif" font-size="14.00">1.5</text>
</g>
<!-- tx6 -->
<g id="node17" class="node">
<title>tx6</title>
<polygon fill="none" stroke="black" points="470,-108 470,-144 524,-144 524,-108 470,-108"/>
<text text-anchor="middle" x="497" y="-123.2" font-family="Arial" font-size="11.00">tx6</text>
</g>
<!-- C2&#45;&gt;tx6 -->
<!-- node1 -->
<g id="node19" class="node">
<title>node1</title>
<polygon fill="none" stroke="white" points="460,-67 460,-85 534,-85 534,-67 460,-67"/>
<text text-anchor="start" x="463" y="-74.2" font-family="Arial" font-style="italic" font-size="11.00">utxo sum:</text>
<polygon fill="none" stroke="black" points="460,-49 460,-67 534,-67 534,-49 460,-49"/>
<text text-anchor="start" x="463" y="-55.2" font-family="Arial" font-size="11.00">A: 0.3</text>
<polygon fill="none" stroke="black" points="460,-31 460,-49 534,-49 534,-31 460,-31"/>
<text text-anchor="start" x="463" y="-37.2" font-family="Arial" font-size="11.00">B: 1.5</text>
<polygon fill="none" stroke="black" points="460,-13 460,-31 534,-31 534,-13 460,-13"/>
<text text-anchor="start" x="463" y="-19.2" font-family="Arial" font-size="11.00">C: 3.3</text>
</g>
<!-- C2&#45;&gt;node1 -->
<!-- B3 -->
<g id="node15" class="node">
<title>B3</title>
<polygon fill="none" stroke="red" stroke-dasharray="5,2" points="655,-252 601,-252 601,-216 655,-216 655,-252"/>
<text text-anchor="middle" x="628" y="-231.2" font-family="Arial" font-size="11.00">B</text>
</g>
<!-- tx5&#45;&gt;B3 -->
<g id="edge13" class="edge">
<title>tx5&#45;&gt;B3</title>
<path fill="none" stroke="black" d="M524.11,-191.73C543.51,-199.7 570.21,-210.67 591.55,-219.44"/>
<polygon fill="black" stroke="black" points="590.35,-222.73 600.93,-223.29 593.01,-216.25 590.35,-222.73"/>
<text text-anchor="middle" x="571.5" y="-218.8" font-family="Times,serif" font-size="14.00">1.0</text>
</g>
<!-- C3 -->
<g id="node16" class="node">
<title>C3</title>
<polygon fill="none" stroke="red" stroke-dasharray="5,2" points="655,-198 601,-198 601,-162 655,-162 655,-198"/>
<text text-anchor="middle" x="628" y="-177.2" font-family="Arial" font-size="11.00">C</text>
</g>
<!-- tx5&#45;&gt;C3 -->
<g id="edge14" class="edge">
<title>tx5&#45;&gt;C3</title>
<path fill="none" stroke="black" d="M524.11,-180.8C543.25,-180.65 569.49,-180.45 590.68,-180.28"/>
<polygon fill="black" stroke="black" points="590.96,-183.78 600.93,-180.2 590.91,-176.78 590.96,-183.78"/>
<text text-anchor="middle" x="571.5" y="-183.8" font-family="Times,serif" font-size="14.00">0.5</text>
</g>
<!-- C4 -->
<g id="node18" class="node">
<title>C4</title>
<polygon fill="none" stroke="red" stroke-dasharray="5,2" points="655,-144 601,-144 601,-108 655,-108 655,-144"/>
<text text-anchor="middle" x="628" y="-123.2" font-family="Arial" font-size="11.00">C</text>
</g>
<!-- tx6&#45;&gt;C4 -->
<g id="edge16" class="edge">
<title>tx6&#45;&gt;C4</title>
<path fill="none" stroke="black" d="M524.11,-126C543.25,-126 569.49,-126 590.68,-126"/>
<polygon fill="black" stroke="black" points="590.93,-129.5 600.93,-126 590.93,-122.5 590.93,-129.5"/>
<text text-anchor="middle" x="571.5" y="-129.8" font-family="Times,serif" font-size="14.00">0.5</text>
</g>
</g>
</svg>
