<?xml version="1.0" encoding="UTF-8" standalone="no"?>
<!DOCTYPE svg PUBLIC "-//W3C//DTD SVG 1.1//EN"
 "http://www.w3.org/Graphics/SVG/1.1/DTD/svg11.dtd">
<!-- Generated by graphviz version 2.42.3 ()
 -->
<!-- Title: xor Pages: 1 -->
<svg width="282pt" height="188pt"
 viewBox="0.00 0.00 282.00 188.00" xmlns="http://www.w3.org/2000/svg" xmlns:xlink="http://www.w3.org/1999/xlink">
<g id="graph0" class="graph" transform="scale(1 1) rotate(0) translate(4 184)">
<title>xor</title>
<polygon fill="white" stroke="transparent" points="-4,4 -4,-184 278,-184 278,4 -4,4"/>
<!-- nd -->
<g id="node1" class="node">
<title>nd</title>
<polygon fill="none" stroke="black" points="8,-151 8,-172 22,-172 22,-151 8,-151"/>
<text text-anchor="start" x="11" y="-157.8" font-family="Times,serif" font-size="14.00">0</text>
<polygon fill="none" stroke="black" points="22,-151 22,-172 36,-172 36,-151 22,-151"/>
<text text-anchor="start" x="25" y="-157.8" font-family="Times,serif" font-size="14.00">1</text>
<polygon fill="none" stroke="black" points="36,-151 36,-172 50,-172 50,-151 36,-151"/>
<text text-anchor="start" x="39" y="-157.8" font-family="Times,serif" font-size="14.00">1</text>
<polygon fill="none" stroke="black" points="50,-151 50,-172 64,-172 64,-151 50,-151"/>
<text text-anchor="start" x="53" y="-157.8" font-family="Times,serif" font-size="14.00">0</text>
<polygon fill="none" stroke="black" points="64,-151 64,-172 78,-172 78,-151 64,-151"/>
<text text-anchor="start" x="67" y="-157.8" font-family="Times,serif" font-size="14.00">0</text>
<polygon fill="none" stroke="black" points="78,-151 78,-172 92,-172 92,-151 78,-151"/>
<text text-anchor="start" x="81" y="-157.8" font-family="Times,serif" font-size="14.00">0</text>
<polygon fill="none" stroke="black" points="92,-151 92,-172 106,-172 106,-151 92,-151"/>
<text text-anchor="start" x="95" y="-157.8" font-family="Times,serif" font-size="14.00">1</text>
<polygon fill="none" stroke="black" points="106,-151 106,-172 120,-172 120,-151 106,-151"/>
<text text-anchor="start" x="109" y="-157.8" font-family="Times,serif" font-size="14.00">1</text>
</g>
<!-- nx -->
<g id="node3" class="node">
<title>nx</title>
<polygon fill="none" stroke="black" points="81,-79 81,-100 95,-100 95,-79 81,-79"/>
<text text-anchor="start" x="84" y="-85.8" font-family="Times,serif" font-size="14.00">x</text>
<polygon fill="none" stroke="black" points="95,-79 95,-100 109,-100 109,-79 95,-79"/>
<text text-anchor="start" x="98" y="-85.8" font-family="Times,serif" font-size="14.00">x</text>
<polygon fill="none" stroke="black" points="109,-79 109,-100 123,-100 123,-79 109,-79"/>
<text text-anchor="start" x="112" y="-85.8" font-family="Times,serif" font-size="14.00">x</text>
<polygon fill="none" stroke="black" points="123,-79 123,-100 137,-100 137,-79 123,-79"/>
<text text-anchor="start" x="126" y="-85.8" font-family="Times,serif" font-size="14.00">x</text>
<polygon fill="none" stroke="black" points="137,-79 137,-100 151,-100 151,-79 137,-79"/>
<text text-anchor="start" x="140" y="-85.8" font-family="Times,serif" font-size="14.00">x</text>
<polygon fill="none" stroke="black" points="151,-79 151,-100 165,-100 165,-79 151,-79"/>
<text text-anchor="start" x="154" y="-85.8" font-family="Times,serif" font-size="14.00">x</text>
<polygon fill="none" stroke="black" points="165,-79 165,-100 179,-100 179,-79 165,-79"/>
<text text-anchor="start" x="168" y="-85.8" font-family="Times,serif" font-size="14.00">x</text>
<polygon fill="none" stroke="black" points="179,-79 179,-100 193,-100 193,-79 179,-79"/>
<text text-anchor="start" x="182" y="-85.8" font-family="Times,serif" font-size="14.00">x</text>
</g>
<!-- nd&#45;&gt;nx -->
<g id="edge1" class="edge">
<title>nd:port0&#45;&gt;nx:port0</title>
<path fill="none" stroke="black" d="M15,-150C15,-114.89 73.92,-134.86 85.89,-110.94"/>
<polygon fill="black" stroke="black" points="89.35,-111.51 88,-101 82.5,-110.06 89.35,-111.51"/>
</g>
<!-- nd&#45;&gt;nx -->
<g id="edge4" class="edge">
<title>nd:port1&#45;&gt;nx:port1</title>
<path fill="none" stroke="black" d="M29,-150C29,-114.89 87.92,-134.86 99.89,-110.94"/>
<polygon fill="black" stroke="black" points="103.35,-111.51 102,-101 96.5,-110.06 103.35,-111.51"/>
</g>
<!-- nd&#45;&gt;nx -->
<g id="edge7" class="edge">
<title>nd:port7&#45;&gt;nx:port7</title>
<path fill="none" stroke="black" d="M113,-150C113,-114.89 171.92,-134.86 183.89,-110.94"/>
<polygon fill="black" stroke="black" points="187.35,-111.51 186,-101 180.5,-110.06 187.35,-111.51"/>
</g>
<!-- nk -->
<g id="node2" class="node">
<title>nk</title>
<polygon fill="none" stroke="black" points="154,-151 154,-172 168,-172 168,-151 154,-151"/>
<text text-anchor="start" x="157" y="-157.8" font-family="Times,serif" font-size="14.00">1</text>
<polygon fill="none" stroke="black" points="168,-151 168,-172 182,-172 182,-151 168,-151"/>
<text text-anchor="start" x="171" y="-157.8" font-family="Times,serif" font-size="14.00">0</text>
<polygon fill="none" stroke="black" points="182,-151 182,-172 196,-172 196,-151 182,-151"/>
<text text-anchor="start" x="185" y="-157.8" font-family="Times,serif" font-size="14.00">1</text>
<polygon fill="none" stroke="black" points="196,-151 196,-172 210,-172 210,-151 196,-151"/>
<text text-anchor="start" x="199" y="-157.8" font-family="Times,serif" font-size="14.00">0</text>
<polygon fill="none" stroke="black" points="210,-151 210,-172 224,-172 224,-151 210,-151"/>
<text text-anchor="start" x="213" y="-157.8" font-family="Times,serif" font-size="14.00">1</text>
<polygon fill="none" stroke="black" points="224,-151 224,-172 238,-172 238,-151 224,-151"/>
<text text-anchor="start" x="227" y="-157.8" font-family="Times,serif" font-size="14.00">1</text>
<polygon fill="none" stroke="black" points="238,-151 238,-172 252,-172 252,-151 238,-151"/>
<text text-anchor="start" x="241" y="-157.8" font-family="Times,serif" font-size="14.00">0</text>
<polygon fill="none" stroke="black" points="252,-151 252,-172 266,-172 266,-151 252,-151"/>
<text text-anchor="start" x="255" y="-157.8" font-family="Times,serif" font-size="14.00">0</text>
</g>
<!-- nk&#45;&gt;nx -->
<g id="edge2" class="edge">
<title>nk:port0&#45;&gt;nx:port0</title>
<path fill="none" stroke="black" d="M161,-150C161,-114.89 102.08,-134.86 90.11,-110.94"/>
<polygon fill="black" stroke="black" points="93.5,-110.06 88,-101 86.65,-111.51 93.5,-110.06"/>
</g>
<!-- nk&#45;&gt;nx -->
<g id="edge5" class="edge">
<title>nk:port1&#45;&gt;nx:port1</title>
<path fill="none" stroke="black" d="M175,-150C175,-114.89 116.08,-134.86 104.11,-110.94"/>
<polygon fill="black" stroke="black" points="107.5,-110.06 102,-101 100.65,-111.51 107.5,-110.06"/>
</g>
<!-- nk&#45;&gt;nx -->
<g id="edge8" class="edge">
<title>nk:port7&#45;&gt;nx:port7</title>
<path fill="none" stroke="black" d="M259,-150C259,-114.89 200.08,-134.86 188.11,-110.94"/>
<polygon fill="black" stroke="black" points="191.5,-110.06 186,-101 184.65,-111.51 191.5,-110.06"/>
</g>
<!-- ne -->
<g id="node4" class="node">
<title>ne</title>
<polygon fill="none" stroke="black" points="81,-7 81,-28 95,-28 95,-7 81,-7"/>
<text text-anchor="start" x="84" y="-13.8" font-family="Times,serif" font-size="14.00">1</text>
<polygon fill="none" stroke="black" points="95,-7 95,-28 109,-28 109,-7 95,-7"/>
<text text-anchor="start" x="98" y="-13.8" font-family="Times,serif" font-size="14.00">0</text>
<polygon fill="none" stroke="black" points="109,-7 109,-28 123,-28 123,-7 109,-7"/>
<text text-anchor="start" x="112" y="-13.8" font-family="Times,serif" font-size="14.00">1</text>
<polygon fill="none" stroke="black" points="123,-7 123,-28 137,-28 137,-7 123,-7"/>
<text text-anchor="start" x="126" y="-13.8" font-family="Times,serif" font-size="14.00">0</text>
<polygon fill="none" stroke="black" points="137,-7 137,-28 151,-28 151,-7 137,-7"/>
<text text-anchor="start" x="140" y="-13.8" font-family="Times,serif" font-size="14.00">1</text>
<polygon fill="none" stroke="black" points="151,-7 151,-28 165,-28 165,-7 151,-7"/>
<text text-anchor="start" x="154" y="-13.8" font-family="Times,serif" font-size="14.00">1</text>
<polygon fill="none" stroke="black" points="165,-7 165,-28 179,-28 179,-7 165,-7"/>
<text text-anchor="start" x="168" y="-13.8" font-family="Times,serif" font-size="14.00">0</text>
<polygon fill="none" stroke="black" points="179,-7 179,-28 193,-28 193,-7 179,-7"/>
<text text-anchor="start" x="182" y="-13.8" font-family="Times,serif" font-size="14.00">0</text>
</g>
<!-- nx&#45;&gt;ne -->
<g id="edge3" class="edge">
<title>nx:port0&#45;&gt;ne:port0</title>
<path fill="none" stroke="black" d="M88,-78C88,-60.14 88,-53.26 88,-39.35"/>
<polygon fill="black" stroke="black" points="91.5,-39 88,-29 84.5,-39 91.5,-39"/>
</g>
<!-- nx&#45;&gt;ne -->
<g id="edge6" class="edge">
<title>nx:port1&#45;&gt;ne:port1</title>
<path fill="none" stroke="black" d="M102,-78C102,-60.14 102,-53.26 102,-39.35"/>
<polygon fill="black" stroke="black" points="105.5,-39 102,-29 98.5,-39 105.5,-39"/>
</g>
<!-- nx&#45;&gt;ne -->
<g id="edge9" class="edge">
<title>nx:port7&#45;&gt;ne:port7</title>
<path fill="none" stroke="black" d="M186,-78C186,-60.14 186,-53.26 186,-39.35"/>
<polygon fill="black" stroke="black" points="189.5,-39 186,-29 182.5,-39 189.5,-39"/>
</g>
</g>
</svg>
